<?xml version="1.0"?>
<svg id="Layer_2" data-name="Layer 2" xmlns="http://www.w3.org/2000/svg" viewBox="0 0 236.84 101.48">
  <defs>
    
  </defs>
  <g id="Layer_1-2" data-name="Layer 1">
    <g id="Generative_Object" data-name="Generative Object">
      <g>
        <path class="cls-72" d="M173.98,87.75c.18-.08.34.05.49.08.09.53-.19,1.08-.13,1.67l.19,1.73c-.04-.38,1.01,2.64.8,2.98l.44,7.16c-.96,0-1.94.21-2.85-.14.15-.19.06-.7-.33-.79-.46-.1-.74-.1-.97-.25l-.08-6.52c-.01-.83.42-1.72,0-2.63-.32.26-.76.6-1.16.42l-.99-.43c-.33-.14-.5-.81-1-.79-.03-.21-.21-.45-.32-.61.17.05.42.09.6-.01.12-.07.2-.24.15-.44l1.66.85,1.87-2.54c.36.12.4.59.68.65.47.1.65-.3.98-.4Z"></path>
        <path class="cls-152" d="M172.9,101.25c-.6.24-1.61.25-2.19-.02-.18-.56.71-.45.89-1.02.23.15.5.16.97.25.4.08.48.59.33.79Z"></path>
        <path class="cls-88" d="M174.53,86.18c-.81.14-1.6-.05-2.42,0-.05-.23-.45-.21-.57-.38.25.36.76-2.29,2.26-1.57.9.43,1.06,1.18.73,1.96Z"></path>
        <path class="cls-144" d="M174.53,86.18c-.2.49-.27,1.09-.55,1.57-.33.11-.51.5-.98.4-.28-.06-.32-.53-.68-.65-.14-.44-.11-.9-.22-1.34.82-.04,1.61.14,2.42,0Z"></path>
        <path class="cls-2" d="M168.28,88.78c.3-.06.41.27.52.42.05.2-.02.38-.15.44-.18.1-.44.06-.6.01-.09-.13-.38-.21-.41-.49-.01-.15.01-.38.24-.47.1-.04.29.05.4.09Z"></path>
        <path class="cls-99" d="M176.34,93.7c.34.16.35.62.24.92-.07.19-.46.53-.66.3-.24-.28-.25-.73-.6-.7.22-.34-.84-3.36-.8-2.98.24-.02.66-.03.73.23.22.85.46,1.42.26,2.2.5.08.62-.09.83.02Z"></path>
        <path class="cls-12" d="M171.52,93.69c-.61-.19-1.26-.03-2.01-.18-.34-.82-.17-1.68-.14-2.47l.99.43c.4.18.83-.16,1.16-.42.43.91,0,1.8,0,2.63Z"></path>
      </g>
      <g>
        <path class="cls-30" d="M4.82,87.56c-1.05,1.64-.25,2.95.45,4.26.62,2.2.63,4.79.4,7l-.03.27c-.65.26.25.88-.02,1.31-.44-.04-.98,0-1.26.31-.37-.09-.8-.56-1.41-.19.2.18.3.46.55.5.45.51-3.38.71-3.46.02-.04-.37-.1-.89.07-1.15.24-.39.74-.23,1.38-.22.32-2.53.67-5.16.25-7.84-.24-1.55-.57-3.48.99-4.33.67.11,1.42-.12,2.08.08ZM3.64,95.29c-.24,1.34-.12,2.52-.57,3.79,1.52,3.1.76-3.64.57-3.79Z"></path>
        <path class="cls-8" d="M7.6,89.95c.04.17.21.5.36.59.16.1.46.4.66.25.04.23.06.46.02.69-.36-.04-.74.11-1.09.14-1.96.14-2.1-1.47-2.29.2-.7-1.31-1.49-2.61-.45-4.26,1.45.45,2.14,4.13,2.78,2.39Z"></path>
        <path class="cls-143" d="M5.1,85.9c-.26-.13-.46.09-.74.08-.55-.02-1.06.29-1.62.23-.73-.47-.27-1.59.27-1.99.78-.58,1.73-.19,2.06.71.08.22.44.33.37.47-.1.2-.29.28-.33.5Z"></path>
        <path class="cls-57" d="M5.62,100.4c.34.19.96.37.87.85-.66.15-1.89.54-2.24-.23l.11-.31c.27-.31.82-.35,1.26-.31Z"></path>
        <path class="cls-45" d="M5.1,85.9c-.09.46-.1,1.27-.29,1.67-.65-.2-1.41.03-2.08-.08.3-.26,0-.44-.01-.78.33.19.73.39,1.18.25.34-.1.55-.58.45-.97.28.01.49-.22.74-.08Z"></path>
        <path class="cls-81" d="M4.36,85.98c.1.39-.11.87-.45.97-.45.13-.85-.06-1.18-.25,0-.14.05-.33.01-.49.56.05,1.07-.26,1.62-.23Z"></path>
        <path class="cls-117" d="M4.36,100.7l-.11.31h-.75c-.25-.05-.35-.32-.55-.5.61-.37,1.04.1,1.41.19Z"></path>
        <path class="cls-103" d="M6.3,98.79c0,.22.03.41,0,.55-.02.18-.27.35-.53.26-.15-.05-.07-.38-.14-.52l.03-.27c.21.02.42-.02.64-.02Z"></path>
        <path class="cls-203" d="M3.64,95.29c.19.15.95,6.89-.57,3.79.45-1.27.33-2.45.57-3.79Z"></path>
      </g>
      <g>
        <path class="cls-67" d="M148.38,91.74c.08.02.17.06.25.03-.14.16,0,.82.32.86.62.07,1.12-.04,1.6.04-.11.16,0,.35,0,.48-.2,2.3.05,4.67,0,7.03-.31.18-.79.34-1.35.18-.14.34-.01.64-.18.87-.3.39-.86-.09-1.14.01-.14-.24-.14-.51-.28-.65-.27-.26-.76-.22-1.04-.19-.23-2.24.32-4.48.26-6.73-.01-.49.31-1,.21-1.51.49-.07.9-.3,1.36-.43Z"></path>
        <path class="cls-140" d="M151.59,101.26c-.78.32-1.79.19-2.57-.02.17-.23.04-.53.18-.87.56.16,1.04,0,1.35-.18.24.49.88.59,1.04,1.07Z"></path>
        <path class="cls-6" d="M147.87,101.25c-.42.15-1.03.09-1.53.1,0-.31.24-.63.21-.94.28-.03.77-.07,1.04.19.14.14.14.41.28.65Z"></path>
        <path class="cls-87" d="M150.55,92.67c-.48-.08-.98.03-1.6-.04-.32-.04-.47-.71-.32-.86.27-.11.78-.07.93-.45.13-.32-.35-.56-.58-.54l.21-1.15c.09-.51.26-1.05.61-1.48.38.03.34.51.63.9.19.26.94-.04,1.32.21.17.8-.26,1.32-.76,1.76.2.36.52.69.28,1.09-.2.33-.3.61-.73.56Z"></path>
        <path class="cls-167" d="M147.33,88.08c.9,2.04-.41,2.83.89,2.94.11.23.23.47.17.73-.46.12-.87.36-1.36.43-.35.05-.84.07-1.11-.16-.41-.34-.18-3.75,1.41-3.93Z"></path>
        <path class="cls-90" d="M149.82,86.17c.17.34-.41.77-.29,1.11l.29.86c-.36.44-.52.97-.61,1.48-.48-.06-1.06-.28-1.15-.73-.07-.34.16-.73-.17-1.12-.14-.16.01-.57-.2-.77.32,0,.31-.61.28-.82.6-.19,1.31-.45,1.86-.02Z"></path>
        <path class="cls-128" d="M149.82,86.17c-.55-.43-1.25-.16-1.86.02-.23.07-.39.22-.62.26-.22-.3-.12-.64-.06-1.08.1-.73.6-1.26,1.29-1.21,1.01.06,1.6,1.66,1.54,1.73-.09.09-.14.24-.28.28Z"></path>
        <path class="cls-216" d="M147.89,87.79c.33.39.1.77.17,1.12.09.45.68.66,1.15.73l-.21,1.15c-.28.03-.49.27-.78.23-1.3-.1.01-.9-.89-2.94.19-.02.37-.24.56-.29Z"></path>
        <path class="cls-66" d="M147.68,87.02c-.15-.13-.23-.39-.35-.56.24-.04.4-.19.62-.26.04.21.04.82-.28.82Z"></path>
        <path class="cls-199" d="M148.64,91.77c-.08.03-.17,0-.25-.03.05-.26-.06-.5-.17-.73.29.03.5-.21.78-.23.22-.02.71.22.58.54-.15.38-.67.34-.93.45Z"></path>
      </g>
      <g>
        <path class="cls-119" d="M224.17,87.23c.34.17.53.64.73,1.11l2.32,5.37c.16.38.15,1.06.15,1.37-.06.4-.29,1,.05,1.36.05.21-.35.57-.1.78-.63.11-1.4.29-2.07.26-.2-.75-1.22-1.39-2.2-1.33-1.5.1-2.38,1.7-2.2,2.94-.3.19-.67.2-.96,0,.39-.9-.15-2.06-.08-2.93.22-2.54.08-5.13.08-7.81,0-1.94,2.6-1.17,4.28-1.12ZM225.67,92.23c-.41-1.58-1.09-2.68-1.71-4.03-.97-.23-1.92-.23-2.92.01-.13,1.45-.18,2.75.02,4.17,1.67.01,3.02.08,4.6-.15ZM222.2,93.31c-.46-.27-.88-.14-1-.04-.11.1-.44.35-.14.4.63.11,1.4.12,1.14-.37Z"></path>
        <path class="cls-109" d="M233.22,88.37c-1.15-.67-5.63-.39-7.67-.41.27,1.56,1.01,2.85,1.75,4.27h7.16c.18-.8-1.68-3.4-.95-3.32.43.26.98,2.43,2.53,4.46.4.52.45,1.47-.13,1.72-.33.09-.73-.13-1.05.09-.23.16-.33.75-.09,1.03.3.36.88.16,1.23.16.45.11.29.63.26.98-2.99,0-6.01.25-8.94-.13-.25-.21.15-.57.1-.78l1.8-.08c.43-.02.37-1.07-.04-1.18-.64-.17-1.24,0-1.8-.11,0-.31.02-.99-.15-1.37l-2.32-5.37c-.2-.47-.39-.94-.73-1.11,1.42-.37,2.99.24,4.21-.59.79,1.07,4.69-.65,4.84,1.73ZM233.82,96.6c.41-.1.41-1.52,0-1.57-1.26-.14-2.58-.31-3.69.1-.35.13-.26,1.55.13,1.56,1.21.04,2.36.2,3.56-.1Z"></path>
        <path class="cls-54" d="M228.38,86.64c-1.22.82-2.79.22-4.21.59-1.68-.05-4.29-.82-4.28,1.12,0,2.68.14,5.27-.08,7.81-.37,0-.77-.06-1.06-.26l.06-12.14c.37.02,1.05-.13,1.5-.13h5.98c.64,0,1.64-.17,1.93.68s.1,1.63.15,2.33Z"></path>
        <path class="cls-189" d="M233.22,88.37c0,.15.15.46.29.54-.73-.08,1.13,2.52.95,3.32h-7.16c-.74-1.42-1.48-2.71-1.75-4.27,2.04.02,6.52-.26,7.67.41Z"></path>
        <path class="cls-28" d="M225.25,97.49l.39,1.45c3.08-.27,4.89.55,7.88.27.38-.04.65.31.75.53.11.24-.25.4-.16.7-.33.84-1.13,1.03-2.07.98-3.19-.19-.79-2.72-3.88-2.12-.55.11-1.49-.36-1.87.07-.45.99-.88,1.92-1.82,2.03-3.1.37-2.46-1.21-3.63-2.3-.18-1.24.69-2.84,2.2-2.94.99-.07,2,.57,2.2,1.33ZM223.17,100.2c.84-.08.84-1.02.77-1.49-.05-.32-.31-.9-.88-.87-.66.04-.86.75-.87,1.12-.01.46.2,1.31.98,1.24Z"></path>
        <path class="cls-71" d="M219.81,96.16c-.08.87.46,2.04.08,2.93-.23.53-.55,1.26-.94,1.74-.82,1.01-2,.4-2.92.41-.32-1.56-.09-3.25-.11-5,1.05-.26,2.07.16,2.85-.34.28.2.69.27,1.06.26Z"></path>
        <path class="cls-104" d="M236.26,97.36c.53-.04.54.63.58,1.04.04.47-.24.87-.92.89-.28,0-1.02-.11-1.16.15s-.49.63-.64,1.01c-.09-.31.27-.47.16-.7-.11-.22-.37-.57-.75-.53-2.99.28-4.8-.53-7.88-.27l-.39-1.45c.67.03,1.44-.15,2.07-.26,2.93.38,5.96.12,8.94.13Z"></path>
        <path class="cls-117" d="M235.91,95.09l.09,1.29c-.35,0-.93.2-1.23-.16-.24-.29-.14-.88.09-1.03.32-.22.72,0,1.05-.09Z"></path>
        <path class="cls-160" d="M225.67,92.23c-1.59.24-2.94.17-4.6.15-.21-1.42-.16-2.72-.02-4.17.99-.24,1.95-.24,2.92-.01.62,1.35,1.31,2.45,1.71,4.03Z"></path>
        <path class="cls-157" d="M227.41,96.44c-.33-.37-.11-.96-.05-1.36.56.1,1.16-.06,1.8.11.42.11.47,1.16.04,1.18l-1.8.08Z"></path>
        <path class="cls-95" d="M222.2,93.31c.26.48-.52.48-1.14.37-.3-.05.03-.31.14-.4.12-.1.55-.23,1,.04Z"></path>
        <path class="cls-107" d="M233.82,96.6c-1.19.3-2.34.14-3.56.1-.38-.01-.48-1.43-.13-1.56,1.11-.41,2.43-.24,3.69-.1.4.04.4,1.46,0,1.57Z"></path>
        <path class="cls-62" d="M223.17,100.2c-.78.08-.99-.77-.98-1.24,0-.37.21-1.08.87-1.12.57-.03.83.54.88.87.07.46.07,1.4-.77,1.49Z"></path>
      </g>
      <g>
        <path class="cls-54" d="M215.57,42.52c.59,2.29.16,4.71.16,7.16v17.99s.05,1.9.05,1.9c.11,4.73-.13,9.33.08,13.89.15,3.32,0,6.66-.05,10.15l-39.2-.16.05-1.95,32.82-.04v-13.49s-33.35-.02-33.35-.02l-.11,11.17c-.66-.51-.96-1.14-1.55-1.29-.15-.04-.31-.16-.49-.08.28-.49.35-1.09.55-1.57.33-.78.17-1.53-.73-1.96-1.5-.72-2.01,1.93-2.26,1.57.12.18.52.16.57.38.1.44.08.9.22,1.34l-1.87,2.54-1.66-.85c-.11-.15-.21-.48-.52-.42-.24-3.18.25-6.4-.24-9.53-.01-.07-.02-.15-.03-.23.36-.11.88-.61,1.07-.91,1.52.03,3.17-.41,4.95-.06.21-1.06.19-1.76.05-2.8l-15.94.17c-1.21.01-4.53-.69-5.89.32-1.28.95-2.39,2.15-3.61,3.4-.43.44-.09,1.36-.13,1.93,1.41.22,2.67.05,3.96.05v11.76c-.01.44-.26.57-.53.63-.24.18-.5,0-.67.03-.39.08-.7.05-.7-.4.01-.14-.11-.33,0-.48.44.05.54-.23.73-.56.24-.4-.08-.73-.28-1.09.5-.44.93-.96.76-1.76-.38-.25-1.13.05-1.32-.21-.29-.39-.25-.87-.63-.9l-.29-.86c-.12-.34.46-.77.29-1.11.14-.04.19-.19.28-.28.07-.06-.52-1.67-1.54-1.73-.69-.04-1.19.48-1.29,1.21-.06.44-.16.78.06,1.08.12.16.2.43.35.56.22.2.07.61.2.77-.19.05-.37.27-.56.29-1.6.19-1.82,3.59-1.41,3.93.27.22.77.2,1.11.16.1.51-.22,1.02-.21,1.51l-4.49-.19v-51.02s73.25.05,73.25.05ZM151.71,59.28c.49.45.48,1.26,1.21.82-.46-.54-2.2-6.7-3.16-4.5l-1.96,4.5c.93.52.75-.51,1.16-.84.55-.46,2.2-.49,2.76.02ZM162.73,56.11c.14-.05.25-.23.13-.38-.42-.53-2.85-1.2-3.96.54-.74,1.16-.44,2.78.6,3.49,1.11.76,2.97.98,3.49-.64-1.32.44-2.32.84-3.1.09-.74-.7-.85-1.78-.43-2.49,1.05-1.77,2.91-.47,3.28-.61ZM174.33,55.74c-.35-.58-2.87-1.16-3.9.5-.74,1.19-.48,2.83.58,3.53s2.98.98,3.5-.67c-1.38.45-2.3.87-3.11.11-.75-.7-.83-1.78-.46-2.47,1.23-2.23,4.26.43,3.39-1ZM177.93,56.43c.37-1.17,1.65-.49,2.67-.46-.43-1.18-2.08-.97-2.96-.41-.54.34-.58,1.12-.35,1.62.48,1.03,3.52.83,2.74,2.02-.67,1.02-1.95.12-2.97.1.44,1.24,1.95,1.15,2.96.77.62-.23,1.03-1,.79-1.62-.51-1.32-3.26-.84-2.89-2.03ZM183.87,58.39c.49-1.27,1.51-2.03,1.62-3.3-1.2.53-1.27,1.87-2.07,2.64-.83-.82-.85-2.14-2.07-2.67.08,1.4,1.21,2.22,1.65,3.49.2.57-.17,1.21.32,1.78.79-.34.25-1.15.55-1.93ZM186.81,56.42c.37-1.06,1.66-.51,2.67-.41-.21-1.1-1.52-.94-2.42-.76-.84.18-1.1.84-1.03,1.54.14,1.58,3.66.99,2.87,2.43-.55,1-1.76.14-2.85.11.27,1.23,2.16,1.18,3.15.59.61-.37.62-1.13.42-1.62-.45-1.11-3.2-.74-2.8-1.89ZM192.11,60.39c.81-1.62.05-3.05.43-4.48.5-.24,1.24.25,1.71-.47-.49-.34-3.86-.41-4,.02-.25.74,1.27.02,1.43.67.37,1.47-.44,2.9.43,4.27ZM195.96,58.09c.99-.28,1.61.26,2.32-.35-.76-.59-1.69-.17-2.4-.48-.27-.16-.25-1.12-.02-1.33.61-.34,1.72.02,2.42-.11.44-.28.37-.64-.16-.46-1.09-.09-2.04-.3-3.09-.1l.03,4.94,3.58-.06c-.3-1-1.54-.22-2.71-.6-.36-.12-.33-1.35.03-1.46ZM204.2,57.24c.59,1.25-.44,2.28.67,3.22.29-.47.6-6.78-.51-5.02l-1.96,3.08c-1.04-1.2-1.2-2.54-2.47-3.52-.62,1.74.04,10.79.66,1.89.61.94,1.01,1.89,1.81,2.88.85-.85.94-1.93,1.82-2.52ZM208.42,60.27c1.03-.05,1.57-.76,1.49-1.59-.17-1.73-3.67-1.01-2.9-2.38.61-1.08,1.74-.27,2.75-.35-.57-1.18-2.14-.96-3.05-.39-.48.3-.51.83-.47,1.23.17,1.52,3.01,1.01,2.97,2.16-.04,1.03-1.84.76-3.03.2.02,1.15,1.22,1.16,2.23,1.11ZM157.45,60.05c.1-.68-.57-.96-.66-1.43.49-.47.86-.96.88-1.55.01-.52-.12-1.27-.72-1.56-.97-.47-2.13-.39-3.18-.18l.03,4.84c.8.1.56-.55.65-1.14.08-.54.91-.39,1.35-.31.62.11,1.49,2.42,1.65,1.34ZM165.85,55.79c.92.04,1.37.09,1.68-.42-1.56-.25-3-.34-4.37.06.53.61,1.24.34,1.77.45.43,1.5-.25,2.93.42,4.52l.49-4.61ZM168.54,60.34c.51-1.86.46-3.47.03-5.26-.46,1.85-.42,3.48-.03,5.26Z"></path>
        <path class="cls-153" d="M83.49,42.45l3.01.05-.03,50.96-16.12.16-.32.36c.4-.36-3.95-.52-3.69-.52v-25.09s-29.27,0-29.27,0l-.03,25.09c-.8.38-1.34,1.17-1.8,1.91l-1.6-.02,1.26-1.59c-1.12-.94-2.12.88-2.62,1.6-.59.09-1.07.02-1.64-.01l1.36-1.65c-.29-.54-.82-.91-1.36-1.05l.02-7.29c.21.05.59-.04.76-.14.8-.46-.7-1.37.47-2.06.31-.18.65-1.04.34-1.24-.41-.26-1.01.1-1.17-.34-.32-.6-.64-1.62-1.48-1.53.23-.53.55-1.03.5-1.62.07-.23.86-.39.26-.52-.41-.48-.47-1.24-1.05-1.46-.53-.21-1.12-.07-1.41.26-.5.57-.75,1.32-.17,1.96-.13.39.04.56.2.6.12.03.03.46.05.51-1.77,1.11-1.56,1-2.01,3.69-.11.67.57,1.23,1.17,1.14l-.51,8.85c-.01.22.85.12.8.46-.47.58-.99.89-1.08,1.44l-1.81.13,1.21-1.66c-.43-1.18-2.28.97-2.36,1.52-.5.17-1.08.06-1.58.02.19-.61.71-.95,1.18-1.66-1.26-.75-2.09.92-2.75,1.67-.37.2-1.06-.07-1.41.02-.37-.11,1.16-1.39,1.02-1.58-.7-.97-2.32.98-2.6,1.56-.38-.14-1.12.28-1.59.14.59-.5.76-1.39,1.01-1.85.46-.82.29-2.41.3-3.43l.24-47.78h66.3ZM78.68,63.8v-14.65s-54.71,0-54.71,0l.02,14.65h54.69Z"></path>
        <path class="cls-54" d="M215.57,30.94c.42,1.81.44,3.9.2,5.77-.06.49-.25.86.04,1.3h-73.56s.11-7.09.11-7.09l73.22.02Z"></path>
        <path class="cls-173" d="M85.91,30.87l.59.07.02,6.68c.01.24.35.29.22.45l-1.86.06-67.86-.27.19-6.97,68.71-.03Z"></path>
        <path class="cls-154" d="M86.73,38.08h54.18s1.34-.07,1.34-.07h73.56c.68,0,1.31.04,2.16.12-.05.94.28,2.07-.19,2.78-.52.13-1.49.19-1.98.19l-129.05-.13c-.44.54-.24,1.09-.25,1.54l-3.01-.05c-.33-.61,2.44-.01,2.66-.4.11-.2,0-.77-.07-1-.02-.07-.87-.19-1.22-.5v-2.41s1.86-.06,1.86-.06Z"></path>
        <path class="cls-29" d="M215.8,41.1c.08.48.19,1.13-.23,1.42l-73.24-.05v51.02c-.35-.01-.94.05-1.35.07l.12-28.94-45.61-.02-.02-13.5h45.58s.04-8.61.04-8.61l-54.58.03c0-.45-.19-.99.25-1.54l129.05.13ZM99.86,63.4c.57,0,6.33.48,6.34-.26l.06-10.86c-.95-.41-1.72-.1-2.64-.11-2.27-.04-4.55-.09-7.07.02l-.04,11.28c1.22.07,2.33.23,3.36-.07ZM107.36,55.9c-.37,2.44-.14,5.03-.13,7.52,1.11.5,2.22-.18,3.12-.03,1.18.19,2.27.1,3.45,0,1.12-.1,2.36.38,3.65.08.19-1.38.13-2.96,0-4.31-.06-.09-.44.02-.41-.27.01-.09.43-.05.43-.15l.02-6.6-10.24.05c-.03,1.36-.07,2.56.11,3.71ZM119.19,58.89c-.03.36-.37.12-.47.24-.18.24-.24,3.46.01,4.27,1.88.33,3.75.18,5.66.13.31-.45.58-.69.87-.99.17,1.48,2.15,1.03,3.54.96l.05-4.34c-.11-.12-.57.03-.54-.28.05-.1.4-.04.5-.14l-.04-6.58h-10.13c.09.19-.46,8.44.56,6.73ZM130.15,58.84c-.54,1.46-.11,3.02-.16,4.75,2.67-.13,5.03.2,7.42-.19.55-.09,1.3.43,2.12.06v-11.28c-1.77.04-3.38-.3-4.86.21-.34-.12-.79-.24-1-.03-1.04-.38-2.49-.26-3.79-.16.16,2.32-.18,4.53.26,6.64Z"></path>
        <path class="cls-75" d="M215.82,28.48c.13.8.23,1.84-.24,2.46l-73.22-.02-.11,7.09-1.34.07c-.14-.17.19-.22.19-.45l-.03-6.71-54.57.03c0-.81-.11-1.65.12-2.68l129.2.21Z"></path>
        <path class="cls-85" d="M218.82,83.76l-.06,12.14c-.78.5-1.8.07-2.85.34.03,1.75-.2,3.44.11,5l-40.27.15-.44-7.16c.35-.03.36.42.6.7.2.23.59-.11.66-.3.11-.31.1-.76-.24-.92-.03-.2.08-.26.26-.26l39.2.16c.05-3.49.21-6.84.05-10.15.94,0,2.24-.31,2.96.31Z"></path>
        <path class="cls-129" d="M34.32,25.29h3.06s2.91.03,2.91.03c4.05.04,8.2.19,12.32-.06.11,0,.23-.05.34-.04,3.79.41,7.65.06,11.47.07l11.85.02,8.6.09v2.82s-67.87.14-67.87.14c-.57,0-1.15-.05-1.78-.14-.08-.96-.12-1.82.03-2.82l19.08-.11Z"></path>
        <path class="cls-101" d="M84.87,38.14v2.41c-.05.61-.52.44-1.16.44l-66.69.16c-.45,0-1.06-.35-1.79-.18-.14-1.03-.08-1.81-.03-2.84.61.1,1.32-.26,1.81-.26l67.86.27Z"></path>
        <path class="cls-94" d="M84.86,28.22c.25,0,.68.06,1.18.02.18.8.33,1.92-.13,2.63l-68.71.03c-.31-.82,0-1.71-.2-2.55l67.87-.14Z"></path>
        <path class="cls-191" d="M83.49,42.45H17.19c0-.41-.16-.89-.18-1.3l66.69-.16c.64,0,1.11.16,1.16-.44.35.32,1.2.43,1.22.5.07.24.18.81.07,1-.22.39-2.99-.21-2.66.4Z"></path>
        <path class="cls-155" d="M146.81,93.68c.05,2.25-.5,4.49-.26,6.73.03.31-.2.63-.21.94-4.57.07-9.16.2-13.69-.1.58-.44,1.01-1.16,1.06-1.89.43.08,1.3-.04,1.77-.23.64-.25.54-1.65-.14-1.75.15-.31-.19-.68-.07-.98.18-.45-.03-.88.04-1.32.07-.47-.18-1.07.19-1.43,1.82-.18,3.65-.04,5.48-.11.41-.02,1.01-.09,1.34-.07l4.49.19Z"></path>
        <path class="cls-55" d="M151.93,93.52c-.04.26.23.13.5.22v7.61c-.26-.14-.66.34-.85-.1-.16-.48-.8-.58-1.04-1.07.06-2.37-.19-4.73,0-7.03,0,.45.31.48.7.4.18-.04.44.16.67-.03Z"></path>
        <path class="cls-193" d="M204.2,57.24c-.87.6-.96,1.68-1.82,2.52-.8-.98-1.2-1.93-1.81-2.88-.62,8.9-1.28-.15-.66-1.89,1.27.98,1.44,2.33,2.47,3.52l1.96-3.08c1.12-1.76.81,4.56.51,5.02-1.11-.94-.08-1.97-.67-3.22Z"></path>
        <path class="cls-151" d="M151.71,59.28c-.56-.51-2.21-.48-2.76-.02-.4.33-.23,1.36-1.16.84l1.96-4.5c.96-2.2,2.71,3.96,3.16,4.5-.73.44-.72-.37-1.21-.82ZM151.26,58.28c-.17-.78-.34-1.4-.92-2.05-.54.74-.78,1.29-.93,2.01.56.19,1.05.18,1.85.04Z"></path>
        <path class="cls-159" d="M157.45,60.05c-.16,1.08-1.03-1.23-1.65-1.34-.44-.08-1.27-.22-1.35.31-.08.59.15,1.24-.65,1.14l-.03-4.84c1.04-.2,2.21-.29,3.18.18.59.29.73,1.05.72,1.56-.02.58-.39,1.08-.88,1.55.08.47.76.75.66,1.43ZM155.84,58.05c.99-.05,1.27-.87,1.07-1.51-.34-1.07-2.38-.77-2.44-.5-.03.14-.13,1.79.09,1.94.27.19.72.1,1.27.07Z"></path>
        <path class="cls-105" d="M186.81,56.42c-.4,1.15,2.35.78,2.8,1.89.2.49.19,1.25-.42,1.62-.99.59-2.88.64-3.15-.59,1.09.02,2.3.88,2.85-.11.8-1.44-2.72-.85-2.87-2.43-.06-.7.19-1.36,1.03-1.54.9-.19,2.22-.34,2.42.76-1-.11-2.3-.65-2.67.41Z"></path>
        <path class="cls-33" d="M208.42,60.27c-1.01.05-2.21.04-2.23-1.11,1.19.55,2.99.83,3.03-.2.04-1.15-2.8-.64-2.97-2.16-.04-.4,0-.93.47-1.23.91-.57,2.48-.79,3.05.39-1.01.08-2.14-.74-2.75.35-.77,1.37,2.73.65,2.9,2.38.08.83-.47,1.54-1.49,1.59Z"></path>
        <path class="cls-33" d="M177.93,56.43c-.38,1.19,2.38.71,2.89,2.03.24.62-.17,1.39-.79,1.62-1,.38-2.52.47-2.96-.77,1.01.01,2.3.91,2.97-.1.78-1.19-2.26-.99-2.74-2.02-.23-.5-.19-1.28.35-1.62.88-.56,2.53-.76,2.96.41-1.02-.03-2.3-.71-2.67.46Z"></path>
        <path class="cls-190" d="M195.96,58.09c-.37.11-.4,1.34-.03,1.46,1.17.38,2.41-.4,2.71.6l-3.58.06-.03-4.94c1.05-.19,2.01,0,3.09.1.52-.18.59.19.16.46-.7.13-1.81-.23-2.42.11-.23.21-.25,1.16.02,1.33.71.31,1.64-.11,2.4.48-.71.61-1.33.06-2.32.35Z"></path>
        <path class="cls-195" d="M174.33,55.74c.87,1.44-2.15-1.23-3.39,1-.38.68-.29,1.76.46,2.47.81.76,1.74.33,3.11-.11-.52,1.65-2.4,1.4-3.5.67s-1.32-2.35-.58-3.53c1.03-1.66,3.55-1.08,3.9-.5Z"></path>
        <path class="cls-139" d="M162.73,56.11c-.37.14-2.23-1.17-3.28.61-.42.71-.3,1.78.43,2.49.78.75,1.78.34,3.1-.09-.52,1.63-2.38,1.4-3.49.64-1.03-.71-1.34-2.32-.6-3.49,1.11-1.74,3.55-1.07,3.96-.54.12.15.01.33-.13.38Z"></path>
        <path class="cls-40" d="M192.11,60.39c-.87-1.38-.06-2.8-.43-4.27-.16-.65-1.68.07-1.43-.67.14-.43,3.51-.36,4-.02-.47.72-1.2.23-1.71.47-.38,1.43.38,2.86-.43,4.48Z"></path>
        <path class="cls-159" d="M183.87,58.39c-.3.79.24,1.6-.55,1.93-.49-.57-.12-1.21-.32-1.78-.44-1.26-1.57-2.09-1.65-3.49,1.21.53,1.23,1.85,2.07,2.67.8-.77.87-2.11,2.07-2.64-.11,1.27-1.13,2.03-1.62,3.3Z"></path>
        <path class="cls-15" d="M165.85,55.79l-.49,4.61c-.67-1.59,0-3.03-.42-4.52-.53-.11-1.24.16-1.77-.45,1.37-.39,2.81-.31,4.37-.06-.31.51-.76.46-1.68.42Z"></path>
        <path class="cls-168" d="M168.54,60.34c-.39-1.78-.44-3.41.03-5.26.43,1.79.48,3.4-.03,5.26Z"></path>
        <path class="cls-54" d="M140.98,93.55c-1.83.07-3.67-.07-5.48.11-1.1-.81-1.52-2.18-2.36-3.2-.02-.92-.87-1.52-1.06-2.37-.13-.55-.53-1.07-1.36-1.08l-3.15-.04c-.02-1.08.08-2.15-.12-3.44l-2.64-.34-.06-14.86-29.27.03-.04,24.96c0,.12-.56.07-.41.28l-8.5.07-.06-.23.03-50.96,54.58-.03-.04,8.61h-45.58s.02,13.51.02,13.51l45.61.02-.12,28.94Z"></path>
        <path class="cls-54" d="M140.91,38.08h-54.18c.14-.17-.2-.21-.22-.45l-.02-6.68,54.57-.03.03,6.71c0,.23-.32.29-.19.45Z"></path>
        <g>
          <path class="cls-115" d="M134.68,52.38c-.08.47.01.99.12,1.57l2.68.09-.06,9.34c-2.4.39-4.76.06-7.42.19.05-1.72-.39-3.29.16-4.75,1.15.86.37-4.19.73-4.86,1.03-.06,1.79.06,2.67-.1l.12-1.53c.21-.21.66-.09,1,.03ZM133.67,52.35l-.12,1.53c-.88.15-1.65.04-2.67.1-.36.67.42,5.72-.73,4.86-.45-2.12-.1-4.33-.26-6.64,1.3-.1,2.74-.22,3.79.16Z"></path>
          <path class="cls-206" d="M117.04,58.88c-.86.17-1.86-.17-2.81.14-.76.25-.24,1.56-.58,1.98-.91.36-2.17.11-3.19.12-.36-1.53.73-5.16-1.21-5.19l-1.89-.03c-.18-1.15-.14-2.35-.11-3.71l10.24-.05-.02,6.6c0,.1-.41.06-.43.15Z"></path>
          <path class="cls-47" d="M128.31,58.88h-9.12c-1.02,1.71-.47-6.54-.56-6.74h10.13s.04,6.6.04,6.6c-.1.1-.45.04-.5.14Z"></path>
          <path class="cls-200" d="M99.86,63.4l-.04-5.92c0-.97.68-1.62,1.65-1.58.7.03,1.37.08,2.09-.08.26-1.26-.01-2.46.05-3.65.92.02,1.69-.3,2.64.11l-.06,10.86c0,.74-5.76.27-6.34.26Z"></path>
          <path class="cls-83" d="M103.62,52.17c-.06,1.19.21,2.38-.05,3.65-.72.17-1.39.12-2.09.08-.97-.05-1.66.61-1.65,1.58l.04,5.92c-1.03.3-2.14.14-3.36.07l.04-11.28c2.52-.11,4.8-.06,7.07-.02Z"></path>
          <path class="cls-27" d="M128.31,58.88c-.03.31.43.16.54.28l-.05,4.34c-1.38.08-3.36.52-3.54-.96-.29.29-.56.53-.87.99-1.91.05-3.78.2-5.66-.13-.25-.81-.2-4.04-.01-4.27.09-.12.43.11.47-.24h9.12Z"></path>
          <path class="cls-127" d="M117.04,58.88c-.03.29.35.17.41.27.12,1.36.18,2.93,0,4.31-1.29.3-2.53-.18-3.65-.08l-.11-1.25c-1.12-.08-2.1-.09-3.21.02l-.13,1.24c-.9-.15-2.01.53-3.12.03,0-2.5-.24-5.08.13-7.52l1.89.03c1.93.03.85,3.66,1.21,5.19,1.01-.01,2.28.24,3.19-.12.34-.42-.18-1.73.58-1.98.96-.31,1.95.03,2.81-.14Z"></path>
          <path class="cls-53" d="M137.42,63.39l.06-9.34-2.68-.09c-.11-.58-.2-1.11-.12-1.57,1.47-.51,3.09-.17,4.86-.21v11.28c-.82.37-1.57-.15-2.12-.06Z"></path>
          <path class="cls-80" d="M113.8,63.39c-1.18.11-2.27.2-3.45,0l.13-1.24c1.11-.11,2.09-.1,3.21-.02l.11,1.25Z"></path>
        </g>
        <path class="cls-164" d="M56.15,89.41l.13,3.94c.18.32,1.11.33,1.45.26-.7.35-1.14,1.1-1.54,1.75-.5.11-1.13.11-1.65.02l1.18-1.82c-1.36-.16-2.07.92-2.58,1.78-.47.18-1.11.06-1.59.04.06-.81,1.45-1.18,1.5-1.93l.26-4.15c1.09-.15,2.04.2,2.83.1Z"></path>
        <g>
          <path class="cls-76" d="M67.4,101.3l-55.09.05-.16-1.51c.48-.39,1.12-.17,2-.09l.18-4.16c.41.17.92-.2,1.3-.09.47.14,1.22-.28,1.59-.14.46.17,1.09.16,1.57.03.35-.09,1.04.18,1.41-.02.46.49,1.06-.05,1.57,0s1.08.14,1.58-.02c.29.1.84.16,1.14.14l1.81-.13h1.36c.53,0,1.12-.05,1.61,0,.48.11.88-.04,1.35,0,.57.03,1.05.1,1.64.01.38-.06.89,0,1.37,0l1.6.02c.35,0,.86-.02,1.35-.02h1.62c.33.01.98-.03,1.33,0,.56.04,1.2-.04,1.81-.02l1.34.05c.41.01,1.14.23,1.62-.03.33.17.92.17,1.33-.04.45.45,1.18-.11,1.62.03.55.17.84.06,1.34,0,.4-.05,1.16.21,1.59,0,.36.37.89.03,1.36.05s1.12.13,1.59-.04c.33.59.99-.04,1.4.03.52.09,1.15.09,1.65-.02.33-.08.94.31,1.31.02,1.1.51,1.86-.35,2.95-1.41.12.43.07.91.16,1.46l2.18.18c.17.59.04,1.14.15,1.77l2.15.22c.07.72-.07,1.2.11,1.76l2.05.1c.19.69.11,1.28.14,1.84Z"></path>
          <path class="cls-198" d="M86.53,93.69l-.04,7.67-9.71-.12c.03-.41.21-1.13-.07-1.63-.51-.42-1.42,0-2.06-.28-.23-.54-.08-1.1-.19-1.72l-2.11-.17c-.21-.6-.04-1.17-.17-1.81-.69-.25-1.46.14-2.02-.22-.34-.21-.16-1.09-.12-1.42l.32-.36,16.12-.16.06.23Z"></path>
          <path class="cls-192" d="M62.56,93.54l1.82-.07c.68-.03,1.28,0,1.97,0-.27,0,4.08.16,3.69.52-.04.33-.21,1.2.12,1.42.57.36,1.33-.03,2.02.22.13.64-.04,1.21.17,1.81l2.11.17c.11.61-.04,1.18.19,1.72.63.29,1.54-.13,2.06.28.28.5.11,1.22.07,1.63l-9.38.06c-.03-.56.05-1.15-.14-1.84l-2.05-.1c-.18-.56-.04-1.03-.11-1.76l-2.15-.22c-.12-.63.02-1.18-.15-1.77l-2.18-.18c-.09-.56-.04-1.03-.16-1.46.47-.46,1.4-.4,2.11-.43Z"></path>
          <path class="cls-10" d="M95.03,93.62c.06.11.45.04.46.32l.06,7.44-9.05-.02.04-7.67,8.5-.07Z"></path>
          <path class="cls-196" d="M30.64,92.64c.54.13,1.07.51,1.36,1.05l-1.36,1.65c-.47-.03-.87.12-1.35,0,.2-.63.83-1,1.23-1.54-.36-.28-.69-.15-.97-.11-.29-.26-.19-.49-.23-.81.45.15.88-.35,1.31-.24Z"></path>
          <path class="cls-113" d="M21.79,95.36c-.51-.04-1.1.49-1.57,0,.66-.75,1.48-2.42,2.75-1.67-.47.71-.99,1.06-1.18,1.66Z"></path>
          <path class="cls-24" d="M24.51,95.48c-.31.02-.85-.04-1.14-.14.07-.55,1.93-2.7,2.36-1.52l-1.21,1.66Z"></path>
          <path class="cls-130" d="M33.64,95.35c-.48,0-.98-.05-1.37,0,.5-.72,1.5-2.54,2.62-1.6l-1.26,1.59Z"></path>
          <path class="cls-186" d="M18.81,95.39c-.48.13-1.12.14-1.57-.03.28-.57,1.89-2.53,2.6-1.56.14.19-1.39,1.47-1.02,1.58Z"></path>
          <path class="cls-70" d="M36.59,95.36c-.49,0-1,.02-1.35.02.46-.74,1-1.53,1.8-1.91.22.05.42.17.75.34l-1.2,1.55Z"></path>
          <path class="cls-176" d="M47.26,95.34c-.44-.14-1.16.42-1.62-.03.23-.64,1.01-.95,1.12-1.64.53-.03,1.18-.19,1.68.15-.42.61-1.05.91-1.18,1.52Z"></path>
          <path class="cls-118" d="M29.55,93.69c.28-.04.61-.16.97.11-.41.54-1.03.91-1.23,1.54-.48-.05-1.08,0-1.61,0,.2-.58.79-.91,1.1-1.45.26-.08.5-.17.77-.2Z"></path>
          <path class="cls-56" d="M44.31,95.35c-.48.26-1.21.05-1.62.03.09-.47,1.58-2.45,2.67-1.6-.27.63-.88.95-1.04,1.57Z"></path>
          <path class="cls-51" d="M50.19,95.35c-.43.2-1.19-.06-1.59,0,.57-.94,1.34-2.04,2.68-1.59l-1.09,1.6Z"></path>
          <path class="cls-177" d="M54.54,95.38c-.4-.07-1.07.56-1.4-.03.51-.86,1.22-1.94,2.58-1.78l-1.18,1.82Z"></path>
          <path class="cls-64" d="M57.73,93.61c.31-.06.73.12,1.04.06l-1.27,1.71c-.37.3-.98-.09-1.31-.02.4-.65.84-1.4,1.54-1.75Z"></path>
          <path class="cls-26" d="M39.54,95.35c-.34-.03-1,.02-1.33.02.37-.67.89-1.31,1.53-1.73.27-.21.68-.1,1.05.16l-1.26,1.55Z"></path>
        </g>
        <g>
          <path class="cls-82" d="M120.54,83.39c-.87-.1-1.81.11-2.69.11l-14.36-.06-.07,12.55c.56.15.95.18,1.32.18.32.87-.11,2.35.2,2.75.21.27.59.38.93.21.2-.1.23-.45.36-.88.3-1.03,1.46-1.92,2.49-1.27,1.32.83.99,2.74.54,3.82-.05.14.68.36.83.34.75-.08.55-1.28,1.02-1.63.63-.46,2.09-.4,2.74-.07.48.24.52,1.59,1.32,1.58l2.5-.05c1.25-.02,1.13-3.83.89-4.59-.51.06-.85.02-.77-.3-.04-.09,0-.18.08-.24.33.29.62.28,1.04.26,0-.58.08,5.57.81,2.87.31-1.13.54-2.21,1.76-2.73s1.94.25,2.72,1.02c.54.52,1.6-.11,2.15-.04,2.95.37,5.98.11,8.98.17.68.09.78,1.49.14,1.75-.47.18-1.33.31-1.77.23-.29-.05-5.45-.53-4.61.56-.32.11-.16-.23-.26-.64-1.17.17-2.36-.29-3.44.2-.49.22-.59,1.34-1.06,1.68-.65.35-1.37.25-2.23.25l-24.44-.02-.11-23.43,21.25-.3c.33.5,1.01.08,1.62.33l.1,5.39ZM108.02,100.22c.77-.09.81-1.08.77-1.49-.04-.34-.28-.89-.87-.88-.66.01-.88.74-.9,1.12-.02.49.22,1.34,1,1.25ZM122.19,100.28c.78-.1.85-.9.84-1.34s-.21-1.16-.9-1.15-.89.91-.86,1.4c.02.36.23,1.18.91,1.09Z"></path>
          <path class="cls-98" d="M124.82,83.2c-.58-.02-1.37.33-2.08.19l.05-12.65c-.77-.41-1.58-.15-2.32-.15l-22.75-.06c-.26.67-.22,1.24,0,1.72-.32.2-.03.57-.04.82,0,.44-.28.86-.02,1.51l21,.06c.1.21.08.58.02.79l-20.9.05c-.35,0-.33,1.49.02,1.5l20.85.15c.06.18.14.35.17.54l-21.25.3.11,23.43c-.68,0-1.47-.02-2.13-.02l-.06-7.44c0-.28-.4-.2-.46-.32-.16-.21.4-.16.41-.28l.04-24.96,29.27-.03.06,14.86Z"></path>
          <path class="cls-131" d="M122.74,83.39c-.68-.13-1.48.08-2.2,0l-.1-5.39c-.61-.25-1.29.17-1.62-.33-.03-.19-.11-.36-.17-.54.37-.45.23-1.22.03-1.69.06-.21.08-.59-.02-.79.33-.35.17-.9.09-1.55l-21.07-.02c0-.25-.28-.62.04-.82h22.65c.28-.62.01-1.14.11-1.65.74,0,1.56-.26,2.32.15l-.05,12.65Z"></path>
          <path class="cls-60" d="M120.46,70.59c-.09.51.17,1.03-.11,1.66h-22.65c-.21-.48-.26-1.05,0-1.72l22.75.06Z"></path>
          <path class="cls-100" d="M118.67,75.44c.21.47.35,1.24-.03,1.69l-20.85-.15c-.35,0-.37-1.49-.02-1.5l20.9-.05Z"></path>
          <path class="cls-150" d="M118.65,74.65l-21-.06c-.26-.65.01-1.07.02-1.51l21.07.02c.08.65.24,1.2-.09,1.55Z"></path>
        </g>
        <g>
          <path class="cls-47" d="M168.28,88.78c-.11-.04-.3-.13-.4-.09-.23.09-.25.33-.24.47.02.28.32.36.41.49.1.16.29.39.32.61l-.1,10.98c-2.23.16-4.72.33-6.92,0l-.03-19.9c0-.09.03-.17.08-.23,1.41.09,2.96.27,4.52-.02.91-.28,1.35-1.48,2.12-1.83.5,3.12,0,6.35.24,9.53Z"></path>
          <path class="cls-50" d="M160.25,81.14l.02,20.09c-2.15.31-4.55.23-6.72.03v-20.13c2.23,0,4.47.1,6.7,0Z"></path>
          <path class="cls-31" d="M169.37,91.05c-.03.79-.2,1.65.14,2.47.76.14,1.41-.02,2.01.18l.08,6.52c-.17.57-1.07.46-.89,1.02-.74.52-1.72-.04-2.46.02l.1-10.98c.51-.03.67.64,1,.79Z"></path>
          <path class="cls-68" d="M153.54,81.13v20.13c-.31-.03-.72.31-1.1.1v-7.61c-.28-.09-.56.04-.52-.22.27-.06.51-.19.51-.63v-11.76h1.1Z"></path>
          <path class="cls-18" d="M161.31,81.34l.03,19.9c-.27.2-.81.23-1.07-.01l-.02-20.09c.35-.01.73.09,1.06.2Z"></path>
          <path class="cls-182" d="M169.07,78.12l-11.03-.23.08-2.46,15.94-.17c.14,1.04.17,1.74-.05,2.8-1.78-.34-3.42.09-4.95.06Z"></path>
          <path class="cls-21" d="M158.04,77.89l11.03.23c-.19.3-.7.8-1.07.91h-6.55c-.21.81-.03,1.44-.06,2.08-.06.07-.08.15-.08.23-.33-.11-.71-.21-1.06-.2,0-.65.14-1.3-.11-2.1l-6.49-.02c-.25.76-.1,1.44-.1,2.11h-1.09c0-1.08-.19-2.22.22-3.24,1.78.25,3.59-.05,5.36,0Z"></path>
          <path class="cls-162" d="M158.12,75.43l-.08,2.46c-1.77-.04-3.59.26-5.36,0-.59-.58.04-1.5-.45-2.14,1.36-1.01,4.69-.31,5.89-.32Z"></path>
          <path class="cls-97" d="M152.67,77.89c-.41,1.02-.22,2.16-.22,3.24-1.3,0-2.56.17-3.96-.05.04-.57-.3-1.49.13-1.93,1.21-1.25,2.32-2.45,3.61-3.4.48.65-.14,1.56.45,2.14Z"></path>
          <path class="cls-187" d="M168,79.03c0,.08.02.15.03.23-.77.36-1.21,1.56-2.12,1.83-1.57.29-3.12.11-4.52.02.02-.63-.16-1.27.06-2.09h6.55Z"></path>
          <path class="cls-138" d="M160.25,81.14c-2.23.09-4.47,0-6.7,0,0-.67-.15-1.36.1-2.11l6.49.02c.25.8.11,1.45.11,2.1Z"></path>
        </g>
        <g>
          <path class="cls-166" d="M12.14,88.84c.1,1.73.09,3.47,0,5.2-.2.34-.62.1-1.22.23l-.05,5.36c.58.05.99-.14,1.29.21l.16,1.51c-.5,0-1.1.3-1.63-.06-.21-.14-.08-.55-.27-.86-.7.07-1.55-.23-2.25.12-.27.16-.15,1.01-.73.9-.25-.05-.65-.1-.94-.2.09-.48-.54-.66-.87-.85.26-.43-.63-1.05.02-1.31.07.14,0,.47.14.52.25.08.5-.08.53-.26.02-.14-.01-.34,0-.55l.1-4.32c0-.39.89-.15.99-.36.39-.82.11-1.73.17-2.49.35-.03.74-.17,1.09-.14s1.14.22,1.11-.4c-.03-.54-.8-.54-1.13-.29-.2.15-.51-.16-.66-.25s-.32-.43-.36-.59c-.07-.3-.06-1.14.24-1.2,1.51-.33,2.95.04,4.3.09Z"></path>
          <path class="cls-185" d="M16.03,90.02l-.14,3.55c-.78.2-.89,1.17-1.58,1.49-.15-.22,0-.49-.1-.66-.33-.62-1.47.24-2.08-.37.09-1.73.1-3.47,0-5.2,1.14.04,2.41-.52,3.68-.08.16.33.23.88.21,1.27Z"></path>
          <path class="cls-117" d="M16.95,90.22c0,1.02.17,2.61-.3,3.43-.21-.19-.52-.14-.76-.07l.14-3.55c.25.22.6.19.92.19Z"></path>
          <path class="cls-169" d="M15.89,93.57c.25-.06.55-.12.76.07-.25.45-.43,1.35-1.01,1.85-.38-.11-.89.26-1.3.09,0-.14.14-.28-.03-.52.69-.32.8-1.29,1.58-1.49Z"></path>
          <path class="cls-39" d="M14.31,95.07c.17.24.03.38.03.52l-.18,4.16c-.88-.08-1.52-.3-2,.09-.3-.35-.71-.17-1.29-.21l.05-5.36c.6-.13,1.02.11,1.22-.23.61.61,1.75-.25,2.08.37.09.17-.05.44.1.66Z"></path>
          <path class="cls-147" d="M8.65,91.49c.04-.23.01-.46-.02-.69.33-.25,1.1-.25,1.13.29.03.62-.74.44-1.11.4Z"></path>
        </g>
        <g>
          <path class="cls-122" d="M176.6,93.45c-.18,0-.29.06-.26.26-.21-.12-.33.06-.83-.02.19-.78-.04-1.36-.26-2.2-.07-.26-.49-.25-.73-.23l-.19-1.73c-.06-.59.22-1.14.13-1.67.59.15.89.78,1.55,1.29l.11-11.17,33.36.02v13.49s-32.83.04-32.83.04l-.05,1.95ZM181.47,90.37c3.17,0,2.16-.32,5.12-.18l.16-5.08c.02-.79.06-1.42-.43-2.02-.42-.52-.84-.85-1.62-.6l-.17-3.47-7.32.02v11.33s4.27,0,4.27,0ZM187.88,83.21c-.43,1.32-.11,2.82-.12,4.25v2.86c1.08.24,2.07-.03,3.01.04,1.1.09,2.12.03,3.27-.19,1.07-.21,2.23.7,3.67.23.25-1.7.24-3.6.11-5.53-.08-1.14.64-2.64-.21-3.75.57-.45.3-1.37.18-2.08l-9.96-.02c-.08,1.43-.18,2.84.05,4.19ZM198.96,83.75l.02,6.11c0,.49.8.11.99.31.57.58,1.98.25,2.7-.22-.87.76,5.19.37,5.74.38v-11.28s-9.42-.02-9.42-.02c-.16,1.7-.04,3.2-.03,4.72Z"></path>
          <path class="cls-16" d="M197.61,81.12c.86,1.11.14,2.6.21,3.75.13,1.93.14,3.83-.11,5.53-1.44.47-2.6-.44-3.67-.23-.73-.82-1.43-1.57-1.86-2.67-.15-.4-1.39-.33-1.43.06-.1,1-.14,1.92.02,2.8-.94-.08-1.93.19-3.02-.04v-2.86c0-1.43-.31-2.94.12-4.25.7.05,1.58-.21,2.31.12,1.08.47-.32,3.79,1.59,2.8.26-.13.26-.68.22-.94-.16-1.11.51-1.35,1.07-1.84.05-.04,2.03-2.51,2.52-2.56.8-.09,1.4.05,2.02.35Z"></path>
          <path class="cls-211" d="M202.67,89.95c.83-.54,1.01-1.5,1.7-2.37s.71-2.48.02-3.57c-.31-.49-.87-.73-1.04-1.58-.18-.9-1.38-.88-2.14-.82-1.82.13-1.65,2.43-2.25,2.15,0-1.51-.13-3.02.03-4.72l9.43.02v11.28c-.56,0-6.63.38-5.75-.38Z"></path>
          <path class="cls-188" d="M184.69,82.49c.28,1.4-3.13,0-3.14,1.27l-.08,6.61h-4.28s0-11.33,0-11.33l7.32-.02.17,3.47Z"></path>
          <path class="cls-44" d="M202.67,89.95c-.72.47-2.13.79-2.7.22-.19-.19-.99.18-.99-.31l-.02-6.11c.6.28.43-2.01,2.25-2.15.76-.06,1.96-.08,2.14.82.17.85.73,1.09,1.04,1.58.69,1.09.66,2.72-.02,3.57s-.87,1.83-1.7,2.37Z"></path>
          <path class="cls-32" d="M197.61,81.12c-.62-.3-1.22-.43-2.02-.35-.49.05-2.47,2.52-2.52,2.56-.56.49-1.23.72-1.07,1.84.04.26.03.81-.22.94-1.91.99-.51-2.33-1.59-2.8-.73-.32-1.62-.06-2.31-.12-.23-1.35-.14-2.75-.05-4.19l9.96.02c.12.72.4,1.64-.18,2.08Z"></path>
          <path class="cls-37" d="M181.47,90.37l.08-6.61c.02-1.27,3.42.14,3.14-1.27.78-.24,1.2.09,1.62.6.49.6.45,1.23.43,2.02l-.16,5.08c-2.96-.14-1.94.18-5.12.18Z"></path>
          <path class="cls-38" d="M194.05,90.17c-1.15.23-2.17.28-3.27.19-.16-.88-.12-1.8-.02-2.8.04-.39,1.28-.46,1.43-.06.42,1.1,1.13,1.85,1.86,2.67Z"></path>
        </g>
        <path class="cls-163" d="M151.26,58.28c-.79.15-1.29.15-1.85-.04.14-.73.39-1.28.93-2.01.58.65.75,1.27.92,2.05Z"></path>
        <path class="cls-77" d="M155.84,58.05c-.55.03-1,.12-1.27-.07-.22-.15-.12-1.8-.09-1.94.06-.27,2.1-.57,2.44.5.2.64-.08,1.46-1.07,1.51Z"></path>
        <g>
          <path class="cls-74" d="M66.34,93.47c-.69,0-1.29-.03-1.97,0l-.22-8.66c-.04-1.55.44-3.32-.2-4.76.31-1.06.54-2.62.17-4.09l-22.74.02c-.89-1.43-1-3.19-2.3-4.74l-.03,22.05c0,.5.73-.16.68.34-.64.41-1.16,1.06-1.53,1.73h-1.62s1.2-1.56,1.2-1.56c-.33-.17-.53-.29-.75-.34l.03-25.09h29.26s0,25.1,0,25.1ZM64.13,72.71c.17-.49.24-1.62-.17-1.62l-22.3-.03c-.34.58-.42,1.22-.02,1.64h22.49ZM41.73,75.18h22.38c.19-.68.26-1.33-.05-1.74l-22.45.04c-.31.5-.39,1.27.13,1.7Z"></path>
          <path class="cls-209" d="M63.96,80.06l-2.64.12-.11,4.52-3.35.23-.11,4.28-1.6.21c-.79.1-1.74-.25-2.83-.1l-.26,4.15c-.05.75-1.45,1.12-1.5,1.93-.47-.02-1,.32-1.36-.05l1.09-1.6c-1.34-.45-2.11.65-2.68,1.59-.51.06-.8.17-1.34,0,.13-.6.76-.91,1.18-1.52-.5-.34-1.15-.19-1.68-.15l-.26-.48c.52.04,1.29-.6,1.3-1.11.1.19.04.46.2.51.23.06.92.13,1.03-.09.37-1.27-.09-2.59.46-3.88.8.98.41,3.6,1.17,3.97.25.12,1.08.28,1.06-.17l-.45-8.12c.49-.29,1.13-4.34-.55-3.96-.28.06-.24-.43-.55-.32l.04-1.3c.01-.33.21-.28.58-.35.39-.55-.08-1.28-.43-1.58-.59-.51-1.26-.45-1.73.11-.44.52-.69.99-.28,1.54.26.36-.15,1.36.51,1.61-2.5,1.47-.9,1.79-2.11,2.11-1.93-.94-3.79-3.06-5.33-4.27,0-.63-.14-1.27-.03-1.9l22.74-.02c.38,1.46.14,3.03-.17,4.09Z"></path>
          <path class="cls-174" d="M46.75,82.16c-.39.1-1.08.01-1.69.08-.1,1.03-.16,2.05-.04,3.18,1.06.18,1.96.11,2.82,0-.03.08.05.17.04.25-.24,2.12-.04,4.27-.09,6.4-.01.51-.78,1.15-1.3,1.11l.26.48c-.11.7-.88,1-1.12,1.64-.41.21-1,.2-1.33.04.16-.61.77-.94,1.04-1.57-1.08-.85-2.57,1.13-2.67,1.6l-1.34-.05c.11-.65.78-.92,1.06-1.55l-1.05-.34.05-15.55c1.54,1.2,3.4,3.32,5.33,4.27Z"></path>
          <path class="cls-92" d="M41.39,75.99c-.11.63.03,1.27.03,1.9l-.05,15.55,1.05.34c-.27.63-.95.91-1.06,1.55-.62-.02-1.25.06-1.81.02l1.26-1.55c-.37-.26-.78-.37-1.05-.16.05-.51-.68.16-.68-.34l.03-22.05c1.3,1.55,1.4,3.31,2.3,4.74Z"></path>
          <path class="cls-79" d="M63.96,80.06c.65,1.44.16,3.21.2,4.76-.23,0-1.37-.16-1.38.24l-.22,8.49c-.71.03-1.64-.03-2.11.43-1.09,1.05-1.85,1.92-2.95,1.41l1.27-1.71,1.12-.24c.1-1.37.06-2.63-.01-4.03l-2.13-.2.11-4.28,3.35-.23.11-4.52,2.64-.12Z"></path>
          <path class="cls-172" d="M64.16,84.81l.22,8.66-1.82.07.22-8.49c0-.39,1.15-.23,1.38-.24Z"></path>
          <path class="cls-4" d="M41.73,75.18c-.52-.42-.44-1.19-.13-1.7l22.45-.04c.31.4.24,1.05.05,1.73h-22.38Z"></path>
          <path class="cls-58" d="M64.13,72.71h-22.49c-.4-.43-.32-1.07.02-1.65l22.3.03c.42,0,.34,1.13.17,1.62Z"></path>
        </g>
        <g>
          <path class="cls-17" d="M78.68,63.8H23.98s-.02-14.64-.02-14.64h54.7s0,14.64,0,14.64ZM25.18,51.99c-.49.32-.17.97-.17,1.44v9.27c1.31.13,2.35,0,3.41,0l6.17.02c-.14-2.86.38-5.68-.15-8.44.28,0,.22-.26.2-.45-.02-.2-.1-.36-.29-.44.42-.46.34-.9.02-1.36-.02-.37.7-1.29.09-1.74h-9.26c-.41.23-.33,1.41-.03,1.68ZM35.78,52.65l-.13,10.05,9.7.06c-.08-2.46.31-4.84-.16-7.19.36-1.66.13-3.37.14-5.3h-9.42c-.52.54-.19,1.6-.12,2.38ZM46.46,56.65c.01,1.93-.17,3.88-.01,5.97,1.07.3,2.2.09,3.23.09h1.86c1.5,0,2.92.09,4.64.03-.08-.99.33-2.18-.03-3.11l.05-9.31h-9.78s.04,6.34.04,6.34ZM57.37,59.62c-.39.92-.1,1.96-.06,3.09h9.63c-.03-2.63.16-4.95-.07-7.4-.03-.31.11-.92,0-1.34-.05-.23-.02-.69,0-1.08.02-.83.22-1.66-.01-2.66l-9.63.05.15,9.34ZM67.98,52.88c-.13.37.02.8.17,1.09-.55.26.02.87.06,1.31-.6,2.34-.14,4.85-.27,7.45l7.23-.03h1.06c.2,0,.43-.04.76.07.14.05.3.12.46.07.26-.08.26-11.19.18-12.58h-9.6c-.17.95-.09,1.72-.05,2.62Z"></path>
          <path class="cls-120" d="M56.15,59.62c-.6-1.55-.12-3.25-.42-5.03-.41-.13-.94-.13-1.39,0l-.11,5-2.67.09c-.12,1.09-.05,2.07-.02,3.03h-1.86c-.1-1.3.13-2.73-.08-4.14-.24-1.62-1.82-1.99-3.14-1.92l-.04-6.33h9.78s-.05,9.31-.05,9.31Z"></path>
          <path class="cls-84" d="M45.18,55.57c.47,2.34.08,4.73.16,7.19l-9.7-.06.13-10.05c.66-.01.41.84.72,1.3l.79,1.16c6.59,1-.3-1.4,6.7-.85-.05.96.59,1.13,1.19,1.32Z"></path>
          <path class="cls-180" d="M76.99,62.77c-.33-.11-.56-.06-.76-.06-.35-1.16.51-3.87-.49-4.26-1.07-.42-.37,3.4-.57,4.26l-7.23.03c.13-2.61-.33-5.11.27-7.45.42-.13,1.18.3,1.41-.27.14-.35-.05-.89-.3-.98-.32-.12-.91-.19-1.17-.06-.16-.29-.3-.72-.17-1.09.63-.08,1.37-.14,1.96.28.55.39.81,1.16.84,2l4.24.08c.31.72.04,1.43.19,2.18.56,0,1.05.02,1.42.31.82.65.85,3.99.36,5.03Z"></path>
          <path class="cls-170" d="M66.87,52.89c-.01.39-.05.85,0,1.08l-5.94-.06c-1.52-.01-.68,4.24-.8,5.71,1.12.08,2.15.02,3.22-.04l.19-4.3,3.32.03c.23,2.46.05,4.77.07,7.39h-9.63c-.04-1.12-.33-2.17.06-3.08.51.03,1.04.17,1.64-.03l.02-5.07c0-.8.6-1.56,1.41-1.6,2.21-.12,4.33-.09,6.43-.02ZM66.87,52.89c-2.1-.07-4.22-.1-6.43.02-.81.04-1.41.8-1.41,1.6l-.02,5.07c-.6.2-1.12.06-1.64.03l-.15-9.34,9.63-.05c.24,1,.04,1.83.01,2.66Z"></path>
          <path class="cls-1" d="M28.42,62.71l.04-5.24c.02-2.99,3.61-1.89,5.29-2.24.19-.04.09-.6.2-.71s.34-.15.5-.22c.53,2.76,0,5.58.15,8.44l-6.17-.02Z"></path>
          <path class="cls-183" d="M45.18,55.57c-.59-.19-1.23-.36-1.19-1.32-7-.54-.12,1.85-6.7.85l-.79-1.16c-.31-.46-.06-1.31-.72-1.3-.08-.77-.4-1.83.12-2.37h9.42c0,1.92.23,3.63-.14,5.29Z"></path>
          <path class="cls-175" d="M56.15,59.62c.36.93-.05,2.12.03,3.11-1.72.06-3.14-.04-4.64-.03-.04-.96-.11-1.93.02-3.03l2.67-.09.11-5c.45-.13.98-.13,1.39,0,.3,1.78-.18,3.48.42,5.03Z"></path>
          <path class="cls-170" d="M49.68,62.71c-1.04,0-2.17.21-3.23-.09-.16-2.09.03-4.04.01-5.97,1.32-.07,2.91.29,3.14,1.92.21,1.41-.03,2.84.08,4.15Z"></path>
          <path class="cls-217" d="M34.38,52.05l-9.2-.06c-.3-.27-.39-1.45.03-1.68h9.26c.62.46-.11,1.37-.09,1.74Z"></path>
          <path class="cls-91" d="M34.38,52.05c.31.46.4.9-.02,1.36-3.11-.08-6.24-.18-9.34.02,0-.47-.32-1.13.17-1.44l9.2.06Z"></path>
          <path class="cls-158" d="M76.23,62.71h-1.06c.2-.86-.5-4.68.57-4.26,1,.39.15,3.1.49,4.26Z"></path>
          <path class="cls-5" d="M68.22,55.28c-.04-.45-.61-1.05-.06-1.31.26-.13.85-.06,1.17.06.25.09.44.63.3.98-.22.57-.98.15-1.41.27Z"></path>
        </g>
        <g>
          <path class="cls-73" d="M28.98,84.34c.09-.02.21.05.31.04.04.16-.15.5-.05.78.44.31.98.09,1.42.19l-.02,7.29c-.43-.11-.86.4-1.31.24-.19-1.73-.13-3.47-.45-5.38-.25,1.77-.43,3.51-1.03,5.38.29.55.9.58.93,1.02-.31.54-.9.87-1.1,1.45h-1.36c.09-.55.61-.86,1.08-1.45.05-.34-.81-.24-.8-.46l.51-8.85c.62-.09,1.25-.1,1.87-.25Z"></path>
          <path class="cls-36" d="M29.59,80.04c.84-.09,1.15.93,1.48,1.53l-1.25.58c-.34.04-1.07-.15-1.42-.03-.48.16-.34,1.56.39,1.48-.04.28.15.48.19.74-.61.16-1.24.16-1.87.25s-1.28-.47-1.17-1.14c.45-2.69.24-2.58,2.01-3.69.54.47,1.04.34,1.63.27Z"></path>
          <path class="cls-156" d="M30.66,85.35c-.44-.1-.98.12-1.42-.19-.1-.28.08-.62.05-.78.28.07.59-.15.78-.45.22-.36-.46-.37-.48-.66-.03-.37.38-.73.24-1.11l1.25-.58c.16.44.76.08,1.17.34.31.2-.03,1.06-.34,1.24-1.17.68.33,1.6-.47,2.06-.17.1-.55.2-.76.14Z"></path>
          <path class="cls-34" d="M30.09,78.42c-.62-.02-1.42-.21-1.81.1-.22.18-.39.39-.37.73-.16-.03-.33-.21-.2-.6-.58-.65-.32-1.4.17-1.96.29-.33.88-.47,1.41-.26.57.22.63.98,1.05,1.46.6.13-.19.29-.26.52Z"></path>
          <path class="cls-208" d="M30.09,78.42c.05.59-.27,1.09-.5,1.62-.59.06-1.09.2-1.63-.27-.02-.05.07-.49-.05-.51-.02-.34.14-.55.37-.73.39-.31,1.19-.12,1.81-.1Z"></path>
          <path class="cls-19" d="M29.32,92.88c.04.32-.06.55.23.81-.27.04-.51.12-.77.2-.04-.44-.65-.47-.93-1.02.6-1.86.78-3.6,1.03-5.38.32,1.91.26,3.64.45,5.38Z"></path>
          <path class="cls-126" d="M29.29,84.38c-.1,0-.21-.06-.31-.04-.04-.26-.24-.46-.19-.74l.79-.34c.02.29.71.31.48.66-.19.3-.5.52-.78.45Z"></path>
          <path class="cls-7" d="M29.82,82.15c.15.38-.27.74-.24,1.11l-.79.34c-.72.08-.87-1.33-.39-1.48.35-.11,1.08.07,1.42.03Z"></path>
        </g>
        <path class="cls-106" d="M58.77,93.67c-.31.07-.74-.12-1.04-.06-.34.07-1.27.05-1.45-.26l-.13-3.94,1.6-.21,2.13.2c.07,1.4.11,2.66.01,4.03l-1.12.24Z"></path>
        <g>
          <path class="cls-146" d="M47.79,92.08c.05-2.14-.15-4.28.09-6.4.63-.11,1.44.06,2-.32.48-.32.87-.77,1.38-1.06l.45,8.12c.03.45-.8.3-1.06.17-.76-.37-.38-2.99-1.17-3.97-.55,1.28-.09,2.6-.46,3.88-.11.22-.8.15-1.03.09-.16-.04-.1-.32-.2-.51Z"></path>
          <path class="cls-124" d="M50.15,80.26c-.11.45-.07,1.27-.51,1.4s-1.32.48-1.35-.2c-.02-.35.37-.43.3-.52-.15-.19-.32-.16-.42-.11.09-.05-.52,1.18-.27,1.31.15.08.4-.07.43.29.1,1.06-.07,2.02-.49,3-.86.1-1.76.18-2.82,0-.12-1.13-.06-2.15.04-3.18.61-.07,1.3.02,1.69-.08,1.2-.32-.39-.64,2.11-2.11.42.13.86.18,1.29.21Z"></path>
          <path class="cls-46" d="M51.26,84.3c-.51.29-.9.74-1.38,1.06-.26-.37-.85-.11-1-.77.52-.47.87-.84,1.25-1.1.2.47.4.19.42-.23-.11-1.07-.19-2.03.15-2.91,1.68-.38,1.04,3.66.55,3.96Z"></path>
          <path class="cls-194" d="M50.21,78.72c-.5-.51-1.21-.23-1.86-.29-.41-.55-.15-1.02.28-1.54.47-.56,1.14-.61,1.73-.11.35.3.82,1.03.43,1.58-.37.08-.57.03-.58.35Z"></path>
          <path class="cls-78" d="M50.21,78.72l-.04,1.3c0,.07,0,.17-.02.24-.43-.03-.88-.08-1.29-.21-.66-.26-.25-1.26-.51-1.61.66.06,1.36-.23,1.86.29Z"></path>
          <path class="cls-69" d="M50.71,80.34c-.35.88-.26,1.84-.15,2.91-.03.42-.22.7-.42.23-.17-.33.04-.71-.1-1.15-.62-.23-1.19-.09-1.7.1-.03-.37-.28-.22-.43-.29-.24-.12.37-1.36.27-1.31.1-.05.26-.08.42.11.07.09-.32.17-.3.52.03.68.89.33,1.35.2s.39-.95.51-1.4c.02-.07.02-.17.02-.24.31-.11.27.38.55.32Z"></path>
          <path class="cls-149" d="M50.13,83.49c-.39.26-.74.63-1.25,1.1.16.66.75.4,1,.77-.56.38-1.37.21-2,.32,0-.07-.07-.16-.04-.25.42-.97.59-1.93.49-3,.52-.19,1.08-.33,1.7-.1.14.44-.07.83.1,1.15Z"></path>
        </g>
        <g>
          <path class="cls-116" d="M117.85,83.5l.02,12.34c-.07.06-.11.15-.08.24l-13.06.09c-.37,0-.75-.02-1.32-.18l.07-12.55,14.36.06Z"></path>
          <path class="cls-215" d="M117.79,96.08c-.09.32.25.36.77.3.24.76.36,4.56-.89,4.59l-2.5.05c-.79.02-.84-1.34-1.32-1.58-.65-.33-2.11-.39-2.74.07-.47.34-.27,1.55-1.02,1.63-.15.02-.88-.2-.83-.34.45-1.08.78-2.99-.54-3.82-1.03-.65-2.19.24-2.49,1.27-.13.43-.16.78-.36.88-.34.17-.73.05-.93-.21-.31-.4.12-1.88-.2-2.75l13.06-.09Z"></path>
          <path class="cls-202" d="M127.57,86.99l-4.62.08-2.96.03c-.53,0-.96.42-.96.97l-.1,8.03c-.42.02-.71.03-1.04-.26l-.02-12.34c.88,0,1.81-.21,2.69-.11.72.09,1.51-.13,2.2,0s1.5-.21,2.08-.19l2.64.34c.2,1.3.1,2.37.12,3.44Z"></path>
          <path class="cls-142" d="M108.02,100.22c-.78.09-1.02-.76-1-1.25.02-.38.24-1.1.9-1.12.59-.01.83.54.87.88.05.41,0,1.39-.77,1.49Z"></path>
          <g>
            <path class="cls-13" d="M129.1,99.92c.09.59.53,1.12,1.08,1.35-1.7.04-3.48.3-5.31.07-.23-.03-.31-.3-.54-.18.48-.34.57-1.46,1.06-1.68,1.08-.49,2.27-.04,3.44-.2.1.42-.05.75.26.64Z"></path>
            <path class="cls-213" d="M133.71,99.36c-.05.73-.48,1.45-1.06,1.89-.7-.05-1.75,0-2.47.02-.55-.23-1-.76-1.08-1.35-.84-1.08,4.31-.61,4.61-.56Z"></path>
            <path class="cls-214" d="M122.94,87.07c-.06.16.09.21.35.19.86,1.38,3.23,6.58,3.16,7.77-.03.46-.22.93-.06,1.41.09.27-.29.56-.03.79-.55-.07-1.61.56-2.15.04-.79-.76-1.52-1.52-2.72-1.02s-1.45,1.59-1.76,2.73c-.74,2.69-.81-3.46-.81-2.87l.1-8.03c0-.55.43-.96.96-.97l2.96-.03ZM122.79,88.22c-.67-.53-1.95-.08-2.7-.14-.11,1.45-.15,2.74.01,4.18.73.19,3.96.26,4.29-.19s-1.08-3.44-1.61-3.86ZM121.15,93.38c-.21-.31-.66-.28-.87-.11-.82.66.24.36.86.44.11.01.28-.12,0-.33Z"></path>
            <path class="cls-148" d="M127.57,86.99l3.15.04c.83,0,1.23.53,1.36,1.08-1.64-.35-5.43-.26-7.57-.06.41,1.54,1.09,2.82,1.89,4.19l7.26-.02c-.09-.8-.51-1.17-.52-1.74.84,1.02,1.25,2.39,2.36,3.2-.37.36-.11.96-.19,1.43-.42.13-.98-.22-1.45.15-.19.15-.24.81-.02.98.46.34,1.03.09,1.43.19-.12.3.22.67.07.98-3-.06-6.03.2-8.98-.17-.26-.23.12-.52.03-.79.48.04,1.05.11,1.64-.05.48-.14.49-1.2.02-1.24l-1.6-.11c.07-1.19-2.31-6.39-3.16-7.77-.26.02-.42-.03-.35-.19l4.62-.08ZM132.93,96.69c.2-.38.4-1.58,0-1.64-1.3-.2-2.61-.3-3.79.06-.4.13-.19,1.19-.02,1.56,1.32.15,2.45.1,3.81.02Z"></path>
            <path class="cls-65" d="M122.19,100.28c-.69.09-.89-.73-.91-1.09-.03-.48.15-1.38.86-1.4s.9.7.9,1.15-.06,1.24-.84,1.34Z"></path>
            <path class="cls-123" d="M135.31,95.09c-.07.44.14.87-.04,1.32-.41-.1-.97.15-1.43-.19-.23-.17-.18-.82.02-.98.47-.37,1.03-.02,1.45-.15Z"></path>
            <path class="cls-9" d="M132.07,88.1c.19.84,1.04,1.45,1.06,2.37.01.57.43.94.52,1.74l-7.26.02c-.8-1.37-1.48-2.66-1.89-4.19,2.14-.2,5.93-.29,7.57.06Z"></path>
            <path class="cls-137" d="M122.79,88.22c.53.42,1.96,3.39,1.61,3.86s-3.57.37-4.29.19c-.16-1.44-.12-2.73-.01-4.18.75.06,2.03-.4,2.7.14Z"></path>
            <path class="cls-178" d="M126.39,96.44c-.16-.47.04-.94.06-1.41l1.6.11c.47.03.45,1.1-.02,1.24-.59.17-1.16.1-1.64.05Z"></path>
            <path class="cls-201" d="M121.15,93.38c.28.21.1.34,0,.33-.63-.07-1.68.22-.86-.44.21-.17.66-.2.87.11Z"></path>
            <path class="cls-102" d="M132.93,96.69c-1.37.08-2.49.13-3.81-.02-.17-.37-.38-1.43.02-1.56,1.18-.36,2.5-.26,3.79-.06.4.06.2,1.25,0,1.64Z"></path>
          </g>
        </g>
        <g>
          <path class="cls-145" d="M90.74,20.47c-.62-.29-.2-1.09-.29-1.63.13.05.22-.18.38-.18h28.36c.32-.1.28-.44.48-.36,1.76.84,3.87.19,5.97.39.78.07,1.42,1.78.83,1.78h-35.72Z"></path>
          <g>
            <path class="cls-20" d="M85.13,15.8c1.15.05,2.37.49,3.73.16.62-.15,1,.35,1.26.65.77.87-.97,2.02.32,2.23.09.54-.32,1.34.29,1.63-.37.17-.51,1.51.05,1.51l28.62.07c.23,1.08.24,2.14.01,3.3l-34.56.05-8.6-.09.03-9.41c2.93-.23,5.9-.24,8.84-.11Z"></path>
            <path class="cls-3" d="M52.64,15.87l-.04,9.39c-4.13.25-8.27.1-12.32.06.53.73.43-3.84,0-3.51.72-.79.19-2.08.28-3.05-.49.13-.61.04-.55-.13.09-.16.52.09.53-.04l.16-2.86c1.83.09,3.54-.09,5.23-.12,1.58-.03,3.36.56,4.82-.22.4.36,1.34.5,1.89.48Z"></path>
            <path class="cls-134" d="M74.34,15.61c.61,0,1.39.2,1.95.29l-.03,9.41-11.85-.02-.18-9.53h4.56c.4-.01.7-.13.95-.36,1.37.7,3.08.24,4.59.22Z"></path>
            <path class="cls-29" d="M64.23,15.75l.18,9.53c-3.82,0-7.68.34-11.47-.07,2.87-3.02,5.95-5.88,8.56-9.12.67-.62,1.92-.34,2.73-.34Z"></path>
            <path class="cls-117" d="M61.28,15.68c.1.15.3.23.22.41-2.6,3.24-5.69,6.1-8.56,9.12-.11-.01-.23.03-.34.04l.04-9.39,8.64-.19Z"></path>
            <path class="cls-86" d="M61.28,15.68l-8.64.19c-.54.01-1.48-.13-1.89-.48l.21-3.32c3.01-.46,6.11-.1,9.46-.24.24,1.39,1.24,2.59.85,3.85Z"></path>
            <path class="cls-114" d="M85.13,15.8c-2.94-.14-5.91-.12-8.84.11-.56-.09-1.34-.3-1.95-.29.09-1.18.38-2.36.32-3.55,3.08-.42,6.22-.14,9.46-.19.35,1.51.9,2.65,1,3.92Z"></path>
            <path class="cls-125" d="M40.01,18.63c-.06.17.07.26.55.13-.08.97.44,2.26-.28,3.05-.34.31-2.82-.4-2.85.77l-.06,2.71h-3.06c-.05-1.09-.16-2.28.02-3.51.25-1.67,1.65-3,3.18-3.06l2.49-.1Z"></path>
            <path class="cls-171" d="M50.97,12.07l-.21,3.32c-1.46.78-3.24.18-4.82.22.26-1.2.57-2.48,1.09-3.68,1.34-.27,2.78.03,3.94.15Z"></path>
            <path class="cls-184" d="M74.67,12.06c.06,1.18-.23,2.36-.32,3.55-1.51.02-3.23.48-4.59-.22.12-1.17.46-2.46,1-3.51,1.46-.23,2.83.11,3.92.18Z"></path>
          </g>
          <g>
            <path class="cls-135" d="M176.09,13.21c1.05.15,2.75-.12,3.64.46v11.65s22.67-.03,22.67-.03l15.55.07c.08,1.21.08,1.8,0,2.96-.82-.18-1.52.18-2.14.18l-129.2-.21c-.24,1.03-.13,1.87-.12,2.68l-.59-.07c.46-.71.31-1.84.13-2.63-.5.03-.93-.02-1.18-.02v-2.82s34.57-.05,34.57-.05c.22-1.16.22-2.21-.01-3.3l-28.62-.07c-.57,0-.42-1.35-.05-1.51h35.72c.59,0-.05-1.71-.83-1.78-2.1-.2-4.21.45-5.97-.39-.19-1.55-.05-3.13-.05-4.92,1.85-.39,3.01.51,3.13-.72.27-.02.18.25.27.61h15.75c.86,0,1.62-.1,2.31.16l.05,11.97,23.1-.14c.76.98,1.94-1.98,2.61-3.09-.91-.4-1.79-.23-2.61-.06l-.04-8.75,8.49-.08c.01-1.18.7-4.1-.9-4.1h-17.44c-.01-.38-.35-1.51.19-1.51h17.79c1.17-.01,1.93,1.3,2.04,2.27.13,1.15-.2,2.22.16,3.19.34.45,1.19.06,1.56.08ZM131.75,25.31c.41.15.84.08,1.42.03.69-1.2,1.53-2.26,1.87-3.5.67-.82.89-2.49-.25-3.01-.78-.36-2.04-.16-2.97-.04-3.44.44-3.4,3.9-3.16,6.48,1.06.19,2.09.12,3.09.04ZM172.38,24.73c-.05.25.41.68.67.67,1.27-.01,2.03-2.18,2.68-3.59.41-.9,1.06-1.97-.08-2.92-.46-.38-5.39-.92-6.24,2.6-.3,1.24-.19,2.52-.06,3.77,1.07.14,1.96.18,2.93.02.11-.07,0-.52.1-.55Z"></path>
            <path class="cls-43" d="M176.09,13.21c-.37-.01-1.23.37-1.56-.08-.37-.97-.03-2.05-.16-3.19-.11-.97-.87-2.28-2.04-2.28h-17.79c-.54.01-.2,1.14-.19,1.53.01.53-.23,1.43.03,2.17l5.95.1c.44,0,.4,1.78-.05,1.79l-19.14-.03c.13-.5-.14-1.12.03-1.65.37-.17.94-.3,1.35-.26.92.09,1.89.25,2.9-.01V.84c0-.33.3-.53.28-.75L152.2,0c3.16-.04,1.65,3.82,2.13,5.88l17.45.02c2.01,0,3.87,1.24,4.24,3.3.25,1.42.06,2.76.07,4ZM152.91,10.47l-.13-8.99c-.68-.42-1.87-.46-2.47-.02l-.07,8.98c.93.09,1.59.18,2.67.03Z"></path>
            <path class="cls-35" d="M145.69.09c.02.22-.28.42-.28.75v10.46c-1.02.26-1.98.1-2.9.01l-.09-3.61c-.56.05-1.09-.22-1.49-.13-.13-1.02-.08-2.06-.03-3.09.4,0,.84-.06,1.47-.09.28-.92-.02-2.04.19-2.95.41-1.75,1.94-1.34,3.13-1.36Z"></path>
            <path class="cls-49" d="M135.29,11.33c1.05,0,2.11.18,3.18.04.85-.12,1.86.08,2.7.21-.17.53.09,1.14-.03,1.65l-.05.21c-.7-.27-1.45-.16-2.31-.16h-15.75c-.09-.36,0-.64-.27-.61l.12-1.21,12.43-.12Z"></path>
            <path class="cls-96" d="M140.9,4.48c-.05,1.03-.1,2.07.03,3.09-.74.16-1.54-.06-2.35.33-.21,1.24-.12,2.38-.11,3.46-1.07.15-2.13-.05-3.18-.04-.16-2.34-.4-5.54,2.48-6.63,1.05-.4,2.11-.23,3.13-.22Z"></path>
            <path class="cls-204" d="M164.23,22.1c0,1.04-.19,2.11,0,3.15l-23.1.14-.05-11.97.05-.21,19.14.03c.44,0,.49-1.78.05-1.79l-5.95-.1c-.26-.75-.02-1.64-.03-2.17h17.44c1.6-.01.92,2.91.9,4.09l-8.49.08.04,8.75ZM151.68,23.71v-8.98s-8.79,0-8.79,0l.02,9.07,8.77-.09ZM162.43,23.8v-9.07s-8.71-.02-8.71-.02l-.05,9.07h8.76Z"></path>
            <path class="cls-181" d="M135.04,21.83c-1.03.12-2.09-.11-3.17.26-.28,1.1-.15,2.21-.12,3.22-.99.08-2.03.15-3.09-.04-.24-2.58-.28-6.04,3.16-6.48.93-.12,2.19-.32,2.97.04,1.14.52.92,2.19.25,3.01Z"></path>
            <path class="cls-181" d="M175.73,21.81c-.9.33-2.16-.31-3.05.36-.57.43-.16,1.94-.29,2.56-.1.03,0,.48-.1.55-.97.16-1.87.12-2.93-.02-.13-1.25-.24-2.53.06-3.77.86-3.52,5.79-2.98,6.24-2.6,1.13.95.49,2.02.08,2.92Z"></path>
            <path class="cls-197" d="M175.73,21.81c-.65,1.41-1.41,3.58-2.68,3.59-.26,0-.72-.42-.67-.67.14-.63-.28-2.13.29-2.56.89-.66,2.16-.03,3.05-.36Z"></path>
            <path class="cls-161" d="M135.04,21.83c-.34,1.24-1.18,2.3-1.87,3.5-.59.06-1.01.12-1.42-.03-.03-1.01-.16-2.12.12-3.22,1.08-.37,2.14-.14,3.17-.26Z"></path>
            <path class="cls-141" d="M164.22,25.25c-.18-1.04.01-2.11,0-3.15.81-.17,1.7-.34,2.61.06-.67,1.1-1.85,4.06-2.61,3.09Z"></path>
            <path class="cls-108" d="M152.91,10.47c-1.08.14-1.73.05-2.67-.03l.07-8.98c.6-.43,1.79-.4,2.47.02l.13,8.99Z"></path>
            <path class="cls-133" d="M151.68,23.71l-8.77.09-.02-9.07h8.78s.01,8.99.01,8.99ZM149.4,15.98c-1.29-.95-2.79-.87-3.96-.2l3.96.2ZM149.78,17.46c.34,0,.64-.06.58-.39-.13-.67-4.77-.37-5.94-.34-.3,0-.42.64-.23.64l5.59.09ZM150.87,18.83c.21,0,.08-.67-.05-.62-.08.03-.28-.09-.5-.09l-6.4.02c-.23,0-.3.2-.35.3-.06.11,0,.48.29.48l7.01-.09ZM150.45,20.41c.44,0,.53-.28.56-.4.02-.14-.04-.43-.4-.42l-6.93.07c-.22,0-.18.49-.07.57.1.07.26.17.54.17l6.3.02ZM150.14,21.85c.25-.3.29-.41.3-.48.01-.07-.04-.29-.18-.29h-6.06c-.22,0-.1.56.2.7l5.74.06ZM145.49,22.69c1.24.71,2.68.7,3.91-.21l-3.91.21Z"></path>
            <path class="cls-63" d="M162.43,23.8h-8.76s.05-9.09.05-9.09l8.71.02v9.07ZM160.14,15.97c-1.35-.94-2.99-.94-4.34,0,1.55-.13,2.79-.13,4.34,0ZM161.2,17.41c0-.77-.51-.71-.95-.71h-4.57c-.43,0-.87-.01-.89.69l6.42.02ZM162.06,18.54c-.5-.63-7.57-.59-7.75-.1-.04.1.07.54.3.51,2.47-.35,4.87.45,7.45-.41ZM161.51,20.33c.2,0,.31-.38.21-.46-.07-.05-.2-.26-.41-.26l-6.9.05c-.21,0-.07.54.02.57l.45.16,6.63-.06ZM161.17,21.13l-6.38-.07c0,.7.45.79.88.78,1.35-.05,6.39.35,5.49-.71ZM160.01,22.67c-1.4-.13-2.59-.17-3.83.02,1.3.77,2.66.52,3.83-.02Z"></path>
            <g>
              <path class="cls-59" d="M202.4,25.27l-22.68.03v-11.65s22.83,0,22.83,0l-.15,11.62ZM190.37,24.1l-.06-9.03-8.76.03v8.99s8.82,0,8.82,0ZM201.14,24.12l-.05-9.07-8.8.06v9.01s8.84,0,8.84,0Z"></path>
              <path class="cls-218" d="M190.37,24.1h-8.81s-.01-9-.01-9l8.76-.03.06,9.03ZM187.9,16.31c-1.04-.79-2.49-1.07-3.66-.13,1.31.29,2.39.05,3.66.13ZM189.14,17.74c-.07-.7-.54-.71-.98-.76l-4.84.03c-.46,0-.8.43-.58.75l6.4-.03ZM189.51,19.17c.28,0,.06-.69-.29-.69l-6.68.02c-.38,0-.43.51-.29.67.08.09.27.12.54.12l6.72-.11ZM189.47,20.7c.22-.33.19-.46.14-.53-.06-.08-.16-.19-.37-.19l-6.45-.03c-.36,0-.64.07-.61.36.02.14.14.4.37.4h6.91ZM188.71,22.2c2.42-1.26-5.63-.59-5.93-.66-.22.06.14.68.54.68l5.39-.02ZM187.86,23.03c-1.5-.21-2.46-.05-3.93-.05,1.24.69,2.7.82,3.93.05Z"></path>
              <path class="cls-212" d="M201.14,24.12h-8.84s0-9.01,0-9.01l8.8-.06.05,9.07ZM198.63,16.31c-1.16-.93-2.65-.96-4.03,0h4.03ZM199.83,17.76c.04-.55-.3-.74-.67-.74h-4.84c-.45,0-.85.17-.85.69l6.35.05ZM200.24,19.17c.28-.03.08-.71-.26-.71l-6.7.03c-.23,0-.33.3-.33.44,0,.1.02.26.29.35,2.39-.11,4.64.12,7.01-.11ZM200.21,20.68c.21-.19.2-.48.14-.52s-.16-.19-.37-.19l-6.45-.03c-.33,0-.58.13-.58.33,0,.83,6.01.32,7.26.41ZM199.43,22.18c.34,0,.63-.67.28-.68-2.05-.05-4.14-.06-6.14,0-.16.49.34.74.75.74l5.11-.06ZM198.64,22.97h-4.04c1.34.72,2.73.85,4.04,0Z"></path>
              <path class="cls-23" d="M189.47,20.7h-6.91c-.23,0-.36-.26-.37-.4-.04-.29.24-.36.61-.36l6.45.03c.21,0,.32.11.37.19.05.07.07.2-.14.53Z"></path>
              <path class="cls-111" d="M189.51,19.17l-6.72.11c-.26,0-.46-.03-.54-.12-.14-.15-.1-.66.29-.67l6.68-.02c.35,0,.57.68.29.69Z"></path>
              <path class="cls-52" d="M189.14,17.74l-6.4.03c-.22-.32.12-.75.58-.75l4.84-.03c.45.05.92.06.98.76Z"></path>
              <path class="cls-132" d="M188.71,22.2l-5.39.02c-.4,0-.77-.62-.54-.68.3.07,8.35-.59,5.93.66Z"></path>
              <path class="cls-22" d="M187.86,23.03c-1.23.77-2.69.63-3.93-.05,1.47,0,2.43-.16,3.93.05Z"></path>
              <path class="cls-136" d="M187.9,16.31c-1.28-.09-2.36.15-3.66-.13,1.17-.94,2.62-.66,3.66.13Z"></path>
              <path class="cls-11" d="M200.21,20.68c-1.26-.09-7.27.42-7.26-.41,0-.2.25-.33.58-.33l6.45.03c.22,0,.31.14.37.19s.07.33-.14.52Z"></path>
              <path class="cls-41" d="M200.24,19.17c-2.37.23-4.61,0-7.01.11-.27-.09-.29-.25-.29-.35,0-.13.11-.43.33-.44l6.7-.03c.35,0,.54.68.26.71Z"></path>
              <path class="cls-93" d="M199.83,17.76l-6.35-.05c0-.52.4-.69.85-.69h4.84c.37,0,.71.19.67.74Z"></path>
              <path class="cls-61" d="M199.43,22.18l-5.11.06c-.41,0-.91-.24-.75-.74,2-.07,4.09-.06,6.14,0,.35,0,.06.68-.28.68Z"></path>
              <path class="cls-14" d="M198.63,16.31h-4.03c1.37-.96,2.87-.93,4.03,0Z"></path>
              <path class="cls-165" d="M198.64,22.97c-1.31.85-2.7.72-4.04,0h4.04Z"></path>
            </g>
            <path class="cls-207" d="M150.45,20.41l-6.3-.02c-.28,0-.44-.1-.54-.17-.11-.08-.15-.57.07-.57l6.93-.07c.36,0,.43.28.4.42-.02.12-.12.4-.56.4Z"></path>
            <path class="cls-112" d="M150.87,18.83l-7.01.09c-.28,0-.35-.37-.29-.48.05-.1.13-.29.35-.3l6.4-.02c.22,0,.42.12.5.09.13-.05.26.61.05.62Z"></path>
            <path class="cls-48" d="M150.14,21.85l-5.74-.06c-.29-.14-.42-.69-.2-.69h6.06c.14,0,.2.2.18.28-.01.07-.05.18-.3.48Z"></path>
            <path class="cls-210" d="M149.78,17.46l-5.59-.09c-.19,0-.08-.63.23-.64,1.17-.03,5.81-.33,5.94.34.06.32-.24.39-.58.39Z"></path>
            <path class="cls-121" d="M149.4,15.98l-3.96-.2c1.17-.67,2.68-.75,3.96.2Z"></path>
            <path class="cls-42" d="M145.49,22.69l3.91-.21c-1.23.9-2.67.92-3.91.21Z"></path>
            <path class="cls-89" d="M162.06,18.54c-2.58.86-4.98.06-7.45.41-.23.03-.34-.41-.3-.51.17-.49,7.25-.53,7.75.1Z"></path>
            <path class="cls-205" d="M161.51,20.33l-6.63.06-.45-.16c-.09-.03-.23-.57-.02-.57l6.9-.05c.21,0,.34.21.41.26.1.08-.01.46-.21.46Z"></path>
            <path class="cls-25" d="M161.17,21.13c.9,1.06-4.15.66-5.49.71-.44.02-.89-.08-.88-.78l6.38.07Z"></path>
            <path class="cls-179" d="M161.2,17.41l-6.42-.02c.02-.7.46-.69.89-.69h4.57c.44,0,.96-.05.95.71Z"></path>
            <path class="cls-110" d="M160.14,15.97c-1.56-.13-2.79-.13-4.34,0,1.35-.94,2.99-.94,4.34,0Z"></path>
            <path class="cls-93" d="M160.01,22.67c-1.17.53-2.53.79-3.83.02,1.25-.19,2.43-.15,3.83-.02Z"></path>
          </g>
        </g>
      </g>
    </g>
  </g>
</svg>