<?xml version="1.0"?>
<svg id="Layer_2" data-name="Layer 2" xmlns="http://www.w3.org/2000/svg" viewBox="0 0 70.26 50.43">
  <defs>
    
  </defs>
  <g id="Layer_1-2" data-name="Layer 1">
    <g id="Generative_Object" data-name="Generative Object">
      <path class="cls-128" d="M42.36,41.77c.17.02.34.02.51,0,.29,1.08.02,2.25.14,3.44.01.12-.11.2-.14.24-.36.08-.62-.1-.89-.26-.36-.61-.86-1.14-1.33-1.68.1-.05-.2-.26-.19-.26-.11.04-.07.23-.02.27.03.48.05.97,0,1.45-.02.15.16.33-.07.44s-.51-.07-.71.04l-.07-3.65c.24-.03.61-.15.77.04l1.74,2.03c.15-.36-.16-2.46.27-2.11Z"></path>
      <path class="cls-128" d="M45.34,42.64c.24.44.55.84.93,1.23.15-.41,0-.77.03-1.11l.06-.96c.27-.06.51-.07.81.02l.02,3.29c0,.2-.08.38-.25.36-.12-.03-.34.02-.48-.05l-1.73-2.04-.07,2.04c-.3.06-.57.04-.81.05-.08-1.15-.07-2.33-.01-3.59,0-.19.65-.16.76,0,.26.33.5.59.75.77Z"></path>
      <path class="cls-212" d="M4.27,31.83c.25.18.64.09.86,0,.53.12,1.31.2,1.83-.01.21.13.56.15.74,0,.4.2.94.04,1.36,0,.38-.03.87.26,1.34.03,0-.04-.02-.2.1-.16.02.11.04.18.1.21.07.03.25-.05.31,0l4.07,3.1c2.11.16,1.91-.29,2.31-.36.1-.02.16-.06.12-.18.22-.17.65.03.87-.05.02.07,0,.15,0,.22-.24-.17-.36.24-.51.24-.91.02.32.63-2.94.46-.23-.01-.38-.39-.6-.34l-3.36-2.72H.32C.17,32.3,0,32.23,0,32.12c0-.43,1.26-.01,1.55-.3-.42.15,2.66.25,1.99-.13.14.1.11.26.29.24.18-.02.37.03.44-.1Z"></path>
      <path class="cls-124" d="M61.54,31.84c.38.12.89.07,1.25-.04.51.16,1.21.22,1.72.04.24.12.6.11.89.08.23-.02.51.05.69-.09.64.31,1.45-.02,2.1,0,.61.02,1.27.18,1.99.09.15-.02.08.36-.06.36l-10.66.03c-.89.55-1.58,1.26-2.34,1.86-.5.39-1.12.87-1.72,1.14-.83.37-2.93-.06-3.43-.91h.86c-.03.14,0,.22.12.27.76.25.01.43,2.37.35l4.03-3.07c.18-.13.61.08.75-.12.41.29,1.02.05,1.45.02Z"></path>
      <path class="cls-52" d="M34.3,45.23c.04.38-.42.15-.71.21-.31.07-.23-.54-.47-.66-.5-.24-1.18-.06-1.68-.07-.19.2-.16.49-.37.65-.19.16-.56.1-.85,0l1.32-2.98c.07-.15.1-.45.29-.56.28-.16.64-.05.9-.02l1.57,3.42ZM31.96,43.51s-.02.04-.03.1c-.19-.04-.2.37-.04.37.35.01.55.02.87,0-.09-.22,0-.52-.24-.63-.03-.2-.1-.37-.23-.6-.2.24-.29.46-.33.76Z"></path>
      <g>
        <path class="cls-143" d="M6.09,36.25c-.13.15,0,.28-.02.38-.11.43-.02.83-.06,1.37-.53.22-1.08.59-1.62.66v-5.85c.59.61,1.1,1.45,1.6,2.31.17.36-.13.85.1,1.13Z"></path>
        <path class="cls-200" d="M4.4,38.66c-.61-.17-1.05-.45-1.63-.71.15-3.54-.51-2.35,1.64-5.14v5.85Z"></path>
      </g>
      <path class="cls-18" d="M32.88,47.54s-.01.09,0,.14c.03.07.06.17.15.13-.02.1.12.1.15.16.2.32.43.64.75.89l.08-1.79c0-.19.68-.19.73,0,.13.44.02.97.03,1.36.01.56.08,1.22-.02,1.85-.04.15-.54.16-.67.01l-1.43-1.62c-.02-.05-.03-.12-.12-.2-.05-.04-.09-.1-.13,0-.03.09.01.15,0,.2-.05.5.09,1.11-.07,1.62-.12.12-.62.12-.7-.03l-.03-3.07c0-.16.06-.25.18-.25.49-.18.69.35,1.08.59Z"></path>
      <path class="cls-62" d="M39.08,48.79c-.05.81-.63,1.46-1.52,1.61-.61.1-1.22-.03-1.7-.47-.32-.3-.58-.85-.54-1.37.07-.95.86-1.66,1.88-1.66,1.12,0,1.94.85,1.87,1.9ZM36.96,47.63c-.66.17-.91.78-.7,1.45.13.42.67.77,1.21.62.58-.16.89-.72.74-1.33-.12-.5-.63-.89-1.25-.73Z"></path>
      <path class="cls-18" d="M29.81,48.27c.12.01.14-.03.21-.1.1-.09.04-.17.04-.26,0-.29,0-.58.02-.93l.72-.06c-.03.06.08.11.08.17v3.23c-.3.08-.53.05-.8.03-.03-.21-.04-.33-.05-.46-.01-.28.12-.64-.1-.85-.09-.1-.24-.05-.36-.05-.29,0-.66-.12-.95.03-.19.1-.03.48-.04.64l-.06.68c-.24.01-.51.1-.72-.05-.12-.08-.11-.38-.1-.5.04-.46.01-1.34,0-1.84,0-.34-.03-.73.13-1.02l.7.08.02,1.21c.43.12.84.01,1.24.06Z"></path>
      <path class="cls-149" d="M46.08,48.9c-.1.88-.89,1.38-1.56,1.5-.89.16-1.57-.26-2.05-.91-.15-.63-.22-1.29.17-1.85.34-.47.9-.76,1.59-.75,1.09.01,1.97.94,1.84,2.01ZM43.84,47.65c-.63.2-.79.86-.64,1.33.18.59.79.85,1.29.69.6-.2.82-.78.69-1.32s-.71-.91-1.34-.7Z"></path>
      <path class="cls-125" d="M26.23,42.14c-.18.09-.04.35-.24.55-.5-.19-.99-.43-1.47-.19-.17.09-.24.26-.18.39.05.1.15.19.31.24l1,.26c.39.1.7.37.76.69s.04.85-.23,1.05c-.78.56-1.94.48-2.73-.01-.13-.09.08-.65.24-.62.47.19,1.84.55,1.84-.07,0-.7-2.44-.2-2.07-1.83.23-1.03,2.17-1.16,2.78-.45Z"></path>
      <path class="cls-28" d="M27.88,42.64c.19.53.32,1.11.65,1.62.31-.43.36-.88.54-1.25l.56-1.11c.13-.27.78-.2.91.05l-1.6,3.45c-.22.07-.79.16-.9-.07l-1.31-2.81c-.08-.18-.03-.5-.22-.7.29-.02.72-.17.89.04.18.22.39.57.47.8Z"></path>
      <path class="cls-198" d="M49.66,47.56c-.15.12-.3.26-.49.38-.45-.39-1.07-.48-1.54-.11-.41.31-.53.94-.22,1.42s.92.63,1.46.33l.07-.97c.27-.05.48,0,.67-.06.01.39.21,1.06-.03,1.42-.41.47-1.21.51-1.78.4-.76-.14-1.31-.76-1.4-1.48-.08-.67.26-1.52.9-1.82.8-.38,1.93-.27,2.36.48Z"></path>
      <path class="cls-217" d="M23.57,47.08c-.05.15,0,.34-.12.51-.54.05-1.1-.05-1.59.05-.16.03-.16.57,0,.61.43.12.87-.02,1.36.07.15.03.19.5.05.55-.48.2-.98-.02-1.46.11-.07.23-.07.47,0,.7l1.76.04c.03.1.12.64-.1.62-.92-.08-1.85.26-2.52-.19.03-.04.04-.14,0-.17l-.03-1.92c0-.3.07-.61,0-.91-.05-.15.13-.22.3-.22l2.19.02c.05,0,.13.09.16.12Z"></path>
      <path class="cls-24" d="M10.5,23.31c-.21.15-1.59,1.09-1.79.77l.02-3.32c.51-.34,1.06-.62,1.66-.83l.11,3.38ZM9.79,21.51c-.16.33-.09.8-.02,1.19.29.36.29-1.74.02-1.19Z"></path>
      <path class="cls-52" d="M25.68,46.88c.31-.02.68.05.97.15.27.09.44.32.6.52l-.5.42c-.48-.46-1.14-.49-1.58-.09s-.45,1.08-.06,1.52c.41.47,1.13.45,1.62-.04.27.12.39.3.51.43-.3.53-1.01.7-1.64.63-.47-.05-1.2-.38-1.45-.9-.36-.78-.06-1.76.52-2.31.26-.11.74-.31,1.02-.33Z"></path>
      <path class="cls-182" d="M24.37,36.27c.07.1.07.23.13.34l-5.76,3.3c-.06.51.15,1.18-.13,1.58l-3.39,1.9c-.01-.15-.02-.38.09-.5l2.88-1.56c.32-.17-.06-1.47.37-1.73,1.97-1.15,3.84-2.35,5.82-3.33Z"></path>
      <path class="cls-185" d="M46.33,36.39c.43.43,1.04.63,1.56.94,1.22.75,2.45,1.51,3.73,2.14.55.65.13,1.19.35,1.69.13.31.59.44.85.51.02.06.05.11.12.1-.06.08.02.1.07.13.07.04.13.07.18.01.48.34,1.03.68,1.59.86-.06.11.11.13.18.11.18.13-.03.33-.04.47l-3.32-1.86-.17-1.62-5.23-3.05c-.22-.13-.35-.18-.52-.1.08-.15.16-.29.19-.46.17-.02.27.23.45.13Z"></path>
      <path class="cls-174" d="M37.48,45.23c.53.33-3.36.29-2.78.01l.04-3.43c.31-.07.57-.08.86,0l.03,2.86,1.71.06c.16,0,.1.41.12.5Z"></path>
      <path class="cls-158" d="M51.35,48.05c.04.07.07.14.12.19.17.18.19-.01.25-.08.62-.58.51-1.56,1.55-1.14l-1.24,2.15c-.17.29.11.77-.07,1.09-.09.16-.61.14-.73,0l-.09-1.15c-.03-.41-.45-.71-.64-1.06-.04-.07-.01-.18-.15-.17l-.42-.89c.22-.05.6-.14.76,0,.33.28.49.71.66,1.05Z"></path>
      <path class="cls-196" d="M20.54,47.19c.02.16,0,.31-.11.38-.31.23-.71-.08-.93.09-.13.1-.02.26-.03.38l-.05,2.27c-.23.06-.67.13-.79-.05l-.06-2.62-.95-.07c-.17-.01-.14-.58.04-.6.1,0,3.4-.18,2.87.22Z"></path>
      <path class="cls-132" d="M61.08,24.21c-.53-.19-1.01-.49-1.49-.86v-1.96c.5-.04.94-.03,1.49-.01v2.83Z"></path>
      <path class="cls-22" d="M42.09,49.74c.61,1.04-1.7.51-2.46.6-.04-.66,0-1.16.01-1.67.02-.47-.11-1.09.02-1.61.04-.18.71-.18.73,0l.08,2.62,1.61.06Z"></path>
      <path class="cls-73" d="M10.99,43.39c-.02.15.01.33-.07.47-.12-.06-.23.05-.38.13l-6.66,3.51c-.1.05-.29-.05-.31-.13-.01-.05.05-.2.15-.25l7.27-3.74Z"></path>
      <path class="cls-139" d="M19.86,34.63c0,.12,0,.26,0,.37l-3.08,1.62h-4.92s0-.5,0-.5c.06.23.33.13.52.12.08,0,.16,0,.24,0h3.68c.2.01.37.04.62-.1l2.6-1.45c.12-.07.23-.1.33-.07Z"></path>
      <path class="cls-1" d="M38.72,45.43c-.25-.14-.8.23-.84-.21l.04-3.42c.31-.05.69-.12.86.06-.04,1.24.11,2.45-.07,3.57Z"></path>
      <path class="cls-112" d="M62.76,44.86c1,.5,1.93,1.2,3.03,1.64.11.04.08.31.02.31-.04,0-.08.09-.16.04l-6.32-3.25c-.02-.12-.09-.34.02-.46l3.43,1.71Z"></path>
      <path class="cls-126" d="M8.67,24.08c.19.32,1.52-.62,1.72-.77.29-.21,2.44-.04,2.68-.04,2.67,0-.03.24-.13.24l-2.06.05-2.68,1.4c-.11.06-.29,0-.28-.13.02-.33.75-.33.75-.75Z"></path>
      <path class="cls-206" d="M59.59,23.34c.48.37.96.68,1.49.86-.27-.1.92.41.67.71-.15.18-2-1.05-2.9-1.37-.35-.13-2.56.21-2.82-.25.63-.37,2.98-.1,3.57.05Z"></path>
      <path class="cls-25" d="M65.38,36.25c-.03.09.13.24.01.38h-2.11c0-.13,0-.25,0-.37h2.1Z"></path>
      <path class="cls-162" d="M7.58,36.26c-.03.1,0,.26,0,.37h-1.5c.02-.1-.11-.23.02-.38h1.49Z"></path>
      <path class="cls-123" d="M20.59,35.89c.71-.23-2.62,1.6-1.84,1.22-1.39.67-2.72,1.46-4.07,2.22-.24.14-.55.18-.7.43-.12-.08-.31-.07-.39-.23l6.42-3.75c.19,0,.41.12.58.1Z"></path>
      <g>
        <g>
          <path class="cls-26" d="M9.68,35.78v7.2c-1.01.61-2.08,1.08-3.2,1.65l-2.57-1.37,3.68-1.85-.02-4.78c0-.11-.02-.26,0-.37.12-.44-.16-.97.15-1.34l1.96.87Z"></path>
          <path class="cls-216" d="M11.75,34.9l-2.07.89-1.96-.87c.24-.29,1.82-.83,2.07-.77.73.18,1.39.42,1.95.75Z"></path>
          <path class="cls-35" d="M11.47,38.49c-.4.4-.77.48-1.18.63-.57-.23,1.37-1.01,1.18-.63Z"></path>
          <path class="cls-68" d="M11.37,36.07c.06.28-1.08.67-1.19.56-.09-.24,1.13-.84,1.19-.56Z"></path>
          <path class="cls-43" d="M11.37,37.66c.05.27-1.04.68-1.19.55-.11-.18,1.13-.83,1.19-.55Z"></path>
          <path class="cls-175" d="M11.41,36.92c-.35.31-.73.42-1.17.58-.44-.26,1.33-.99,1.17-.58Z"></path>
        </g>
        <g>
          <path class="cls-145" d="M11.75,34.9c.17.3.1.92.11,1.22v.51s0,3.31,0,3.31c.45-.16.83-.6,1.26-.5l.49.11c.07.15.26.14.39.23.37.25.87.31,1.25.61.07.9-.08,1.72.08,2.5-.11.12-.11.35-.09.5.05.52.05,1-.01,1.57-.77.24-1.37.81-2.09.89l-.03-4.53-2.06-.89-.03,2.07c-.41.14-.94.26-1.31.48v-7.2s2.06-.89,2.06-.89ZM11.37,36.07c-.06-.28-1.28.33-1.19.56.11.11,1.25-.29,1.19-.56ZM11.41,36.92c.16-.41-1.6.32-1.17.58.43-.15.81-.26,1.17-.58ZM11.37,37.66c-.05-.28-1.3.37-1.19.55.14.13,1.24-.28,1.19-.55ZM11.47,38.49c.19-.38-1.75.4-1.18.63.41-.15.78-.24,1.18-.63ZM14.5,42.77c.4-.47.29-1.05.09-1.57-.36.49-.28,1.05-.09,1.57ZM13.98,43.67l-.02-1.91c0-.13-.2-.11-.23-.06-.17.26-.19,2.34.07,2.24.06-.02.18-.11.18-.28ZM14.52,43.66c.32-.12.29-.61.08-.62-.29,0-.34.46-.08.62Z"></path>
          <path class="cls-82" d="M13.12,45.85c-.72-.09-1.35-.63-2.09-.89-.09-.42.09-.8-.11-1.09.08-.14.06-.32.07-.47.03-.3,0-.59.01-.89l.03-2.07,2.06.89.03,4.53Z"></path>
          <path class="cls-56" d="M13.98,43.67c0,.16-.12.25-.18.28-.25.1-.24-1.98-.07-2.24.04-.06.23-.08.23.06l.02,1.91Z"></path>
          <path class="cls-160" d="M14.5,42.77c-.19-.52-.28-1.08.09-1.57.21.53.31,1.1-.09,1.57Z"></path>
          <path class="cls-151" d="M14.52,43.66c-.25-.16-.21-.63.08-.62.21,0,.24.5-.08.62Z"></path>
        </g>
      </g>
      <g>
        <path class="cls-177" d="M64.62,25.3c-.07-.02-.1.02-.1.12v6.43c-.51.18-1.22.12-1.73-.04l-.03-3.24c-.46.15-.85.34-1.26.63l.04,2.66c-.43.03-1.03.27-1.45-.02v-3.38c.44-.17.87-.57,1.36-.61.45-.04.82.52,1.29.56l.1-4.35c.73.44,1.33.76,1.79,1.25ZM63.8,25.9c-.14-.15-.61-.15-.66.05s.3.17.43.17c.09,0,.3-.03.23-.21ZM63.8,26.68c-.1-.16-.51-.14-.58.02-.07.15.23.2.36.2.09,0,.33-.05.22-.22ZM63.85,27.51c-.36-.2-.6-.18-.89,0,.27.21.63.21.89,0ZM63.83,28.29c-.09-.25-.69-.18-.7,0-.01.29.75.21.7,0Z"></path>
        <path class="cls-165" d="M68.19,31.84c-.65-.02-1.47.31-2.1,0v-5.25c.71-.04,1.34-.04,2.07,0l.03,5.26Z"></path>
        <path class="cls-226" d="M65.4,31.93c-.29.03-.65.03-.89-.08v-6.43c0-.1.03-.14.11-.12.24,0,.64.26.75.5l.03,6.12Z"></path>
        <path class="cls-121" d="M62.79,31.8c-.36.11-.87.16-1.25.04l-.04-2.66c.41-.28.81-.48,1.26-.63l.03,3.24Z"></path>
        <path class="cls-96" d="M63.8,25.9c.07.18-.13.21-.23.21-.14,0-.48.04-.43-.17s.53-.2.66-.05Z"></path>
        <path class="cls-207" d="M63.83,28.29c.05.2-.71.28-.7,0,0-.17.61-.25.7,0Z"></path>
        <path class="cls-42" d="M63.8,26.68c.11.16-.13.22-.22.22-.13,0-.43-.05-.36-.2.07-.16.48-.18.58-.02Z"></path>
        <path class="cls-135" d="M63.85,27.51c-.26.22-.62.21-.89,0,.29-.19.53-.2.89,0Z"></path>
      </g>
      <path class="cls-162" d="M58.35,36.25h.43c.11.11,0,.29-.05.39-1.74-.07-3.47.18-5.29-.11-.84-.14-2.06-1.2-2.82-1.41-.07-.02-.1-.18-.26-.1-.02-.13.02-.26.03-.38.12-.05.25.02.39.1l2.78,1.54,4.79-.02Z"></path>
      <path class="cls-221" d="M55.3,39.29s-.12.04-.16.07c.02-.06.02-.12.02-.17.07-.03.18,0,.13.1Z"></path>
      <g>
        <path class="cls-143" d="M6.96,31.83c-.52.22-1.3.13-1.83.01v-6.91c0-.15,0-.27-.14-.24.57-.47,1.18-.87,1.95-1.36l.02,8.49ZM6.52,25.24c.02-.18-.58-.23-.58.02,0,.2.55.21.58-.02ZM6.6,26.15c-.09-.23-.24-.25-.44-.24-.13,0-.24.05-.32.24.29.02.47.02.76,0ZM6.53,26.83c-.11-.26-.63-.15-.6.03.05.25.69.17.6-.03ZM6.66,27.63c-.36-.2-.6-.18-.89,0,.27.21.63.21.89,0Z"></path>
        <path class="cls-186" d="M10.49,31.71c-.12-.04-.09.12-.1.16-.47.24-.95-.05-1.34-.03l-.02-3.55c-.45-.25-.82-.49-1.22-.65.38-.38,1.12-.63,1.64-.8.27-.09.9.26.94.55.19,1.5.02,2.91.1,4.33ZM9.77,28.98c.26-.06.17-.5.02-.49-.22.01-.17.53-.02.49ZM9.89,30.22c.03-.33.04-.42,0-.62-.16.08-.24.18-.23.32s.08.26.23.31Z"></path>
        <path class="cls-115" d="M3.54,31.69c.67.38-2.42.27-1.99.13l.03-3c.67-.05,1.24-.04,1.94,0,.09.99.05,1.94.03,2.88Z"></path>
        <path class="cls-66" d="M5.13,31.84c-.22.09-.62.17-.86,0l.05-6.69c.17-.26.5-.3.68-.45.14-.03.14.1.14.24v6.91Z"></path>
        <path class="cls-45" d="M9.06,31.84c-.42.03-.95.2-1.36,0l.12-4.2c.4.16.77.4,1.22.65l.02,3.55Z"></path>
        <path class="cls-19" d="M6.52,25.24c-.03.23-.58.21-.58.02,0-.24.6-.2.58-.02Z"></path>
        <path class="cls-214" d="M6.53,26.83c.09.2-.55.27-.6.03-.03-.18.49-.29.6-.03Z"></path>
        <path class="cls-47" d="M6.66,27.63c-.26.22-.62.21-.89,0,.29-.19.53-.2.89,0Z"></path>
        <path class="cls-103" d="M6.6,26.15c-.29.02-.47.02-.76,0,.08-.19.19-.23.32-.24.19,0,.34,0,.44.24Z"></path>
        <path class="cls-209" d="M9.77,28.98c-.15.04-.21-.48.02-.49.16,0,.24.43-.02.49Z"></path>
        <path class="cls-5" d="M9.89,30.22c-.16-.04-.23-.18-.23-.31s.07-.24.23-.32c.04.2.03.29,0,.62Z"></path>
      </g>
      <path class="cls-83" d="M9.79,21.51c.27-.54.27,1.56-.02,1.19-.07-.39-.14-.87.02-1.19Z"></path>
      <path class="cls-16" d="M50.23,35.79c1.52,1.14,3.33,1.9,5.03,2.96.2.12.38.19.52.2-.12.08-.33.28-.48.34.05-.1-.06-.13-.13-.1l-5.51-3.19c.06-.04.07-.08,0-.12l.57-.08Z"></path>
      <g>
        <g>
          <path class="cls-48" d="M18.17,19.43l.1,4.2c.43.09.87.05,1.29,0,.13-.34-.11-.72.2-.92.49-.03.99,0,1.48,0h4.41c.04.54.15,2.71-.1,3.07l-6.66-.03-1.77,1.64h6.57s.07,5.72.07,5.72c-.66.24-1.85-.3-1.84.54l.04,2.11c-.4.18-.93.08-1.37.12-.17.02-.39-.11-.58-.1-.23-.17-.11-.53-.15-.79-.02-.12,0-.25,0-.37,0-.31.04-.63.01-.94-.03-.51.18-1.18-.07-1.68-.21-.42-.74-.58-1.24-.86-.1,1.1-.04,2.11-.02,3.14.03.09-.05.09-.09.14-.07.09-.13,0-.17,0-.22.08-.66-.12-.87.05-.05-.07-.09-.06-.13.01-.4-.04-.16-.59-.27-.8-1.94-1.57-1.16-3.06-1.44-3.51.08.13-2.43-.88-2.45-3.17l-.05-7.49c0-.16.24-.2.27-.23-.06.1.03.11.14.12l4.69.02ZM14,20.45c-.13.31-.11.64.14.66.15,0,.41.05.49-.12.07-.15.08-.5-.05-.59-.11-.08-.51-.13-.59.05ZM15.24,20.46c-.13.33-.04.62.14.62.21,0,.46.04.51-.1.07-.21.1-.55-.05-.61-.16-.07-.52-.11-.6.08ZM16.48,20.46c-.15.36-.02.61.14.62.24.01.5.09.54-.07.06-.23.09-.57-.07-.64s-.52-.11-.6.08ZM14.02,21.81c-.23.26-.09.67.09.7.13.03.4.06.51-.08.1-.13.08-.5-.03-.61-.09-.1-.43-.16-.57,0ZM15.34,21.78c-.2.09-.19.46-.13.61.09.2.45.17.64.08.15-.08.11-.44.02-.6-.08-.14-.34-.17-.53-.09ZM16.59,21.8c-.19.08-.23.44-.13.61.09.15.49.15.63.06.15-.1.13-.49.06-.64s-.43-.08-.56-.03ZM15.27,23.28c-.18.29-.11.66.09.7.13.02.49.06.54-.12.05-.16.09-.51-.07-.63-.11-.08-.48-.1-.57.05ZM16.5,23.28c-.18.29-.12.67.1.7.15.02.48.04.55-.11s.09-.54-.08-.65c-.12-.07-.47-.11-.57.05ZM24.5,23.71c-1.27-.23-2.41-.21-3.64-.01,1.26.21,2.41.19,3.64.01ZM24.3,24.77c.12,0,.16-.1.16-.15s-.05-.18-.16-.18h-3.21c-.1,0-.14.14-.14.18s.03.15.15.15h3.21ZM14.02,24.76c-.14.3-.14.63.12.64.14,0,.41.03.49-.11s.1-.5-.03-.59c-.12-.08-.49-.11-.57.06ZM16.49,24.76c-.15.31-.04.63.13.63.21,0,.48.05.53-.07.07-.18.1-.59-.06-.64s-.51-.11-.6.08ZM18.67,28.43c-.08-.18-.67-.15-.72.03-.08.26-.12.63.06.71.15.07.48.06.63-.02.14-.08.15-.45.04-.72ZM20.07,28.47c-.08-.2-.7-.21-.77-.01-.09.24-.06.61.08.7.13.09.45.07.61,0s.18-.45.08-.7ZM20.81,29.17c.28.11.67.07.67-.11,0-.22.06-.46-.02-.61-.08-.16-.42-.15-.65-.07-.2.07-.21.71,0,.79ZM22.82,29.12c.12-.17.1-.67-.08-.75-.23-.09-.59-.09-.65.09-.04.11,0,.3,0,.57.02.23.58.27.72.09ZM22.83,30.6c.07-.19.09-.61-.04-.69-.18-.12-.54-.1-.65,0-.12.11-.11.52-.03.68s.65.18.72,0Z"></path>
          <path class="cls-66" d="M28.6,7.43s.19.03.19.08l.04,8.45c-.19.06-.66.19-.84-.01l-.06-6.29c0-.32-.56-.81-.86-.86-1.08-.2-2.95.27-2.95-.47,0-.78-.14-1.6.08-2.31.08-.25.44-.35.33-.71-.08-.26-.21-.51-.55-.54s-.53.2-.64.42c-.21.4.24.56.33.81.3.86-.05,1.81.18,2.72-.61-.02-1.77.27-1.68-.52.07-.64-.14-1.32.09-1.91.1-.27.52-.44.32-.85-.09-.19-.27-.43-.67-.4-.23.02-.43.22-.52.51-.1.32.2.54.37.75.35.82-.5,2.76.94,2.77l4.29.03c.29,0,.47.45.67.59v6.29c-.31.21-.61.37-1,.48,0-.55-.14-1.11.03-1.57.2-.18.38-.34.44-.59.08-.37-.33-.49-.4-.74-.41-1.58.49-3.6-.87-3.69s-2.67.09-4.04-.08c-.27-.03-.41-.57-.79-.41-.25.1-.55.26-.52.71.01.23.21.41.5.56.34.17.53-.37.8-.4,1.38-.16,2.72-.01,4.08-.05.24,0,.43.26.41.46-.08.98.15,1.97-.1,2.89-.06.23-.43.37-.45.61-.05.7.82,0,.52,2.66l-.5.51c-.09.09-.21.11-.23.18-.03.13-.08.33.04.45.29-.49.5-.41.79-.32-.41.04-.73.24-.75.72-.02.38.26.67.62.91-.05.16.08.29.14.53-.71.14-1.4.08-2.09.07v-6.64s1.71-1.62,1.71-1.62c-1.55-.12-2.93-.06-4.31-.03-.19,0-.39.02-.57,0-.47-.06-.94,0-1.41-.04l-.1-4.42c-.04-1.71.98-3.2,2.46-3.95l3.65.03.09,4.18,2.78.05Z"></path>
          <path class="cls-156" d="M34.71,29.96l.04,2.33c.02.95-.05,1.91,0,2.86.02.31.04.87-.1,1.22l-1.89,2.32-5.02.02c-.32,0-.54-.13-.77-.17l.02-5.34-2.59-.05c.06-.5-.21-1.2.05-1.62l8.33.03c.7-.58,1.25-1.17,1.93-1.61ZM28.29,32.75c-.16.25-.1.68.05.72.17.05.54.1.63-.04.09-.15.11-.56.01-.69s-.57-.19-.69,0ZM29.78,33.5c.3.08.64.01.65-.15,0-.22.11-.61-.07-.67-.15-.05-.48-.1-.63.05s-.14.72.06.77ZM31.12,32.74c-.18.32-.08.73.12.75s.54.08.62-.08c.09-.19.12-.62-.04-.71-.14-.08-.6-.13-.69.04ZM28.29,34.24c-.18.28-.13.73.1.77.15.03.52.08.62-.1.08-.16.08-.56-.05-.69-.11-.11-.57-.12-.67.02ZM29.74,34.96c.32.13.73.12.71-.14-.01-.19.06-.52-.12-.61-.12-.06-.47-.08-.6,0-.16.11-.18.66,0,.74ZM31.19,34.21c-.2.07-.2.54-.12.7.09.18.57.16.74.07s.13-.55.04-.71-.46-.14-.66-.07ZM28.28,35.83c-.16.27-.09.66.11.7.16.03.51.06.61-.14.07-.14.07-.45-.04-.58s-.56-.16-.67.02ZM30.37,35.82c-.1-.17-.66-.17-.7,0-.07.25-.08.61.05.68.16.09.47.09.6.02.16-.09.21-.43.05-.71ZM31.83,35.82c-.1-.18-.71-.16-.76.04-.07.25-.06.57.11.67.14.08.44.09.61,0,.14-.07.19-.44.04-.71Z"></path>
          <path class="cls-145" d="M27.11,21.78c.09,2.02.08,4.05.02,6.07-.16.1-.98,0-.95.22,0,.05.09.17.19.17l.75.03c.03.65.06,1.3.02,1.94-.32.32-.84-.03-1.26.17-.54.26-1.13.69-1.43,1.17-.27.43,0,1.12-.05,1.62l2.59.05-.02,5.34c-1.1-.16-1.97-.96-2.47-1.95-.05-.11-.06-.24-.13-.34s.06-.19-.04-.28c.66-.01,1.36-.26,2.11-.13.04-.79.05-1.39,0-2.17l-3.86-.02c-.09.76-.06,1.44-.02,2.11-.18.09-.46.14-.6,0l-.04-2.11c-.02-.84,1.18-.3,1.84-.54l-.07-5.72c.65-.55,1.4-.97,1.86-1.61.25-.36.14-2.53.1-3.08.3-.15,1.28-1.05,1.46-.92Z"></path>
          <path class="cls-26" d="M34.71,8.48c-.77-.35-1.37-1.01-2.06-1.5-.22-.08-.62.16-.75-.13-.09-.45.24-1.48-.39-1.73.03-.12.04-.22-.04-.23-.15-.02-.33.05-.41-.02-.2-.2-.08-.5-.15-.71.34-.03.86.07,1.08-.3.23-.39,0-.88.16-1.28.08-.21.21-.36.07-.51s-.31-.21-.49-.08-.09.35.01.59c.11.27-.03.71.03.94-.21.02-.6.28-.77.07l-.08-3.55c1.81-.03,3.75.93,3.76,2.89l.02,5.56Z"></path>
          <path class="cls-178" d="M30.93.03l.08,3.55c.17.21.56-.05.77-.07.12.48-1.68.28-2.01.23-.4-1.3.53-.79.33-1.62-.06-.26-.26-.49-.68-.46-.22.02-.4.15-.52.44-.15.34.2.52.34.82.28.59.04,1.38.13,2.08-.49.11-.83.01-1.27.07-.82.1-.35,1.39-.54,1.97-.48.03-.9.04-1.4-.02l-.08-4.23c0-.19.15-.43.06-.61.57-1.09,1.53-2.1,2.82-2.12l1.97-.04Z"></path>
          <path class="cls-48" d="M14.95,13.13h4.69s0,5.04,0,5.04c-.1-.05-.15.02-.14.1-1.52-.15-3.06-.02-4.66-.07-.16,0-.25-.03-.28-.15l-.03-4.67c0-.21.11-.26.2-.37.07.1.12.12.23.12ZM15.6,14.06c-.12.3-.04.6.15.63.17.02.46.05.5-.09.05-.21.09-.53-.04-.61s-.53-.13-.61.07ZM16.86,14.05c-.11.33-.04.63.13.64.22.01.49.05.54-.08.07-.21.09-.56-.06-.62s-.54-.13-.6.07ZM18.17,14.04c-.16.33-.08.65.16.65.13,0,.45.07.49-.1s.09-.51-.04-.6c-.11-.08-.53-.13-.61.05ZM15.61,15.41c-.13.31-.1.64.13.64.17,0,.44.07.51-.09.08-.18.09-.54-.05-.62s-.51-.13-.59.06ZM16.87,15.41c-.14.3-.07.63.11.65s.49.05.54-.08c.07-.18.1-.57-.07-.64-.14-.06-.5-.11-.58.07ZM18.17,15.41c-.16.29-.06.65.14.66.14,0,.43.06.51-.11.06-.14.06-.48-.06-.58-.12-.09-.48-.15-.59.04ZM15.61,16.75c-.15.31-.09.64.13.67.14.02.42.06.49-.11.06-.14.09-.51-.04-.6-.11-.08-.51-.13-.59.04ZM16.87,16.76c-.12.32-.06.63.12.65.21.02.49.08.54-.07.07-.22.08-.56-.06-.64s-.53-.12-.6.06Z"></path>
          <path class="cls-181" d="M34.71,8.48l.04,3.41-.03,3.55c-.09-.01-.16.04-.22.02.07-.17.11-.49-.06-.54-.61.28-1.14.81-1.77.91l-.02-8.86c.69.5,1.29,1.15,2.06,1.5Z"></path>
          <path class="cls-224" d="M19.62,7.12l.1,4.42c-.25-.02-.64.12-.86-.05-.19-.16-.16-.72.12-.75.17-.02.36.04.42-.09.03-.07.02-.12-.03-.16-.12-.1-.74-.13-.88.08-.15.23.06.81-.19.95-.14.08-.31.03-.4-.06.03.03-.39-1,.35-1.76.3-.31.58-.57,1.12-.63-.6-.79-1.79.87-1.79.9l-.14,1.47c-.03.27-.9.14-1.12-.02-.18-2.14,1.15-4.05,3.3-4.29Z"></path>
          <path class="cls-92" d="M19.72,11.53c.47.03.94-.02,1.41.04.33.02-1.4,1.44-1.43,1.45l-4.72-.02s-.04.11-.03.12c-.11,0-.16-.02-.23-.12.41-.51,1.63-1.33,1.61-1.6.22.16,1.1.29,1.12.02l.14-1.47s1.19-1.69,1.79-.9c-.55.07-.82.32-1.12.63-.74.76-.32,1.79-.35,1.76.08.09.26.14.4.06.25-.15.04-.72.19-.95.14-.21.75-.19.88-.08.05.04.07.09.03.16-.06.13-.26.08-.42.09-.28.03-.31.6-.12.75.22.17.61.03.86.05Z"></path>
          <path class="cls-44" d="M31.78,3.52c-.06-.23.08-.67-.03-.94-.1-.25-.2-.46-.01-.59s.35-.07.49.08.01.3-.07.51c-.16.4.07.89-.16,1.28s-.74.27-1.08.3-.8-.16-1.16.05c-.16.15-.06.55-.04.82l1.8.09c.62.25.3,1.28.39,1.73-.08-.06-.13.08-.17.1-.06.02-.12-.09-.17-.07.03-.45.05-.91-.05-1.46h-3.47c-.2.52-.21,1.12-.07,1.58.1.12.47.1.62.09.02,0,.12.03.17.04s.03.13,0,.2c-.02.05-.16-.02-.16.11l-2.78-.05-.09-4.18-3.65-.03c-.06-.13.11-.12.16-.17l3.62.07s.03-.35.09-.29c.03.03.08.01.13.01l.08,4.23c.5.06.92.04,1.4.02.18-.58-.28-1.86.54-1.97.44-.06.78.04,1.27-.07-.09-.7.14-1.49-.13-2.08-.14-.3-.49-.48-.34-.82.12-.28.3-.42.52-.44.42-.04.62.2.68.46.19.83-.73.33-.33,1.62.34.04,2.14.25,2.01-.23ZM29.37,1.98c-.18.1-.2.3-.1.44.1.12.27.17.43.06.13-.09.14-.28.03-.41-.08-.1-.22-.17-.37-.09Z"></path>
          <path class="cls-203" d="M19.49,18.26c-.28.53-.87.8-1.32,1.17l-4.69-.02c-.11,0-.19-.02-.14-.12l1.21-1.25c.03.12.12.14.28.15,1.6.05,3.14-.08,4.66.07Z"></path>
          <path class="cls-155" d="M26.14,2.19c.09.18-.06.42-.06.61-.05,0-.1.02-.13-.01-.05-.06-.05.29-.09.29l-3.62-.07c1.12-1.08,2.48-.81,3.9-.82Z"></path>
          <path class="cls-53" d="M25.55,25.79c-.46.64-1.22,1.07-1.86,1.61h-6.57s1.77-1.64,1.77-1.64l6.66.03Z"></path>
          <path class="cls-30" d="M24.3,21.5l2.6.04c.17,0,.2.15.21.24-.18-.12-1.15.78-1.46.92h-4.41c.33-.48-1.34-.03-1.2-.37.01-.03.06-.06.06-.11l.97-.66,3.22-.07Z"></path>
          <path class="cls-191" d="M19.76,22.71c-.31.2-.08.58-.2.92-.43.06-.86.09-1.29,0l-.1-4.2c.45-.37,1.05-.64,1.32-1.17,0-.09.05-.15.14-.1,0,1.52-.08,3.06.13,4.55Z"></path>
          <path class="cls-225" d="M21.7,11.58c-.06.43-1.39,1.14-1.36,1.55-.11,0-.35.12-.34.37.09,2.96-.13,5.87.11,8.72,0,.05-.05.08-.06.11-.15.34,1.52-.12,1.2.38-.49,0-.99-.03-1.48,0-.21-1.49-.13-3.03-.13-4.55v-5.02s-4.69-.01-4.69-.01c0,0,0-.12.03-.12l4.72.02s1.76-1.42,1.43-1.45c.18.02.38,0,.57,0Z"></path>
          <path class="cls-131" d="M19.88,33.68c-.46.18-.82.56-1.33.6-.02-1.03-.08-2.04.02-3.14.5.28,1.04.44,1.24.86.25.51.03,1.17.07,1.68Z"></path>
          <path class="cls-119" d="M24.3,24.77h-3.21c-.12,0-.15-.1-.15-.15s.04-.18.14-.18h3.21c.11,0,.16.13.16.18s-.04.15-.16.15Z"></path>
          <path class="cls-176" d="M24.5,23.71c-1.23.18-2.38.2-3.64-.01,1.23-.2,2.37-.22,3.64.01Z"></path>
          <path class="cls-195" d="M20.07,28.47c.1.25.08.64-.08.7s-.48.08-.61,0c-.15-.1-.18-.46-.08-.7.08-.2.7-.19.77.01Z"></path>
          <path class="cls-172" d="M18.67,28.43c.12.27.1.65-.04.72-.15.08-.48.09-.63.02-.18-.08-.14-.45-.06-.71.06-.18.65-.21.72-.03Z"></path>
          <path class="cls-58" d="M22.83,30.6c-.07.18-.64.16-.72,0s-.09-.58.03-.68.47-.12.65,0c.13.08.11.5.04.69Z"></path>
          <path class="cls-33" d="M22.82,29.12c-.14.19-.7.15-.72-.09-.02-.27-.05-.46,0-.57.06-.18.42-.18.65-.09.18.07.2.58.08.75Z"></path>
          <path class="cls-140" d="M20.81,29.17c-.2-.08-.19-.72,0-.79.22-.08.57-.09.65.07.08.15.02.39.02.61,0,.18-.4.23-.67.11Z"></path>
          <path class="cls-204" d="M15.27,23.28c.09-.15.46-.13.57-.05.16.12.12.47.07.63-.06.17-.41.14-.54.12-.2-.04-.28-.41-.09-.7Z"></path>
          <path class="cls-113" d="M16.5,23.28c.1-.16.46-.12.57-.05.17.1.15.49.08.65s-.41.12-.55.11c-.22-.03-.28-.41-.1-.7Z"></path>
          <path class="cls-202" d="M14,20.45c.08-.18.48-.13.59-.05.13.09.12.45.05.59-.08.17-.34.13-.49.12-.25-.02-.28-.35-.14-.66Z"></path>
          <path class="cls-85" d="M16.48,20.46c.08-.19.44-.15.6-.08s.13.41.07.64c-.04.16-.3.08-.54.07-.16,0-.29-.26-.14-.62Z"></path>
          <path class="cls-215" d="M14.02,21.81c.14-.16.48-.09.57,0,.11.12.13.49.03.61-.11.14-.38.11-.51.08-.18-.04-.32-.44-.09-.7Z"></path>
          <path class="cls-148" d="M16.59,21.8c.13-.06.49-.13.56.03s.09.54-.06.64c-.14.09-.54.1-.63-.06-.1-.17-.06-.53.13-.61Z"></path>
          <path class="cls-38" d="M14.02,24.76c.08-.17.45-.14.57-.06.13.08.11.45.03.59s-.35.11-.49.11c-.26,0-.26-.34-.12-.64Z"></path>
          <path class="cls-93" d="M16.49,24.76c.09-.19.45-.14.6-.08s.13.46.06.64c-.05.13-.32.07-.53.07-.17,0-.27-.32-.13-.63Z"></path>
          <path class="cls-229" d="M15.24,20.46c.08-.2.43-.16.6-.08.14.06.12.4.05.61-.05.14-.29.11-.51.1-.18,0-.28-.29-.14-.62Z"></path>
          <path class="cls-58" d="M15.34,21.78c.19-.08.45-.06.53.09.09.15.12.52-.02.6-.18.1-.55.12-.64-.08-.06-.15-.08-.52.13-.61Z"></path>
          <path class="cls-65" d="M20.33,13.13l2.37.03.04,3.78c0,.12.1.15.15.15.05,0,.18-.04.18-.16l.02-3.75c.43-.03.85-.09,1.2.06v6.64s0,.1,0,.15c-.31,0-.87.2-1.11-.12-.22-.29-.03-.78-.11-1.11-.12-.52-.71-.73-.91-1.16-.23-.49.01-1.13-.11-1.68-.21-.95-.44.92-.22,1.75.11.42.58.64.83,1s-.19,1.66.66,1.68c.35,0,.67.06.97.05l.02,1.06-3.22.07-.97.66c-.24-2.85-.02-5.76-.11-8.72,0-.25.23-.37.34-.37ZM21.84,19.09l-.72-.58-.05-4.48c0-.09-.2-.17-.21-.1,0,.03-.09.08-.09.18l.03,4.56c1.46.99.52.83,1.07,1.79.12-.43.32-1.09-.03-1.37Z"></path>
          <path class="cls-169" d="M31.56,6.87s.11.1.17.07c.04-.02.09-.16.17-.1.13.29.53.05.75.13l.02,8.86c.52.35-3.99.24-3.83.13l-.04-8.45s-.21-.04-.19-.08c0-.14.14-.07.16-.11.02-.07.05-.19,0-.2s-.15-.03-.17-.04l2.97-.21ZM29.88,9.14c.38.12.68.03.66-.24-.02-.15.07-.47-.15-.51-.19-.03-.58-.08-.61.12s-.1.57.1.63ZM31.15,8.43c-.19.09-.16.5-.08.65.07.14.43.14.59.06s.13-.4.1-.62c-.02-.16-.35-.21-.61-.09ZM29.85,10.01c-.17.3-.08.61.16.62.15,0,.42.06.48-.09.07-.18.1-.5-.03-.59-.12-.08-.51-.13-.61.06ZM31.1,10.01c-.14.3-.03.57.15.6s.43.03.47-.09c.08-.2.11-.51-.03-.58-.12-.07-.51-.11-.6.07ZM29.81,11.47c-.12.31-.08.61.09.64.23.04.54.07.6-.1.07-.18.1-.5-.02-.58-.15-.1-.59-.14-.66.04ZM31.1,11.46c-.16.32-.11.65.14.67.15.01.43.04.5-.12.07-.15.09-.51-.04-.6-.11-.08-.51-.13-.6.05ZM29.9,13.58c.3.04.62.06.63-.14.01-.14.04-.42-.05-.54-.07-.1-.33-.1-.59-.06-.22.03-.22.71,0,.74ZM31.1,12.97c-.14.28-.03.58.14.61.18.03.44.06.49-.09.07-.2.08-.51-.05-.59s-.48-.12-.58.07Z"></path>
          <path class="cls-161" d="M24.3,20.02l3.57.04c.28,0,.53.05.67.2.15.17.2.35.2.61l.04,2.98c.83.32.3.8,1.66.56.07-.84.08-1.61,0-2.43-.35-.18-.58-.44-.57-.81,0-.31.28-.6.59-.76v-1.8s-3.22.01-3.22.01c-.21.41-.56.64-.97.64-.36-.24-.63-.53-.62-.91.02-.48.34-.69.75-.72.3.09.64.17.84.6l5.18.02c.16,0,.28-.07.36-.12l1.88-1.42c.11.13.13.36,0,.46l-1.97,1.45c-.57-.08-1.08-.05-1.82-.03-.33,2.86.69,1.38.61,2.71-.02.3-.42.41-.54.69-.3.74,0,1.59-.12,2.42.74-.03,1.31.1,1.87-.15.74-.33,1.27-.99,1.96-1.42.11.11.09.28.08.44l-2.07,1.49c-.34-.05-.66-.06-1.1,0,.09.42-.09.89.09,1.26.26.17.77.1,1.02-.01.29.5,1.54-1.16,1.97-1.13.19.03.09.24.09.36-.66.21-1.22,1.18-2.06,1.24-.3.02-.62-.13-1.01,0-.35.82-.91,1.53-1.34,2.36-.24.46-.08,1.03-.09,1.46,0,.18-.02.48-.2.54-.23.08-.34-.15-.29-.3.02-.08.12-.12-.02-.22.21-.45.07-.94.1-1.47-.31-.01-.79-.13-1.01.06-.19.44-.05.97-.05,1.39,0,.13,0,.41-.15.49-.15.07-.33-.08-.32-.18.01-.1-.02-.19-.03-.29.33-.06-.02-1.32.27-1.66.3-.36,1.22-.02,1.62-.25,1.19-2.13,1.11-1.01,1.08-3.65-.61.02-1.22-.27-1.64.05l-.81.61c-.11.4.12.91-.05,1.3-.39.61-.98,1.18-1.58,1.51l-.75-.03c-.11,0-.19-.12-.19-.17-.03-.22.79-.12.95-.22.76-.47,1.7-1.3,1.18-2.37-.15-.3-.5-.43-.54-.81-.04-.41.52-.63.58-.95.16-.97,0-1.9.07-2.85.01-.17-.1-.44-.29-.44-1.33-.03-2.58-.03-3.83,0-.3,0-.62-.05-.97-.05-.85-.02-.41-1.32-.66-1.68s-.72-.58-.83-1c-.22-.83,0-2.69.22-1.75.12.55-.12,1.19.11,1.68.2.43.79.64.91,1.16.08.34-.11.82.11,1.11.24.31.8.11,1.11.12Z"></path>
          <path class="cls-116" d="M28.84,15.96c-.15.11,4.35.22,3.83-.13.62-.1,1.16-.63,1.77-.91.17.06.14.38.06.54-.64.45-1.26,1.04-1.97,1.38l-6.24-.02c.3-2.66-.57-1.96-.52-2.66.02-.24.38-.39.45-.61.25-.92.01-1.91.1-2.89.02-.2-.18-.47-.41-.46-1.35.04-2.7-.11-4.08.05-.27.03-.46.58-.8.4-.29-.15-.48-.33-.5-.56-.03-.46.27-.61.52-.71.38-.15.52.38.79.41,1.37.16,2.72,0,4.04.08s.46,2.11.87,3.69c.07.25.48.37.4.74-.05.25-.24.41-.44.59-.17.46-.02,1.02-.03,1.57.39-.11.68-.26,1-.48v-6.29c-.2-.14-.38-.59-.67-.59l-4.29-.03c-1.44,0-.59-1.94-.94-2.77-.17-.21-.47-.44-.37-.75.09-.3.29-.5.52-.51.41-.03.58.21.67.4.2.41-.21.58-.32.85-.23.58-.02,1.27-.09,1.91-.09.79,1.07.49,1.68.52-.23-.91.13-1.86-.18-2.72-.09-.26-.54-.42-.33-.81.11-.21.32-.44.64-.42s.47.28.55.54c.11.35-.25.46-.33.71-.21.71-.07,1.53-.08,2.31s1.87.27,2.95.47c.3.06.86.55.86.86l.06,6.29c.18.2.65.08.84.01ZM23.7,5.22c-.14.23,0,.4.16.44.12.03.23-.03.3-.13.09-.13.05-.3-.08-.39-.09-.06-.28-.09-.38.08ZM21.89,5.4c-.22.1-.21.29-.1.45.08.12.23.2.4.05.09-.08.15-.26.06-.4-.06-.11-.21-.17-.37-.1ZM21.01,9.72c-.19.11-.22.31-.13.48.06.1.29.16.44.04.1-.07.15-.25.02-.39-.06-.07-.19-.21-.34-.13ZM26.41,13.92c-.24.02-.34.3-.25.48.05.1.22.18.36.14.17-.04.24-.18.23-.35s-.14-.28-.35-.26Z"></path>
          <path class="cls-136" d="M24.3,20.02c0-.05,0-.1,0-.15.69,0,1.38.07,2.09-.07-.06-.24-.19-.37-.14-.53.41,0,.76-.24.97-.64h3.23s0,1.79,0,1.79c-.31.16-.58.45-.59.76-.01.37.22.63.57.81.08.82.08,1.58,0,2.43-1.36.24-.83-.24-1.66-.56l-.04-2.98c0-.26-.05-.44-.2-.61-.13-.15-.39-.2-.67-.2l-3.57-.04Z"></path>
          <path class="cls-130" d="M32.53,16.85c.29.42-.02.96.23,1.3-.07.05-.2.12-.36.12l-5.18-.02c-.2-.43-.54-.51-.84-.6s-.5-.17-.79.32c-.11-.12-.07-.32-.04-.45.01-.07.14-.09.23-.18l.5-.51,6.24.02Z"></path>
          <path class="cls-59" d="M24.3,13.23c-.35-.14-.77-.09-1.2-.06l-.02,3.75c0,.12-.13.16-.18.16-.04,0-.14-.03-.15-.15l-.04-3.78-2.37-.03c-.02-.41,1.3-1.12,1.36-1.55,1.38-.04,2.77-.1,4.31.03l-1.72,1.62Z"></path>
          <path class="cls-67" d="M34.72,28.62c0,.4.06.81.03,1.21,0,.04-.04.09-.04.13-.68.44-1.23,1.03-1.93,1.61l-8.33-.03c.3-.48.89-.91,1.43-1.17.42-.2.94.15,1.26-.17.33.21.72.12,1.09.16.01.1.05.19.03.29-.01.11.17.25.32.18.16-.07.15-.36.15-.49h.97c.14.11.04.16.02.23-.04.15.07.38.29.3.17-.06.19-.36.2-.54l2.31-.02c.16,0,.21-.19.23-.23.39-.05,1.57-1.46,1.96-1.48Z"></path>
          <path class="cls-57" d="M31.83,35.82c.15.27.1.64-.04.71-.17.09-.47.09-.61,0-.17-.1-.18-.42-.11-.67.05-.2.66-.22.76-.04Z"></path>
          <path class="cls-233" d="M31.12,32.74c.09-.17.56-.12.69-.04.16.09.13.52.04.71-.07.16-.41.1-.62.08s-.3-.43-.12-.75Z"></path>
          <path class="cls-154" d="M30.37,35.82c.16.28.11.62-.05.71-.13.08-.45.07-.6-.02-.13-.07-.12-.43-.05-.68.05-.18.61-.18.7,0Z"></path>
          <path class="cls-60" d="M31.19,34.21c.2-.07.57-.09.66.07s.12.62-.04.71-.65.11-.74-.07c-.08-.16-.08-.64.12-.7Z"></path>
          <path class="cls-117" d="M28.29,34.24c.09-.14.55-.13.67-.02.13.13.13.53.05.69-.09.18-.46.13-.62.1-.22-.04-.27-.5-.1-.77Z"></path>
          <path class="cls-80" d="M29.74,34.96c-.18-.08-.17-.63,0-.74.13-.09.47-.07.6,0,.18.08.1.42.12.61.02.26-.39.28-.71.14Z"></path>
          <path class="cls-122" d="M29.78,33.5c-.2-.05-.21-.63-.06-.77s.49-.09.63-.05c.18.06.08.44.07.67,0,.16-.35.23-.65.15Z"></path>
          <path class="cls-37" d="M28.29,32.75c.12-.19.59-.13.69,0s.08.54-.01.69c-.09.14-.46.09-.63.04-.16-.05-.21-.47-.05-.72Z"></path>
          <path class="cls-84" d="M28.28,35.83c.11-.18.56-.15.67-.02s.11.44.04.58c-.1.2-.45.17-.61.14-.2-.04-.27-.43-.11-.7Z"></path>
          <path class="cls-17" d="M28.24,30.36c-.37-.04-.76.05-1.09-.16.05-.64,0-1.29-.02-1.94.6-.32,1.19-.9,1.58-1.51.17-.4-.06-.9.05-1.3l.81-.61c.42-.32,1.04-.03,1.64-.05.03,2.64.12,1.52-1.08,3.65-.41.23-1.32-.1-1.62.25s.07,1.61-.27,1.66Z"></path>
          <path class="cls-133" d="M27.13,27.85c.06-2.02.07-4.05-.02-6.07,0-.09-.04-.24-.21-.24l-2.6-.04-.02-1.06c1.25-.04,2.5-.03,3.83,0,.19,0,.3.27.29.44-.07.96.1,1.88-.07,2.85-.05.32-.62.54-.58.95.04.38.39.51.54.81.52,1.06-.42,1.9-1.18,2.37Z"></path>
          <path class="cls-210" d="M24.33,35.98c-.54.01-1.23-.17-1.78-.21-.04-.67-.07-1.35.02-2.11l3.86.02c.05.78.04,1.38,0,2.17-.75-.13-1.45.12-2.11.13Z"></path>
          <path class="cls-50" d="M30.92,4.15c.07.21-.05.51.15.71.08.07.27,0,.41.02.08,0,.07.11.04.23l-1.8-.09c-.02-.27-.12-.67.04-.82.36-.22.81-.02,1.16-.05Z"></path>
          <path class="cls-51" d="M16.87,15.41c.09-.19.45-.13.58-.07.17.07.14.46.07.64-.05.13-.35.1-.54.08s-.25-.35-.11-.65Z"></path>
          <path class="cls-81" d="M18.17,14.04c.08-.18.5-.13.61-.05.13.09.09.43.04.6s-.36.1-.49.1c-.24,0-.31-.33-.16-.65Z"></path>
          <path class="cls-118" d="M16.87,16.76c.07-.18.46-.14.6-.06s.12.42.06.64c-.04.15-.33.09-.54.07-.18-.02-.24-.33-.12-.65Z"></path>
          <path class="cls-12" d="M15.61,16.75c.08-.17.48-.12.59-.04.13.09.1.45.04.6-.07.17-.35.13-.49.11-.23-.03-.29-.35-.13-.67Z"></path>
          <path class="cls-211" d="M16.86,14.05c.06-.2.46-.13.6-.07s.13.41.06.62c-.04.13-.31.09-.54.08-.17,0-.23-.31-.13-.64Z"></path>
          <path class="cls-193" d="M15.61,15.41c.08-.19.45-.14.59-.06s.13.43.05.62c-.07.16-.34.09-.51.09-.23,0-.27-.34-.13-.64Z"></path>
          <path class="cls-34" d="M15.6,14.06c.08-.2.47-.15.61-.07s.1.4.04.61c-.04.14-.33.12-.5.09-.19-.03-.27-.33-.15-.63Z"></path>
          <path class="cls-147" d="M18.17,15.41c.11-.19.47-.13.59-.04.12.1.12.43.06.58-.08.17-.37.11-.51.11-.2,0-.3-.37-.14-.66Z"></path>
          <path class="cls-152" d="M34.64,22.87c-.69.43-1.22,1.09-1.96,1.42v-5.65s1.97-1.45,1.97-1.45c.14,1.82.14,3.87,0,5.68Z"></path>
          <path class="cls-106" d="M34.72,25.28v3.33c-.4.01-1.57,1.43-1.97,1.48-.12.02-.13-.11-.12-.24l.03-3.33c.84-.06,1.4-1.03,2.06-1.24Z"></path>
          <path class="cls-70" d="M34.72,23.32c-.02.54.1,1.1-.09,1.61-.43-.03-1.68,1.63-1.97,1.13v-1.25s2.06-1.49,2.06-1.49Z"></path>
          <path class="cls-187" d="M34.72,15.44c0,.41.1.91-.08,1.28l-1.88,1.42c-.26-.34.05-.88-.23-1.3.71-.34,1.33-.93,1.97-1.38.07.02.14-.04.22-.02Z"></path>
          <path class="cls-61" d="M31.56,6.87l-2.97.21c-.15.01-.51.04-.62-.09-.14-.46-.13-1.07.07-1.57h3.47c.09.53.08,1,.05,1.45Z"></path>
          <path class="cls-78" d="M29.37,1.98c.15-.09.28-.01.37.09.1.13.09.32-.03.41-.15.11-.33.07-.43-.06-.11-.14-.08-.34.1-.44Z"></path>
          <path class="cls-190" d="M21.84,19.09c.34.28.15.93.03,1.37-.55-.97.39-.8-1.07-1.79l-.03-4.56c0-.11.09-.15.09-.18.01-.07.21,0,.21.1l.05,4.48.72.58Z"></path>
          <path class="cls-184" d="M29.88,9.14c-.2-.06-.13-.44-.1-.63s.42-.15.61-.12c.23.03.14.36.15.51.03.27-.28.35-.66.24Z"></path>
          <path class="cls-167" d="M29.9,13.58c-.22-.03-.23-.7,0-.74.26-.04.52-.04.59.06.09.12.06.4.05.54-.02.2-.34.19-.63.14Z"></path>
          <path class="cls-197" d="M29.81,11.47c.07-.18.51-.14.66-.04.13.08.09.4.02.58-.06.17-.37.14-.6.1-.16-.02-.2-.33-.09-.64Z"></path>
          <path class="cls-150" d="M31.15,8.43c.26-.12.59-.07.61.09.03.22.06.54-.1.62s-.52.08-.59-.06c-.08-.15-.11-.56.08-.65Z"></path>
          <path class="cls-77" d="M31.1,11.46c.09-.18.49-.13.6-.05.13.09.11.46.04.6-.07.16-.36.13-.5.12-.25-.02-.29-.36-.14-.67Z"></path>
          <path class="cls-63" d="M29.85,10.01c.11-.19.5-.14.61-.06.13.09.1.41.03.59-.06.15-.33.1-.48.09-.24-.01-.33-.32-.16-.62Z"></path>
          <path class="cls-72" d="M31.1,12.97c.1-.19.44-.16.58-.07s.13.4.05.59c-.05.15-.31.12-.49.09s-.28-.33-.14-.61Z"></path>
          <path class="cls-213" d="M31.1,10.01c.09-.18.47-.14.6-.07.13.08.11.38.03.58-.05.12-.29.12-.47.09s-.29-.31-.15-.6Z"></path>
          <path class="cls-170" d="M32.67,18.64v5.65c-.56.25-1.12.12-1.86.15.13-.82-.17-1.68.12-2.42.11-.28.52-.39.54-.69.08-1.34-.94.14-.61-2.71.74-.03,1.25-.06,1.82.03Z"></path>
          <path class="cls-137" d="M32.66,26.52l-.03,3.33c0,.13,0,.26.12.24-.02.05-.07.23-.23.23l-2.31.02c.01-.44-.15-1.01.09-1.46.44-.83.99-1.55,1.34-2.36.4-.12.71.02,1.01,0Z"></path>
          <path class="cls-120" d="M29.71,30.36h-.97c0-.44-.14-.96.05-1.4.23-.19.7-.07,1.01-.06-.03.52.11,1.02-.1,1.47Z"></path>
          <path class="cls-188" d="M32.65,24.8v1.25c-.24.12-.75.18-1,.01-.19-.37,0-.84-.09-1.26.44-.06.76-.06,1.1,0Z"></path>
          <path class="cls-21" d="M26.41,13.92c.2-.01.34.1.35.26s-.07.31-.23.35c-.14.04-.31-.04-.36-.14-.09-.17.01-.46.25-.48Z"></path>
          <path class="cls-127" d="M21.89,5.4c.16-.07.31,0,.37.1.08.14.03.32-.06.4-.18.15-.32.07-.4-.05-.11-.17-.12-.36.1-.45Z"></path>
          <path class="cls-91" d="M21.01,9.72c.15-.08.28.06.34.13.13.15.07.32-.02.39-.16.12-.39.06-.44-.04-.09-.17-.06-.38.13-.48Z"></path>
          <path class="cls-13" d="M23.7,5.22c.1-.17.29-.14.38-.08.13.09.17.26.08.39-.07.1-.18.16-.3.13-.15-.04-.3-.21-.16-.44Z"></path>
        </g>
        <g>
          <path class="cls-75" d="M48.16,3.17c1.53.7,2.44,2.26,2.45,3.95.01,1.46-.11,2.93,0,4.4l-1.49.06c-.22,0-.47.02-.69,0-.67-.04-1.35-.05-2.02,0-.19.01-.42.01-.57.04-.39-.11-1.04-.14-1.57.02.44.52.94.88,1.42,1.22l.26.39c-.2.07-.11.26-.12.49l-.05,4.63c-.45-.22-.64-.47-.94-.75l-.88-.79c-.16-2.96.41-1.63.54-2.54.06-.41-.42-.51-.48-.81-.18-.99-.03-1.99-.05-2.96,0-.25.41-.35.61-.34,1.33.06,2.63-.11,3.9.07.25.04.43.53.73.4s.5-.34.53-.56c.05-.42-.24-.56-.44-.68-.33-.2-.61.31-.83.35-1.3.24-2.67.02-4.01.1-1.47.09-.55,1.83-.93,3.7-.04.22-.41.36-.42.6-.04.78.75,0,.45,2.29-.41-.12-.65-.28-.98-.49l.03-6.29c.11-.22.5-.59.72-.59h4.08c.37,0,.83-.08.94-.53.18-.74-.11-1.58.13-2.27.09-.26.54-.39.39-.74-.11-.27-.28-.5-.54-.51-.39-.02-.56.19-.66.43-.16.37.18.55.31.84s.21,2.1-.07,2.34c-.18.16-1.07.1-1.51.05.19-.66-.15-2.18.17-2.69.19-.3.59-.51.27-.99-.15-.22-.56-.38-.89-.11-.36.3-.24.65.05,1.07.38.54.11,1.44.15,2.09.07,1.15-1.59.48-3.01.73-.35.06-.61.53-.86.79l-.02,6.35c-.2.19-.6.09-.78.02l.14-8.52,2.85-.08.04-4.19h3.65Z"></path>
          <path class="cls-189" d="M57.11,19.36c.15,2.48.07,4.97.05,7.53,0,1.2-.67,2.3-1.62,2.83.01-.02,0-.06-.07-.11-.18.19-.49.39-.8.29l-.06-3.34c-.76,0-1.5-.1-2.16.08-.28-.29-.74-.39-1.04-.88l-6.72.02c-.28-.99-.09-2.05-.11-3.07l6.03-.07c0,.28.17.58.06.98.45.1.84.07,1.29.05l.1-4.25,2.54.03c.01,1.06.21,2.11-.08,3.14-1.77,2.32-1.76.85-3.91,1.54l4.78.09c.03.79.11,1.56-.02,2.3-.04.21-.25.39.01.58.13.09.33.12.52-.06.17-.16-.06-.33-.1-.55-.37-2.35.29-2.61.29-2.78v-3.08c-.01-.1-.11-.2-.16-.2s-.15.1-.15.2l-.08,3.25c-.63.07-1.23.07-1.85-.02l1.06-1.25c0-1.06-.07-2.08.04-3.15l2.13-.09ZM53.12,20.44c-.16.32-.1.65.14.66.17.01.42.06.51-.11s.1-.51-.06-.6c-.12-.07-.49-.14-.59.05ZM53.11,21.84c-.16.25-.09.65.13.67.14.02.46.07.56-.12.08-.15.07-.5-.1-.59-.12-.06-.48-.13-.58.03ZM45.62,23.64c-.18.29-.1.68.12.68.16,0,.52.08.6-.11.06-.14.09-.48-.03-.59-.13-.11-.59-.15-.69.02ZM47.93,23.65c-.12-.2-.7-.17-.75.04-.07.29.04.55.18.6.17.06.41.06.55-.02.12-.08.16-.39.02-.62ZM48.93,23.66c-.2.29-.11.69.14.66.15-.02.45.07.54-.1.08-.14.1-.55-.07-.62-.13-.06-.49-.11-.61.07ZM50.63,25.13c1.18.42,2.27-.02,3.32.23.22.05.39.2.54.02.17-.21.09-.4-.03-.53-.19-.19-.34.01-.53.06-1.08.26-2.19-.17-3.3.22Z"></path>
          <path class="cls-156" d="M45.66,31.55c.39-.24.22,1.47.17,1.61l-2.55.04v5.36c-.11.02-.24.13-.42.13h-5.34s-1.88-2.26-1.88-2.26c-.15-.22-.16-.7-.15-.93.08-2.02-.06-3.73.1-5.53l1.91,1.59h8.16ZM39.23,33.41l-.06-.73c-.31-.05-.53-.05-.78,0-.05.27-.04.49,0,.77.28.09.57.1.83-.06ZM39.85,33.39c.07.18.53.18.67.07.16-.12.12-.51.05-.68-.07-.15-.49-.2-.67-.07-.14.09-.11.5-.05.68ZM41.33,33.48c.3.07.69.07.69-.12,0-.24.09-.59-.1-.67-.13-.05-.48-.1-.64.04-.15.13-.15.71.05.75ZM39.17,35.01c.05-.3.05-.53-.01-.79-.26-.07-.5-.06-.78,0-.04.28-.06.52,0,.78.25.05.47.05.79,0ZM40.6,34.98c.01-.35.1-.64-.07-.76-.13-.09-.48-.09-.61,0-.15.09-.15.46-.05.71.08.21.54.12.74.05ZM41.32,34.98c.31.13.73.11.73-.14,0-.2.06-.56-.1-.63-.17-.08-.5-.09-.65.02-.16.12-.17.66.03.75ZM41.28,35.83c-.15.2-.14.64.03.69.22.06.51.1.62,0,.15-.15.2-.58.07-.7s-.57-.17-.71.02Z"></path>
          <path class="cls-111" d="M44.59,22.71c.02,1.02-.17,2.09.11,3.07.44.65,1.24,1.05,1.87,1.63l-.05,5.7c.33.23,1.84-.22,1.81.43-.04.79.07,1.52-.04,2.24-.11.13-.33.07-.51.08l-.12-2.18h-3.81c-.1.74-.07,1.46,0,2.14.72.15,1.45-.09,2.07.17-.08.08-.02.18-.04.29-.03.17-.11.31-.19.46-.49.94-1.37,1.67-2.42,1.84v-5.36s2.57-.04,2.57-.04c.05-.14.22-1.85-.17-1.61-.03-.44-.53-.63-.85-.94-.61-.61-1.36-.01-1.69-.4-.07-.64,0-1.3,0-1.94.03,0,1.26,0,.91-.26-.31-.22-.66-.01-.91-.16-.01-2.04-.08-4.08.03-6.11.03.04.14-.04.21,0,.41.39.81.69,1.22.98Z"></path>
          <path class="cls-23" d="M39.3.09l-.02,3.51c-.32.16-.55-.01-.81-.09.06-.31-.07-.68.06-1,.08-.2.18-.4.04-.52-.21-.18-.43-.11-.55.06-.17.23.15.19.14,1.35s1.47.48,2.32.8c.2.07.18.79-.03.83-.52.1-1.06,0-1.53.06-.9.12-.42,1.25-.58,1.79-.24.16-.51.12-.76.23-.75.35-1.3,1.01-2.01,1.44.08-1.87-.08-3.75.02-5.66s1.98-3.13,3.73-2.8Z"></path>
          <path class="cls-199" d="M49.11,11.57c-.08.22.16.28.31.42l1.19,1.15v5.05s4.55.02,4.55.02c.26,0,.43-.01.59-.16,0,.34,1.15.95,1.36,1.31l-2.13.09c-.11,1.07-.04,2.1-.04,3.15l-1.06,1.25c.62.09,1.22.1,1.85.02l.08-3.25c0-.1.11-.2.15-.2s.15.1.15.2v3.08c.01.17-.65.43-.28,2.78.04.23.27.39.1.55-.19.18-.39.15-.52.06-.27-.19-.05-.37-.01-.58.12-.74.04-1.51.02-2.3l-4.78-.09c2.14-.69,2.13.79,3.91-1.54.29-1.03.09-2.07.08-3.14l-2.54-.03-1.42-1.05c-.13,1.46-.01,2.87-.04,4.27l-6.03.07c-.41-.29-.81-.58-1.22-.98-.07-.03-.19.05-.21,0,0-.06.02-.15.09-.16-.07,0,3.09-.08,2.72-.1l3.29.11.99.63.02-8.48c0-.24-.03-.42-.14-.55-.12-.13-.29-.07-.48-.07h-1.98c-.37-.27,2.17,0,2.14-.2l-1.38-1.35c.22.01.47,0,.69,0Z"></path>
          <path class="cls-134" d="M55.63,13.11s.09.11.09.17l.03,4.77c-.15.15-.33.16-.59.16l-4.54-.02v-5.05s5.01-.03,5.01-.03ZM52.75,14.04c-.14.33-.03.63.14.65.2.02.47.06.51-.06.07-.21.1-.58-.04-.65s-.53-.12-.61.06ZM54.02,14.05c-.11.32-.05.62.11.64.22.02.5.05.54-.07.07-.2.09-.56-.06-.63s-.52-.13-.59.07ZM52.76,15.39c-.16.33-.04.63.13.66s.49.09.53-.07c.05-.2.08-.55-.07-.64-.12-.07-.52-.11-.6.06ZM54.01,15.39c-.12.33-.05.65.11.67.2.03.49.04.53-.09.07-.19.1-.56-.06-.64-.12-.06-.52-.11-.58.05ZM54.89,16.91c-.24-.24-3.53-.27-3.54-.01-.02.29,3.25.26,3.54.01Z"></path>
          <path class="cls-178" d="M44.1,2.19c0,.25.06.62.06.88l-.08,3.96c-.5.06-.93.05-1.37,0-.18-.72.17-1.46-.27-1.84-.33-.28-1.06,0-1.54-.2.06-.65-.11-1.37.07-2.04.07-.27.52-.41.42-.72-.12-.35-.29-.56-.56-.56-.41,0-.62.23-.67.47-.2.81.76.4.35,1.64-.43.02-2.12.23-2.03-.25.26.07.49.25.81.09l.02-3.51c2.01-.29,3.85.11,4.8,2.1Z"></path>
          <path class="cls-228" d="M37.57,7.11l.02,8.71c-.5.03-1.6-.96-2.06-.97l-.02-5.04.06-1.25c.71-.43,1.26-1.1,2.01-1.44Z"></path>
          <path class="cls-205" d="M55.54,29.72l-.84.47c-.14,1.83-.02,2.24-1.49,3.57-.1.15.15.83-.26.64h-1.17c-.06,0-.13-.02-.07-.1.01-.09.02-.19.01-.28.14-.04.11.11.14.26h1.12c.02-.37.29-.74.27-1.1-.09-2,.07-3.93-.16-5.8-.19-.24-.41-.52-.63-.74.66-.18,1.4-.08,2.16-.08l.06,3.34c.31.1.62-.1.8-.29.06.06.08.09.07.11Z"></path>
          <path class="cls-71" d="M53.93,11.53c-.36.01-.77.07-1.17-.04l-.11-1.55c-.01-.16-1.31-1.63-1.75-.88.68.14,1.21.57,1.49,1.15,0,.02.11,1.11-.06,1.26-.12.11-.32.12-.4.04-.2-.2-.02-.76-.16-.96-.13-.18-.7-.15-.8-.14-.15.02-.12.12-.04.24.05.07.16.04.32.07.34.06.36.64.1.78s-.54,0-.75,0c-.1-1.46.02-2.93,0-4.4,2.28.26,3.5,2.19,3.32,4.41Z"></path>
          <path class="cls-64" d="M53.93,11.53c.44.46,1.35,1.12,1.7,1.58l-5.02.03-1.19-1.15c-.15-.14-.39-.2-.31-.42l1.49-.06c.21,0,.48.14.75,0s.24-.72-.1-.78c-.16-.03-.27,0-.32-.07-.08-.12-.11-.22.04-.24.1-.02.67-.05.8.14.14.2-.04.76.16.96.08.08.28.07.4-.04.17-.16.07-1.25.06-1.26-.27-.58-.8-1.01-1.49-1.15.44-.75,1.74.72,1.75.88l.11,1.55c.4.11.8.05,1.17.04Z"></path>
          <path class="cls-146" d="M44.16,3.07l3.64-.03c-.07-.16-.24-.24-.14-.36.21.1.4.29.51.49h-3.65s-.04,4.2-.04,4.2l-2.85.08c-.08-.1-.16-.21-.11-.35.17.07.61.03.77-.1.11-.45.21-1.11-.11-1.59-.78-.05-2.15-.03-2.85,0-.15,0-.52-.14-.59.12-.12.47,0,.98-.05,1.43-.13,0-.25,0-.35-.09.16-.54-.32-1.67.58-1.79.47-.06,1.01.04,1.53-.06.21-.04.23-.76.03-.83-.85-.31-2.34.41-2.32-.8s-.31-1.12-.14-1.35c.13-.17.34-.24.55-.06.14.12.04.32-.04.52-.13.32,0,.68-.06,1-.09.48,1.6.27,2.03.25.41-1.23-.55-.83-.35-1.64.06-.23.26-.47.67-.47.27,0,.45.21.56.56.1.31-.34.45-.42.72-.18.67-.01,1.39-.07,2.04.48.21,1.21-.08,1.54.2.44.37.09,1.12.27,1.84.44.05.87.06,1.37,0l.08-3.96ZM40.57,2.02c-.13.11-.15.33-.06.41.13.12.32.11.42.04.14-.1.13-.34.03-.42-.14-.11-.27-.14-.39-.03Z"></path>
          <path class="cls-54" d="M47.65,2.67c-.09.12.07.2.14.36l-3.64.03c0-.26-.05-.63-.06-.88,2.09.03,1.86-.28,3.55.48Z"></path>
          <path class="cls-104" d="M38.68,6.97c.22,0,.46.07.62-.1.44.26,1.47-.06,2.2.23-.05.13.03.25.11.35l-.14,8.52c-.02.08-4.32.21-3.9-.15l-.02-8.71c.26-.12.53-.07.76-.23.11.09.22.1.35.09ZM38.58,8.42c-.16.08-.13.5-.05.64s.48.15.63.05c.14-.1.09-.48,0-.61-.08-.12-.42-.16-.59-.07ZM39.89,8.43c-.19.08-.16.49-.08.65.07.13.38.11.58.03.14-.06.13-.39.08-.59-.03-.15-.3-.22-.59-.09ZM39.93,9.88c-.24.05-.23.51-.12.68.09.13.42.11.59.05.15-.06.14-.41.1-.61-.04-.17-.36-.15-.57-.11ZM38.53,10c-.12.3-.07.6.09.62.2.03.54.09.6-.08.06-.19.07-.47-.04-.57-.13-.11-.57-.16-.65.03ZM39.87,12.12c.27.07.59.03.62-.16.03-.16.08-.5-.09-.59-.11-.06-.39-.08-.55.02-.18.12-.17.67.02.72ZM38.53,11.47c-.14.29-.08.6.1.64s.52.1.6-.1c.06-.16.07-.45-.04-.56-.13-.13-.56-.17-.65.02ZM38.58,12.86c-.18.04-.16.57-.02.68.12.1.5.09.64-.03.12-.1.09-.44-.01-.62-.08-.13-.39-.08-.6-.03ZM39.93,12.83c-.24.05-.22.49-.12.68.07.13.41.11.59.05.16-.06.12-.38.08-.61-.03-.15-.32-.16-.55-.11ZM38.62,15.04c.38.1.68.05.63-.25-.03-.17.05-.46-.13-.49-.24-.03-.6-.08-.63.12s-.09.57.13.62ZM39.82,14.36c-.15.17-.11.56.02.67.12.1.5.08.61-.06.1-.12.08-.46,0-.61s-.5-.16-.63,0Z"></path>
          <path class="cls-9" d="M45.96,20.04l-3.71.04c-1.31.01-.49,2.68-.78,3.72-.72.41-.5,1-1.65.54.04-.75-.17-1.7.09-2.35.12-.31.53-.44.53-.8s-.39-.47-.53-.77c-.25-.53,0-1.15-.11-1.81,1.11.09,2.21-.16,3.23.12.29.21.58.63.96.5.44-.15.62-.38.62-.77,0-.45-.3-.76-.7-.81s-.65.28-.9.6c-1.77-.04-3.7.16-5.43-.11.08-.43-.06-.89.12-1.3h6.25s.88.78.88.78c.3.27.49.53.94.75l.05-4.63c0-.23-.09-.42.12-.49l.02,6.79Z"></path>
          <path class="cls-2" d="M43.96,16.83h-6.25s-2.17-1.39-2.17-1.39c-.02-.2-.02-.4-.02-.6.46.02,1.56,1,2.06.97-.43.36,3.88.23,3.9.15.18.07.59.17.78-.02l.02-6.35c.25-.26.51-.72.86-.79,1.42-.26,3.08.41,3.01-.73-.04-.65.23-1.55-.15-2.09-.29-.42-.42-.77-.05-1.07.32-.26.74-.11.89.11.32.48-.08.69-.27.99-.32.51.02,2.03-.17,2.69.44.05,1.33.11,1.51-.05.28-.24.2-2.04.07-2.34s-.47-.46-.31-.84c.1-.24.28-.45.66-.43.26.01.43.24.54.51.15.36-.3.49-.39.74-.24.68.05,1.52-.13,2.27-.11.45-.57.52-.94.52h-4.08c-.22,0-.61.38-.72.6l-.03,6.29c.33.21.58.37.98.49.3-2.29-.49-1.52-.45-2.29.01-.24.37-.38.42-.6.38-1.87-.54-3.61.93-3.7,1.34-.08,2.71.14,4.01-.1.22-.04.5-.55.83-.35.2.12.49.26.44.68-.03.22-.24.44-.53.56-.31.13-.48-.36-.73-.4-1.27-.18-2.57,0-3.9-.07-.2,0-.62.09-.61.34.02.97-.13,1.97.05,2.96.05.29.53.4.48.81-.13.9-.7-.42-.54,2.54ZM46.13,5.16c-.16.13-.11.37.03.49.09.08.26.08.4-.09.08-.09.05-.27-.03-.35-.11-.12-.27-.15-.4-.05ZM48.06,5.45c-.15.13-.1.31-.02.4.13.16.3.15.38.06.14-.17.18-.37.05-.45-.14-.09-.28-.12-.41-.01ZM49.04,9.72c-.21.1-.23.34-.13.48.08.12.26.14.41.07.1-.05.13-.26.07-.39-.04-.1-.16-.25-.35-.16ZM43.61,13.97c-.18.12-.16.35-.04.49.09.11.26.11.38.06.15-.06.27-.31.14-.45-.1-.1-.27-.24-.47-.1Z"></path>
          <path class="cls-194" d="M48.42,11.58l1.38,1.35c.02.19-2.52-.07-2.14.18-.04,0-.07-.01-.11,0,0-.45-1.35-1.22-1.14-1.55.67-.04,1.35-.04,2.02,0Z"></path>
          <path class="cls-105" d="M46.4,11.57c-.21.32,1.15,1.1,1.14,1.55l-.04,3.82c0,.12-.1.17-.15.17-.05,0-.17-.05-.17-.17v-3.78c-.47-.06-.88-.05-1.25.08l-.26-.39c.29-.39-.27.41,1.29.08-.37-.55-.91-.8-1.15-1.32.15-.03.39-.03.57-.04Z"></path>
          <path class="cls-116" d="M45.83,11.62c.24.52.78.78,1.15,1.32-1.56.33-1.01-.47-1.29-.08-.49-.34-.99-.71-1.42-1.22.54-.16,1.18-.12,1.57-.02Z"></path>
          <path class="cls-218" d="M52.46,26.64c.22.22.44.49.63.74l-6.52.04c-.62-.58-1.42-.98-1.87-1.63l6.72-.02c.3.49.75.59,1.04.88Z"></path>
          <path class="cls-100" d="M52.08,19.42l-.1,4.25c-.45.01-.85.05-1.29-.05.11-.4-.07-.7-.06-.98.02-1.4-.09-2.81.04-4.27l1.42,1.05Z"></path>
          <path class="cls-201" d="M50.63,25.13c1.1-.39,2.21.03,3.3-.22.19-.04.35-.25.53-.06.12.12.2.31.03.53-.14.18-.32.03-.54-.02-1.05-.25-2.14.19-3.32-.23Z"></path>
          <path class="cls-46" d="M47.93,23.65c.14.24.1.54-.02.62-.13.08-.37.08-.55.02-.15-.05-.25-.32-.18-.6.05-.21.63-.24.75-.04Z"></path>
          <path class="cls-110" d="M45.62,23.64c.11-.18.57-.13.69-.02.12.1.09.44.03.59-.08.19-.45.11-.6.11-.22,0-.3-.39-.12-.68Z"></path>
          <path class="cls-231" d="M48.93,23.66c.12-.17.48-.12.61-.07.16.07.15.48.07.62-.09.17-.39.08-.54.1-.25.04-.34-.37-.14-.66Z"></path>
          <path class="cls-69" d="M53.12,20.44c.1-.19.47-.12.59-.05.16.09.14.44.06.6s-.34.12-.51.11c-.23-.01-.3-.34-.14-.66Z"></path>
          <path class="cls-157" d="M53.11,21.84c.1-.16.46-.1.58-.03.17.09.18.44.1.59-.1.19-.42.13-.56.12-.22-.02-.28-.42-.13-.67Z"></path>
          <path class="cls-41" d="M37.59,30.19c.71.37,1.57.04,2.35.16.15.05.12.42.25.45.33.07.23-.42.25-.6.28.19.64.12.97.14.03.14-.06.36.03.47.25-.06.39.04.42-.11.02-.17.08-.26.06-.36.41-.04.84.09,1.21-.13.33.39,1.08-.21,1.69.4.31.31.82.5.85.94h-8.16s-1.91-1.58-1.91-1.58c-.06-.43-.07-.92-.01-1.34.69.31,1.21,1.14,2,1.55Z"></path>
          <path class="cls-179" d="M39.17,35.01c-.32.04-.54.05-.79,0-.06-.26-.04-.49,0-.78.29-.06.52-.07.78,0,.06.25.06.48.01.79Z"></path>
          <path class="cls-31" d="M39.23,33.41c-.26.16-.55.14-.83.06-.05-.28-.05-.51,0-.77.25-.06.47-.06.78,0l.06.73Z"></path>
          <path class="cls-144" d="M41.32,34.98c-.2-.09-.18-.63-.03-.75s.48-.1.65-.02c.16.07.1.42.1.63,0,.25-.42.27-.73.14Z"></path>
          <path class="cls-32" d="M40.6,34.98c-.2.07-.66.16-.74-.05-.1-.26-.1-.62.05-.71.13-.08.48-.08.61,0,.18.12.09.4.07.76Z"></path>
          <path class="cls-90" d="M41.33,33.48c-.2-.04-.2-.62-.05-.75.16-.14.51-.1.64-.04.19.08.11.44.1.67,0,.2-.39.19-.69.12Z"></path>
          <path class="cls-163" d="M39.85,33.39c-.07-.18-.09-.59.05-.68.19-.12.6-.08.67.07.08.16.11.56-.05.68-.14.11-.6.11-.67-.07Z"></path>
          <path class="cls-101" d="M41.28,35.83c.14-.19.58-.14.71-.02s.09.55-.07.7c-.11.11-.4.07-.62,0-.17-.05-.18-.49-.03-.69Z"></path>
          <path class="cls-134" d="M53.09,27.38c.24,1.87.07,3.8.16,5.8.02.37-.25.73-.27,1.1h-1.12c-.02-.14,0-.29-.14-.25-.03-.94.08-1.87-.06-2.88-.46.28-1.01.46-1.22.86-.17.52-.12,1.28.03,1.79-.19.2-.08.57-.08.84,0,.13-.05.26-.03.38,0,.04.02.1.01.14-.04.22.1.54-.14.64l-.57.08c-.09.01-.2,0-.29,0-.12,0-.25.03-.37.02-.24-.02-.5,0-.71-.12.12-.71,0-1.44.04-2.24.03-.64-1.48-.19-1.81-.43l.05-5.7,6.52-.04ZM48.16,28.44c-.08-.19-.69-.17-.74.03-.07.25-.06.61.09.7.13.08.48.07.63,0,.14-.07.13-.46.02-.72ZM49.55,28.44c-.11-.2-.73-.17-.76.04-.04.27-.05.6.11.68.15.07.48.07.61,0,.14-.08.19-.47.04-.73ZM50.96,29.08c.1-.3.11-.73-.15-.73-.15,0-.42-.06-.58.08-.1.09-.06.35-.04.63.02.23.69.24.76.03ZM52.37,29c0-.33.04-.56-.1-.63-.11-.05-.26-.04-.46-.03-.32.02-.31.55-.16.77.12.17.71.22.72-.11ZM47.51,30.65c.24.12.64.11.68-.06.04-.19.04-.44,0-.58-.06-.18-.46-.19-.68-.12-.2.06-.17.67.01.76ZM48.91,29.92c-.21.09-.18.53-.07.67.13.17.53.17.68.06.17-.13.17-.54.06-.69-.13-.18-.47-.13-.67-.05Z"></path>
          <path class="cls-220" d="M45.96,20.44l-3.59-.03c-.28,0-.52.15-.52.46v2.58c0,.73.65.45.64,1.29,0,.32-.29.46-.51.71s-.23.97-.05,1.27c.3.51.76.88,1.2,1.13.25.15.6-.06.91.16.36.25-.88.27-.91.26-.59-.32-1.53-.85-1.58-1.5l-.1-1.24c-.02-.2-.5-.49-.68-.7-.53-.1-1.14-.02-1.72-.02-.03,2.69-.06,1.51,1.1,3.69l1.24.03c.72.02.4,1.12.52,1.81.02.11-.04.19-.06.36-.02.15-.17.05-.42.11-.09-.12,0-.33-.03-.47.27-.37.11-.94.11-1.42-.38-.12-.71-.08-1.1-.03.02.49.07.89.02,1.31-.02.18.08.67-.25.6-.12-.03-.1-.41-.25-.45.21-.29.26-.96.04-1.35l-1.36-2.4c-.16-.28-.79-.07-1.07-.08-.69-.04-1.39-.97-1.96-1.23-.13-.1-.08-.32,0-.45.49.32.99.68,1.43,1.12.24.24.41.08.56.09.27.02.85.3,1.04-.06.14-.26.11-.85.01-1.13-.25-.26-.78,0-1.03-.06l-2-1.48c-.06-.11-.14-.31,0-.45.69.42,1.25,1.05,1.96,1.42.55.28,1.14.1,1.88.15-.07-.86.14-1.67-.11-2.41-.1-.31-.61-.45-.53-.93.14-.84.82.15.63-2.47-.68-.04-1.26-.09-1.85.02l-1.99-1.45c-.1-.02-.09-.12-.1-.2,0-.08,0-.2.11-.19.51.1,1.56,1.27,1.97,1.33,1.73.27,3.65.07,5.43.11.26-.32.52-.65.9-.6s.7.36.7.81c0,.38-.19.61-.62.77-.38.13-.67-.29-.96-.5-1.02-.28-2.12-.03-3.23-.12.11.66-.13,1.28.11,1.81.14.29.53.4.53.77s-.41.49-.53.8c-.26.65-.05,1.6-.09,2.35,1.15.45.93-.14,1.65-.54.29-1.04-.53-3.71.78-3.72l3.71-.04c.29,0,.9.18,1.09-.11.26-.39-.02-.96.17-1.37.18-.36.74-.5.87-.89.19-.53-.06-1.06.17-1.76.17-.52.36,1.22.14,1.95-.13.4-.74.54-.88.92-.13.35.02.74-.06,1.09-.13.6-.88.57-1.5.57Z"></path>
          <path class="cls-230" d="M43.13,28.27c0,.65-.08,1.3,0,1.94-.36.23-.8.09-1.21.13-.12-.69.19-1.8-.52-1.81l-1.24-.03c-1.16-2.18-1.13-1.01-1.1-3.69.58,0,1.19-.08,1.72.02.18.21.66.5.68.7l.1,1.24c.05.65.99,1.17,1.58,1.5Z"></path>
          <path class="cls-8" d="M45.96,20.44v1.05c.37.01-2.8.1-2.73.1-.06,0-.08.1-.09.16-.11,2.03-.04,4.07-.03,6.11-.44-.26-.9-.63-1.2-1.13-.18-.3-.16-1.03.05-1.27s.5-.38.51-.71c.02-.84-.63-.55-.63-1.29v-2.58c0-.31.23-.46.52-.46l3.59.03Z"></path>
          <path class="cls-98" d="M47.78,35.85l-1.35.05c-.18,0-.4-.09-.51.08-.62-.26-1.35-.01-2.07-.17-.06-.69-.09-1.4,0-2.15h3.81s.12,2.19.12,2.19Z"></path>
          <path class="cls-4" d="M47.55,13.12s.07,0,.11,0h1.98c.19.02.36-.04.48.09.12.12.15.3.14.55l-.02,8.48-.99-.63-3.29-.11v-1.05c.63,0,1.37.03,1.5-.57.08-.35-.07-.73.06-1.09.15-.39.76-.53.88-.92.23-.72.04-2.46-.14-1.95-.23.7.01,1.23-.17,1.76-.14.39-.7.53-.87.89-.2.4.09.98-.17,1.37-.19.28-.81.1-1.09.11l-.02-6.79c.37-.13.78-.15,1.24-.08v3.78c0,.12.12.17.17.17.05,0,.15-.04.15-.17l.04-3.82ZM48.49,20.36c.46-1.51-.37-.56,1.03-1.79l-.18-4.81-.28,4.75c-.14.28-.75.44-.75.73,0,.42-.17.86.17,1.13Z"></path>
          <path class="cls-142" d="M54.89,16.91c-.29.25-3.56.28-3.54-.01.01-.26,3.3-.23,3.54.01Z"></path>
          <path class="cls-171" d="M54.02,14.05c.07-.2.44-.13.59-.07s.12.43.06.63c-.04.13-.32.1-.54.07-.16-.02-.22-.32-.11-.64Z"></path>
          <path class="cls-219" d="M54.01,15.39c.06-.16.46-.11.58-.05.16.07.13.44.06.64-.05.13-.34.12-.53.09-.16-.02-.23-.35-.11-.67Z"></path>
          <path class="cls-55" d="M52.76,15.39c.08-.17.48-.13.6-.06.15.09.12.44.07.64-.04.16-.35.1-.53.07s-.29-.33-.13-.66Z"></path>
          <path class="cls-223" d="M52.75,14.04c.07-.18.47-.13.61-.06s.11.44.04.65c-.04.12-.31.09-.51.06-.17-.02-.28-.32-.14-.65Z"></path>
          <path class="cls-29" d="M37.59,18.65l-.02,5.64c-.71-.36-1.27-.99-1.96-1.42-.13-1.85-.12-3.81,0-5.67l1.99,1.45Z"></path>
          <path class="cls-29" d="M37.56,26.52c.1,1.22.06,2.45.03,3.67-.79-.41-1.31-1.25-2-1.55-.04-1.08-.13-2.29.02-3.35.56.26,1.26,1.19,1.96,1.23Z"></path>
          <path class="cls-153" d="M37.6,24.8c.05.41.03.84-.02,1.25-.15-.01-.32.15-.56-.09-.44-.44-.94-.81-1.43-1.12-.1-.43-.1-1.09,0-1.52l2,1.48Z"></path>
          <path class="cls-183" d="M37.71,16.84c-.18.41-.04.87-.12,1.3-.41-.06-1.46-1.23-1.97-1.33-.2-.43-.02-.91-.08-1.37l2.17,1.4Z"></path>
          <path class="cls-36" d="M51.72,34.02c0,.09,0,.19-.01.28-.48,0-.77-.47-1.24-.51-.15-.51-.2-1.26-.03-1.79.21-.4.75-.58,1.22-.86.14,1.01.03,1.94.06,2.88Z"></path>
          <path class="cls-6" d="M41.51,7.1c-.73-.29-1.76.03-2.2-.23-.03-.49,0-.97.02-1.46.7-.03,2.07-.05,2.85,0,.31.48.22,1.14.11,1.59-.16.13-.6.16-.77.1Z"></path>
          <path class="cls-74" d="M39.32,5.41c-.02.49-.05.97-.02,1.46-.17.17-.41.09-.62.1.05-.46-.07-.96.05-1.43.07-.26.43-.12.59-.12Z"></path>
          <path class="cls-7" d="M40.57,2.02c.12-.11.26-.08.39.03.1.08.1.32-.03.42-.1.07-.3.08-.42-.04-.09-.08-.07-.3.06-.41Z"></path>
          <path class="cls-159" d="M38.62,15.04c-.22-.06-.15-.42-.13-.62s.38-.15.63-.12c.19.03.11.32.13.49.05.3-.25.35-.63.25Z"></path>
          <path class="cls-168" d="M38.58,12.86c.21-.05.52-.11.6.03.1.18.13.52.01.62-.14.11-.52.12-.64.03-.14-.11-.15-.63.02-.68Z"></path>
          <path class="cls-15" d="M38.58,8.42c.17-.08.5-.05.59.07.09.14.14.51,0,.61-.16.11-.55.1-.63-.05s-.11-.55.05-.64Z"></path>
          <path class="cls-166" d="M39.82,14.36c.13-.16.55-.14.63,0s.1.49,0,.61c-.11.14-.49.15-.61.06-.13-.11-.17-.49-.02-.67Z"></path>
          <path class="cls-27" d="M38.53,11.47c.09-.19.52-.15.65-.02.11.11.1.4.04.56-.07.19-.41.14-.6.1s-.23-.35-.1-.64Z"></path>
          <path class="cls-129" d="M39.87,12.12c-.19-.05-.19-.61-.02-.72.16-.11.45-.08.55-.02.16.09.11.43.09.59-.03.19-.36.23-.62.16Z"></path>
          <path class="cls-95" d="M38.53,10c.08-.19.52-.14.65-.03.11.1.1.38.04.57-.06.17-.4.11-.6.08-.16-.02-.22-.32-.09-.62Z"></path>
          <path class="cls-141" d="M39.93,9.88c.21-.04.53-.06.57.11.04.2.06.55-.1.61-.17.06-.5.08-.59-.05-.11-.16-.12-.62.12-.68Z"></path>
          <path class="cls-227" d="M39.89,8.43c.28-.12.55-.06.59.09.05.2.06.53-.08.59-.2.08-.51.1-.58-.03-.08-.16-.11-.57.08-.65Z"></path>
          <path class="cls-102" d="M39.93,12.83c.23-.05.52-.04.55.11.05.23.09.55-.08.61-.18.07-.52.09-.59-.05-.1-.18-.12-.62.12-.68Z"></path>
          <path class="cls-114" d="M43.61,13.97c.2-.13.37,0,.47.1.14.14,0,.39-.14.45-.12.05-.29.05-.38-.06-.12-.14-.13-.37.04-.49Z"></path>
          <path class="cls-86" d="M46.13,5.16c.13-.11.29-.07.4.05.08.09.11.26.03.35-.14.16-.31.16-.4.09-.14-.12-.19-.36-.03-.49Z"></path>
          <path class="cls-107" d="M48.06,5.45c.13-.11.27-.08.41.01.13.08.09.27-.05.45-.08.09-.25.1-.38-.06-.07-.09-.13-.27.02-.4Z"></path>
          <path class="cls-39" d="M49.04,9.72c.18-.09.3.06.35.16.06.13.03.34-.07.39-.15.08-.33.05-.41-.07-.09-.14-.07-.38.13-.48Z"></path>
          <path class="cls-232" d="M39.94,30.35c-.78-.12-1.64.21-2.35-.16.03-1.22.07-2.45-.03-3.67.28.02.91-.2,1.07.08l1.36,2.4c.22.38.16,1.06-.04,1.35Z"></path>
          <path class="cls-89" d="M41.4,30.35c-.33-.02-.69.05-.97-.14.05-.42,0-.82-.02-1.31.38-.05.71-.1,1.1.03,0,.48.16,1.05-.11,1.42Z"></path>
          <path class="cls-138" d="M50.96,29.08c-.07.21-.74.2-.76-.03-.03-.28-.06-.54.04-.63.16-.14.42-.08.58-.08.26,0,.24.43.15.73Z"></path>
          <path class="cls-208" d="M48.16,28.44c.11.25.11.64-.02.72-.15.08-.49.08-.63,0-.16-.09-.16-.45-.09-.7.05-.19.66-.22.74-.03Z"></path>
          <path class="cls-88" d="M49.55,28.44c.15.25.11.65-.04.73-.13.07-.47.07-.61,0-.17-.08-.15-.41-.11-.68.03-.22.65-.24.76-.04Z"></path>
          <path class="cls-109" d="M48.91,29.92c.2-.08.54-.13.67.05.11.14.11.56-.06.69-.14.11-.55.11-.68-.06-.11-.14-.14-.58.07-.67Z"></path>
          <path class="cls-33" d="M47.51,30.65c-.18-.09-.21-.7-.01-.76.22-.07.62-.06.68.12.04.14.05.39,0,.58-.04.17-.44.18-.68.06Z"></path>
          <path class="cls-99" d="M52.37,29c0,.33-.6.29-.72.11-.15-.22-.16-.76.16-.77.2-.01.36-.02.46.03.15.07.11.3.1.63Z"></path>
          <path class="cls-222" d="M37.57,24.29l.02-5.64c.59-.1,1.16-.06,1.85-.02.19,2.62-.49,1.63-.63,2.47-.08.48.43.61.53.93.25.74.04,1.55.11,2.41-.74-.05-1.32.13-1.88-.15Z"></path>
          <path class="cls-192" d="M37.58,26.05c.05-.41.07-.84.02-1.25.25.07.79-.2,1.03.06.1.28.12.88-.01,1.13-.19.36-.77.08-1.04.06Z"></path>
          <path class="cls-180" d="M48.49,20.36c-.34-.26-.16-.7-.17-1.13,0-.29.61-.46.75-.73l.28-4.75.18,4.81c-1.41,1.23-.58.29-1.03,1.79Z"></path>
        </g>
      </g>
      <g>
        <path class="cls-10" d="M63.28,36.26c0,.12,0,.24,0,.36-.05,1.1-.03,2.21,0,3.31-.31.07-.74.48-1.09.5-.38.02-.12,2.47-.15,2.94-.24.02-.64-.29-.86-.38v-8.7c.13-.06.28-.2.38-.29.56-.15,1-.53,1.67-.79l.06,3.05Z"></path>
        <path class="cls-108" d="M65.87,40.69v2.13s1.93,1.05,1.93,1.05l-2.43,1.24c-.59-.16-1.05-.54-1.57-.78.05-.04.12-.09.12-.21l-.02-2.69c.35,0,1.67-.85,1.97-.74Z"></path>
        <path class="cls-87" d="M68.53,35.53l-1.44.66c-.09.97-.07,1.94-.01,2.88-.49.02-1.23-.4-1.58-.7l-.11-1.74c.12-.14-.04-.29-.01-.38.1-.25.03-.44.08-.78,1.67-.76,1.39-.93,3.08.06ZM66.63,36.87c-.23-.42-.52-.47-.89-.43.15.35.54.48.89.43ZM66.66,37.71c-.27-.36-.62-.53-.96-.42.28.33.59.55.96.42Z"></path>
        <path class="cls-40" d="M63.9,41.43l.02,2.69c0,.12-.07.17-.12.21l-1.5-.7c.16-.1-.56-.23-.26-.26.04-.47-.22-2.92.15-2.94-.16.32,1.43.83,1.71,1Z"></path>
        <path class="cls-11" d="M67.08,39.07c-.06-.95-.08-1.91.01-2.88l1.44-.66c.27.92.04,1.9.12,2.93-.56.19-1.02.59-1.57.61Z"></path>
        <path class="cls-234" d="M65.87,40.69c-.3-.11-1.62.74-1.97.74-.28-.17-1.87-.68-1.71-1,.34-.02.78-.42,1.09-.5.14-.03.44-.2.6-.17.34.06,1.99.67,1.99.92Z"></path>
        <path class="cls-165" d="M61.17,42.99c-.67-.28-1.49-.81-1.93-.86l-.03-2.54-.11-.15c-.09-.12-.23-.3-.3-.47l-.06-2.34c.06-.1.16-.28.05-.39.14-.02.08-.19.03-.28-.1-.22.02-.44.27-.57.74-.37,1.38-.81,2.08-1.11v8.7ZM60.67,36.99v-.99c.02-.27-.58-.77-.3,1.07.01.08.17.13.21.1.03-.02.09-.07.09-.17ZM60.53,39.35c.25-.3.14-1.51.05-1.63-.33-.49-.36,1.59-.05,1.63Z"></path>
        <g>
          <path class="cls-82" d="M59.24,42.13c0,.32-.09.74.09,1.01-.11.12-.03.34-.02.46-.15.26-.05.71-.13,1.06-.75.37-1.36.84-2.07,1.03v-5.13s1.98-1.12,1.98-1.12l.11.15.03,2.54Z"></path>
          <path class="cls-177" d="M57.12,40.56v5.13c-.74-.21-1.42-.65-2.12-1.04-.02-.52.09-.92-.07-1.3.02-.14.22-.34.04-.47.07-.05.06-.09-.01-.13.1-.4.03-.82.07-1.23.06-.69-.2-1.45.13-2.08l1.97,1.11ZM55.85,41.09c.17-.25.07-.56-.19-.54-.18.01-.1.31-.1.42,0,.09.2.24.28.12ZM56.58,41.39c.11-.28.05-.56-.22-.58-.17-.02-.14.31-.12.45.02.11.29.25.33.14ZM55.77,42.08c.18.02.12-.28.13-.38s-.06-.22-.29-.26c-.16.09-.15.59.16.63ZM56.44,42.33c.19,0,.21-.25.18-.35-.02-.06-.08-.17-.26-.15s-.16.5.08.5ZM55.7,43.01c.25.03.22-.27.2-.38-.02-.09-.13-.2-.27-.12s-.13.47.07.5Z"></path>
          <path class="cls-79" d="M58.8,38.98c.07.17.21.35.3.47l-1.98,1.12-1.97-1.11s0-.06,0-.09c.03-.03.11-.06.16-.07.16-.06.36-.26.48-.34.39-.1.89-.61,1.34-.66.64.01,1.08.76,1.67.69Z"></path>
          <path class="cls-14" d="M55.77,42.08c-.31-.04-.32-.55-.16-.63.23.03.3.17.29.26s.05.4-.13.38Z"></path>
          <path class="cls-76" d="M56.58,41.39c-.04.11-.32-.02-.33-.14-.02-.13-.06-.46.12-.45.27.03.32.31.22.58Z"></path>
          <path class="cls-164" d="M55.85,41.09c-.08.11-.28-.03-.28-.12,0-.1-.09-.41.1-.42.25-.01.35.3.19.54Z"></path>
          <path class="cls-97" d="M55.7,43.01c-.2-.03-.2-.43-.07-.5s.25.03.27.12c.02.11.04.41-.2.38Z"></path>
          <path class="cls-3" d="M56.44,42.33c-.23,0-.25-.48-.08-.5s.24.09.26.15c.03.09,0,.35-.18.35Z"></path>
        </g>
        <path class="cls-49" d="M66.66,37.71c-.37.13-.68-.08-.96-.42.34-.11.69.06.96.42Z"></path>
        <path class="cls-173" d="M66.63,36.87c-.35.05-.74-.09-.89-.43.37-.03.66.02.89.43Z"></path>
        <path class="cls-20" d="M60.53,39.35c-.31-.04-.27-2.13.05-1.63.08.13.2,1.34-.05,1.63Z"></path>
        <path class="cls-94" d="M60.67,36.99c0,.1-.06.15-.09.17-.04.03-.19-.02-.21-.1-.28-1.83.31-1.33.31-1.07v.99Z"></path>
      </g>
    </g>
  </g>
</svg>