<?xml version="1.0"?>
<svg id="Layer_2" data-name="Layer 2" xmlns="http://www.w3.org/2000/svg" viewBox="0 0 208.11 101.48">
  <defs>
    
  </defs>
  <g id="Layer_1-2" data-name="Layer 1">
    <g id="Generative_Object" data-name="Generative Object">
      <g>
        <path class="cls-34" d="M202.07,23.17v76.97s5.39.06,5.39.06c.36,0,.58.27.64.48.06.19-.09.8-.46.8H.67c-.54,0-.64-.39-.66-.6-.03-.27.19-.66.52-.67l5.23-.08v-40.64s-2.46.14-2.46.14c-.39-.96-.52-1.94-.49-3.19l79.02-13.79v-19.38c-.69-.26-1.33-.02-2.16-.2-.25-1.04-.28-2.17.03-3.31l19.29-.05c.08-1.73.12-3.41.04-5.22-.14-3.13,2.02-6.08,5.25-6.12l6.07-.07.16-6.04,4.95-.08C115.41.99,116.04,0,117.26,0h9.97c.64,0,1.17.12,1.55.57.31.36.43.88.44,1.6l5.27-.03c-.01-.79.14-1.29.47-1.63C135.38.1,135.9,0,136.53,0h9.73c1.39,0,1.91.72,2.01,2.18,1.58-.05,3.51.19,5.09-.11.2-.92.5-2.07,1.73-2.07h10.43c1.15,0,1.71.99,1.68,2.15l4.08.13.13,5.99,5.71.13c2.73.06,4.69,2.7,4.79,5.38.08,2.07-.09,3.96.1,5.94l22.24.04c.28,1.06.45,2.24,0,3.12-.3.53-1.19.12-2.18.27ZM127.73,2.19c.28,0,.23-.4.21-.54s-.15-.41-.46-.41h-10.21c-.32,0-.46.26-.49.4s-.04.57.25.57h10.71ZM146.75,2.21c.28-.12.23-.38.21-.55-.02-.16-.16-.41-.46-.41h-9.97c-.39-.01-.69.11-.74.38-.03.15-.07.58.25.58h10.71ZM165.91,2.18c.17-.53-.08-.93-.42-.93h-10.18c-.36-.02-.52.22-.59.38-.05.12-.03.56.18.56h11.01ZM115.19,17.2V3.48c-1.32-.03-2.4-.12-3.55.05l.02,13.69c1.21.06,2.26.1,3.52-.02ZM143.33,17.22l-.02-13.77-27.28.02v13.8s27.3-.04,27.3-.04ZM158.57,17.25l-.02-13.8h-14.39s-.02,13.77-.02,13.77l14.43.03ZM162.62,17.16l-.02-13.65c-1.1-.09-2.11-.14-3.19.01l.02,13.68c1.14.06,2.12.14,3.19-.04ZM170.18,17.15V3.5s-6.69-.05-6.69-.05v13.79s6.69-.1,6.69-.1ZM102.93,13.9c0-.94.73-1.66,1.58-1.67l5.78-.07c.13-.88.13-1.66,0-2.58-2.02,0-3.96-.08-6.02.05-2.41.14-4.01,2.29-3.99,4.63l.04,5.4c.88.12,1.76.17,2.58-.04l.04-5.73ZM178.11,19.7c1.02.04,1.76.1,2.57-.03v-5.63c.02-2.65-2.09-4.62-4.72-4.49-1.56.08-3.02-.09-4.5.07-.08.89-.13,1.71.03,2.58l4.69-.02c.85,0,1.82.49,1.84,1.41l.1,6.11ZM114.3,18.61l-3.77-.25-.2-4.93-6.11.07c-.1,2.19-.13,4.19,0,6.22l10.08-.02c.21-.2.28-1.08,0-1.1ZM167.72,19.74l9.06-.03v-6.18c-1.78-.24-3.52-.08-5.35-.08l-.16,4.92c-1.3.33-2.55-.13-3.74.25-.3.09-.24,1.13.19,1.13ZM166.03,19.74c.19-.51.18-.79,0-1.26h-50.23c-.18.5-.26.87.08,1.26h50.14ZM91.34,22.4c-.12.07.16.43.01.59-.14.15-.35.08-.53.16l-7.73.04v76.93c1.41.16,2.64.08,4.21.05V28.26c.01-.57.23-.9.73-.91l3.73-.05c0,.38.06.81.1,1.19-.99.22-1.98-.03-3.29.12v71.3s18.22-6.3,18.22-6.3V28.69s-2.08-.22-2.08-.22c.08-.33-.24-.93.18-1.2l17.41.13c.45,0,.18.8.34,1.01-.1.12-.26.16-.53.16h-14.49s-.01,64.8-.01,64.8l7.55.07c.36,0,.65.13.68.42-.65.91-6.76-.02-8.72.59-5.48,1.71-10.64,3.58-16.05,5.64l34.33.11.02-5.18-1.47-1.35c-.36-1.01-1.1-1.82-1.1-3.12l.02-48.19c0-2.07,2.82-3.03,3.93-3.86-.91-.81-2.31-.98-3.5-.44-.92.42-2,1.44-2,2.74v53.02c.01,1.34,0,2.67-.09,4.2-1.35.33-2.65.33-4.02.02-.08-1.49-.14-2.82-.14-4.15l.03-52.44c0-3.56,2.11-6.58,5.3-7.54,3.48-1.05,7.09.28,8.92,3.5l6.51-1.12c.08-.94.04-2.67,1.49-2.67l13.21.02c1.28,0,1.58,1.58,1.33,2.67l4.94.75c2.45.37,10.12,1.99,10.12,5.32l.03,47.72c0,1.45-.52,2.47-1.09,3.59-.4.5-1.15.84-1.53,1.51l.04,5.03,26.7-.15c-4.88-2.06-9.46-4.17-14.34-5.66-1.61-.49-8.04.31-8.53-.54.01-.11.16-.4.43-.4l7.81-.07V28.61c-1.48-.14-2.7.11-3.87-.14-.02-.31,0-.81.03-1.17l12.98-.02c.29.29.16.85.23,1.18l-8.54.13v64.88s16.06,6.47,16.06,6.47V28.69c-.42-.12-.59-.11-.88-.12-.14,0-.15-.15-.18-.38.04-.3,0-.7.24-.92.65.19,1.29-.14,2.09.31v72.57c1.67.01,2.87.11,4.24-.06V23.21s-5.62-.06-5.62-.06c-.15-.05-.26-.09-.36-.18-.17-.16.16-.48.06-.57.13-.03,0-.44.12-.45l7.97-.06c.29,0,.29-.55.2-.7-.08-.14-.22-.24-.64-.24h-121.64c-.38.14-.3.92-.01.92l10.31.09c.11,0,.04.41.13.44ZM120.12,40.65c0-2.09,1.8-3.47,3.05-3.87,2.01-.63,3.74-.04,5.08,1.25.42.22,1.27-.14,1.67-.39-1.49-2.51-4.58-3.39-7.2-2.53s-4.35,3.38-4.34,6.34l.02,55.55c.37.2,1.64.34,1.64-.12l.09-56.24ZM152.56,36.2c.18-.28.19-1.32-.2-1.32l-13.01-.05c-.26.55-.27.9-.1,1.42,4.47-.34,8.86-.29,13.31-.05ZM158.51,97.44c3.03-.81,9.14-3.31,9.14-6.88v-47.94c0-2.06-4.39-3.24-5.9-3.62-9.31-2.36-22.37-2.35-31.67,0-1.27.32-5.93,1.66-5.93,3.39v48.43c.68,3.6,6.17,5.84,9.2,6.62,8.21,2.12,16.93,2.2,25.17,0ZM73.87,47.44l-.03-.45c-.01-.21-.02-.42-.05-.53-.03-.14-.36-.18-.59-.12-.75.19-1.51.37-2.29.48-.49.07-.9.64-.74,1.35l-3.97.69c-.4-.41.06-.94-.32-1.17-.14-.09-.31.07-.58.1-.44.05-.87.12-1.44.25-.22.05-.42.02-.55.12-.58.45.15.68-.57,1.36l-42.13,7.24c-.32-.38-.02-.72-.18-1.15-.86.16-1.74.24-2.55.51-.2.2-.04.8-.17,1.07-1.08.43-2.37.47-3.47.71-.34-.42.06-.78-.24-1.05-.23-.22-.49.13-.66.13-.37,0-.91.02-1.47.14-.18.04-.39.03-.5.11-.56.44.15.99-.6,1.2l-3.79.78v37.4s12.81,0,12.81,0l.03-30.58,43.24.03.02,30.55h18.75s0-50.45,0-50.45l-7.97,1.3ZM61.12,68v32.01c.4.26.77.28,1.17-.02l-.04-33.12H20.67s.01,33.18.01,33.18c.47.19.81.22,1.13-.09l.02-31.97,39.29.02ZM60.16,69.8c.29-.29.3-1-.19-1H22.92c-.33.27-.39.66-.04,1h37.28ZM60.16,71.69c.27-.38.23-.71-.03-1.03H22.92c-.34.27-.34.64-.1,1.03h37.34ZM60.17,73.55c.28-.39.24-.73-.03-1.05H22.92c-.35.27-.34.64-.1,1.04h37.34ZM60.16,75.39c.26-.38.23-.69-.03-1.03H22.96c-.4.01-.41.82-.15,1.02h37.34ZM60.16,77.25c.27-.38.24-.71-.03-1.03H22.92c-.34.28-.34.63-.1,1.03h37.34ZM60.15,79.09c.27-.36.27-.71-.06-1.02H22.92c-.35.28-.35.64-.09,1.02h37.33ZM139.82,100.02c-4.64-.83-8.46-1.39-13.02-3.97-.12,1.51-.06,2.63-.03,4.15l13.05-.18ZM165.05,100.16c-.03-1.68.13-2.76-.1-4.02-4.49,2.46-8.4,3.2-12.9,3.84.55.18,1.09.18,1.65.18h11.35ZM19.79,100.17c0-1.23.12-1.87-.09-2.72H7.08c-.12.99-.11,1.76,0,2.74l12.7-.02ZM81.8,100.18c.08-1.19.09-1.79-.03-2.71h-18.57c-.16.95-.15,1.77,0,2.72h18.59Z"></path>
        <path class="cls-67" d="M10.79,58.42c-.15.22.44.14.46.26l.98,7.78c.04.32.09.47.28.52.31.08.55-.12.6-.51l1.14-8.58c1.09-.24,2.39-.28,3.47-.71.13-.26-.03-.87.17-1.07.81-.27,1.69-.35,2.55-.51.16.43-.14.76.18,1.15l42.13-7.24c.1.03.24.02.3.07.08.08.11.22.13.42l1.01,10.65c.03.29.06.48.28.49.27.02.45-.13.5-.49.5-4.02.49-7.98,1.25-11.81l3.97-.69c.83,3.58.89,7.33,1.56,11.05.03.17.1.26.19.3.14.07.51.06.54-.27l1.41-11.8,7.97-1.3v50.46s-18.74,0-18.74,0l-.02-30.55-43.24-.03-.03,30.58H7.01s0-37.39,0-37.39l3.79-.78Z"></path>
        <path class="cls-1" d="M81.8,100.18h-18.59c-.15-.94-.16-1.76,0-2.71h18.57c.12.92.1,1.52.03,2.71Z"></path>
        <g>
          <path class="cls-44" d="M61.12,68l-39.29-.02-.02,31.97c-.31.31-.65.28-1.13.09v-33.19s41.57,0,41.57,0l.04,33.12c-.4.3-.78.29-1.18.02v-32.01Z"></path>
          <path class="cls-17" d="M60.16,71.69H22.82c-.24-.4-.24-.76.1-1.04h37.21c.27.33.3.65.03,1.04Z"></path>
          <path class="cls-53" d="M60.17,73.55H22.82c-.24-.41-.25-.77.1-1.04h37.21c.27.32.32.65.03,1.04Z"></path>
          <path class="cls-41" d="M60.16,75.39H22.82c-.27-.21-.26-1.02.15-1.02h37.17c.26.33.29.64.03,1.02Z"></path>
          <path class="cls-84" d="M60.16,77.25H22.82c-.24-.4-.24-.75.1-1.03h37.21c.27.33.31.65.03,1.03Z"></path>
          <path class="cls-27" d="M60.15,79.09H22.83c-.25-.37-.25-.74.09-1.01h37.17c.34.3.33.65.06,1.01Z"></path>
          <path class="cls-48" d="M60.16,69.8H22.88c-.35-.34-.29-.73.04-1h37.04c.5,0,.48.71.19,1Z"></path>
        </g>
        <path class="cls-47" d="M19.79,100.17l-12.7.02c-.12-.98-.12-1.75,0-2.72h12.62c.2.83.09,1.47.09,2.7Z"></path>
        <path class="cls-38" d="M73.87,47.44l-1.41,11.8c-.04.33-.41.34-.54.27-.09-.04-.16-.13-.19-.3-.66-3.72-.73-7.47-1.56-11.05-.16-.71.25-1.28.74-1.35l1.1,7.79,1.18-8.27c.23-.06.56-.02.59.12.02.12.03.32.05.53l.03.45Z"></path>
        <path class="cls-30" d="M66.21,48.85c-.76,3.83-.75,7.79-1.25,11.81-.04.36-.23.52-.5.49-.22-.02-.25-.21-.28-.49l-1.01-10.65c-.02-.2-.05-.33-.13-.42-.06-.06-.19-.04-.3-.07.72-.69-.01-.91.57-1.36.13-.1.33-.07.55-.12l.63,7.34.81-7.59c.27-.03.44-.19.58-.1.38.23-.08.75.32,1.17Z"></path>
        <path class="cls-57" d="M14.25,57.89l-1.14,8.58c-.05.39-.28.59-.6.51-.19-.05-.24-.2-.28-.52l-.98-7.78c-.02-.12-.61-.04-.46-.26.75-.21.04-.77.6-1.2.11-.09.32-.08.5-.11.27,1.67.24,3.31.77,5.15.43-1.89.61-3.57.7-5.29.17,0,.42-.35.66-.13.3.28-.1.63.24,1.05Z"></path>
        <path class="cls-94" d="M70.91,46.81c.77-.11,1.54-.28,2.29-.48l-1.18,8.27-1.1-7.79Z"></path>
        <path class="cls-94" d="M65.31,47.78l-.81,7.59-.63-7.34c.57-.13,1-.2,1.44-.25Z"></path>
        <path class="cls-13" d="M13.36,56.96c-.09,1.72-.27,3.4-.7,5.29-.53-1.84-.5-3.49-.77-5.15.55-.12,1.09-.14,1.47-.14Z"></path>
      </g>
      <g>
        <path class="cls-58" d="M90.82,23.14c-.02.23.2.19.56.2.09,1.35.38,2.64.39,3.96l-3.73.05c-.5,0-.72.33-.72.91v71.9c-1.58.03-2.81.11-4.22-.05V23.18s7.73-.04,7.73-.04Z"></path>
        <path class="cls-49" d="M194.49,27.28c-.13-.1.18-4.55.72-4.14l5.61.06v76.9c-1.37.17-2.57.07-4.24.06V27.59c-.8-.45-1.45-.12-2.09-.31Z"></path>
        <path class="cls-37" d="M121.98,22.18l1.66,6.03,1.53-6.24c.16,0,.35-.05.57,0,.16.03.07.28.16.44.1.18-.19.63.19.76h45.44c-.09.18.12.18.35.18.3,1.23.58,2.7.37,3.95l-47.38.08c-.3.42-.22.76-.35,1.05-.43.96-.29,2.48-1.02,2.21-.57-.22-.42-1.64-.85-2.21-.16-.21.11-1-.34-1.01l-17.41-.13c-.18-1.26.23-2.54.28-3.92.27-.04.5.05.49-.21h15.67c.04-.46-.12-.73-.15-1.03-.14-.27.25-.2.39-.2.17,0,.35.1.41.28Z"></path>
        <path class="cls-6" d="M194.91,22.4c-.15-.12-.16-.4-.28-.44-.17-.06-.45.09-.55.16-.51-.36-1.34-.23-1.88,0-.08-.29-.42-.16-.68-.16-.55,0-1.13-.14-1.59.21-.14-.3-.49-.16-.78-.19-.49-.05-.94-.13-1.34.22-.12-.28-.44-.24-.74-.24l-12.04.02c-.22,0-.58-.14-.7.16-.48-.33-1.11-.25-1.59.05.06-.23-.26-.29-.44-.25-.12.03-.4-.12-.33.18l-45.76-.22c-.18.26-.05.53-.31.51-.09-.16,0-.41-.16-.44-.22-.04-.41,0-.57,0-1.06.06-2.22-.31-3.19.22-.05-.18-.23-.28-.41-.28-.13,0-.52-.08-.39.2-5.23-.26-10.62-.37-15.79.06-.23-.02-.21-.25-.34-.26-.24,0-.58.03-.6.27-.57-.35-1.39-.39-1.99-.08.18-.3-.27-.16-.39-.17-.18-.02-.35.05-.4.24-2.21-.46-4.82-.29-7.05-.07-.12-.23-.61-.24-.78.03-.5-.22-1.24-.4-1.67.04-.19.02-.33-.3-.53-.25-.14.03-.14.39-.31.48-.09-.02-.02-.43-.13-.44l-10.31-.09c-.29,0-.37-.78.01-.92h121.64c.42,0,.56.1.64.24.09.15.09.7-.2.7l-7.97.06c-.12,0,0,.42-.12.45Z"></path>
        <path class="cls-83" d="M166.03,19.74h-50.14c-.34-.39-.26-.76-.08-1.27h50.23c.17.47.18.76,0,1.27Z"></path>
        <path class="cls-69" d="M186.86,23.11c.37-.55.92,4.38.71,4.17l-12.98.02.37-3.83c.02-.19.32-.15.41-.15.08,0,.15-.07.12-.19l11.37-.02Z"></path>
        <path class="cls-65" d="M102.93,13.9l-.04,5.73c-.82.2-1.7.16-2.58.04l-.04-5.4c-.02-2.34,1.58-4.49,3.99-4.63,2.06-.12,4-.04,6.02-.05.13.92.13,1.7,0,2.58l-5.78.07c-.85,0-1.57.73-1.58,1.67Z"></path>
        <path class="cls-66" d="M102.46,22.1l1,8.69.99-8.61c.01-.24.36-.28.6-.27.13,0,.11.23.34.26-.14.16-.1.41-.13.58-.05.33.12.37.41.39.01.26-.22.17-.49.21-.05,1.39-.46,2.67-.28,3.92-.42.27-.1.87-.18,1.2l-.89,6.45c-.04.26-.21.4-.37.42s-.36-.1-.4-.32c-.36-2.22-.42-4.42-.87-6.54-.07-.33.13-.92-.21-1.19.24-.21-.1-4.38-.74-4.15.13-.08.28-.04.48-.06.02-.39-.16-.65-.05-.92.04-.19.22-.26.4-.24.13.02.57-.13.39.17Z"></path>
        <path class="cls-64" d="M92.18,22.16l.83,8.17.83-8.21c.16-.27.66-.26.78-.03l-.08.63c-.04.32.12.4.48.4-.52-.8-.97,4.4-.74,4.15-.2.31-.21.77-.24,1.15l-.65,6.71c-.03.27-.12.48-.35.52s-.46-.15-.49-.5l-.68-6.67c-.04-.38-.1-.81-.1-1.19,0-1.32-.3-2.61-.39-3.96-.36,0-.58.03-.56-.2.18-.07.39,0,.53-.16.15-.16-.13-.52-.01-.59.16-.09.16-.45.31-.48.2-.05.34.27.53.25Z"></path>
        <path class="cls-64" d="M172.73,22.18l.79,6.76.81-6.81c.12-.3.48-.16.7-.16l-.05.77c-.02.34.19.37.51.4.03.12-.05.19-.12.19-.09,0-.39-.04-.41.15l-.37,3.83c-.04.36-.06.86-.03,1.17-.5.81-.22,5.82-1.04,5.88-.13,0-.39-.1-.42-.36l-.6-5.54c-.04-.39-.03-.86-.25-1.17.2-1.25-.07-2.72-.37-3.95-.24,0-.45,0-.35-.19.12-.07.4.03.43-.23.05-.37-.09-.6,0-.8-.08-.3.21-.15.33-.18.18-.04.5.03.44.25Z"></path>
        <path class="cls-61" d="M192.19,22.12l1.05,6.83.83-6.83c.1-.07.38-.22.55-.16.12.04.14.32.28.44.11.08-.23.41-.06.57.1.09.21.13.36.18-.54-.42-.84,4.03-.72,4.14-.24.21-.2.62-.24.92l-.67,5.09c-.03.24-.22.36-.34.36-.11,0-.4-.08-.42-.26l-.62-4.97c-.04-.34-.24-.82-.22-1.12.08-1.29-.31-2.55-.39-3.93-.35-.05-.57.01-.55-.22.3-.02.56-.1.52-.4-.03-.29-.05-.54-.04-.78.25,0,.6-.13.68.16Z"></path>
        <path class="cls-18" d="M187.81,22.19c.27,1.39.3,2.8.75,4.16.27-1.57.57-2.95.59-4.38.29.03.64-.11.78.19.1.18.01.37-.03.57-.07.32.11.36.44.4.02.24-.23.19-.44.23l-.5,3.94-.17,1.17-.26,1.79c-.04.3-.34.44-.51.35-.1-.05-.28-.22-.32-.39l-.34-1.76c-.07-.33.06-.89-.23-1.18.21.2-.34-4.72-.71-4.17.54-.13.21-.76.21-1.16.3,0,.62-.04.74.24Z"></path>
        <path class="cls-3" d="M101.98,27.28c.35.27.14.85.21,1.19-1.98.17-6.11.21-8.16-.04.04-.37.04-.84.24-1.15h7.7Z"></path>
        <path class="cls-7" d="M191.97,27.29c-.02.3.18.78.22,1.12-.94.27-2.01.26-2.97.07l.17-1.17c.86.03,1.73.08,2.58-.01Z"></path>
        <path class="cls-21" d="M171.97,22.11c-.1.2.04.43,0,.8-.03.27-.31.16-.43.23h-45.44c-.38-.12-.09-.56-.19-.75.26.02.13-.25.31-.51l45.76.22Z"></path>
        <path class="cls-21" d="M121.19,22.1c.02.3.19.57.15,1.04h-15.67c-.29-.02-.46-.07-.41-.4.03-.18,0-.42.13-.58,5.17-.44,10.56-.33,15.79-.06Z"></path>
        <path class="cls-29" d="M125.17,21.96l-1.53,6.24-1.66-6.03c.97-.52,2.13-.15,3.19-.22Z"></path>
        <path class="cls-15" d="M187.07,21.95c0,.4.33,1.03-.21,1.16l-11.37.02c-.31-.03-.53-.05-.51-.4l.05-.77,12.04-.02Z"></path>
        <path class="cls-59" d="M104.45,22.18l-.99,8.61-1-8.69c.6-.31,1.42-.27,1.99.08Z"></path>
        <path class="cls-56" d="M101.67,22.16c-.11.27.08.53.05.92-.2.01-.35-.02-.48.06h-6.23c-.36,0-.52-.09-.48-.41l.08-.63c2.23-.23,4.84-.4,7.05.07Z"></path>
        <path class="cls-32" d="M93.85,22.12l-.83,8.21-.83-8.17c.43-.44,1.17-.26,1.67-.04Z"></path>
        <path class="cls-70" d="M194.07,22.12l-.83,6.83-1.05-6.83c.55-.23,1.37-.35,1.88,0Z"></path>
        <path class="cls-5" d="M174.33,22.13l-.81,6.81-.79-6.76c.48-.3,1.11-.38,1.59-.05Z"></path>
        <path class="cls-79" d="M189.15,21.97c-.02,1.43-.32,2.81-.59,4.38-.45-1.37-.48-2.77-.75-4.16.39-.34.85-.26,1.34-.22Z"></path>
        <path class="cls-16" d="M191.52,21.96c0,.24,0,.5.04.78.03.3-.23.38-.52.4-.22.07-.48.07-.7,0-.33-.04-.51-.07-.44-.4.04-.21.13-.4.03-.57.46-.35,1.04-.21,1.59-.21Z"></path>
        <path class="cls-40" d="M101.24,23.14c.64-.24.98,3.94.74,4.15h-7.7c-.23.24.22-4.95.74-4.15h6.23Z"></path>
        <path class="cls-58" d="M191.03,23.14c-.03.24.2.17.55.22.09,1.39.48,2.64.39,3.93-.85.1-1.72.05-2.58.01l.5-3.94c.21-.04.46.01.44-.23.22.07.48.07.7,0Z"></path>
        <g>
          <path class="cls-23" d="M143.33,17.22l-27.29.04V3.46s27.27-.02,27.27-.02l.02,13.77ZM122.37,4.9c-3.14.42-5.24,3.35-4.77,6.34s3.19,4.99,6.25,4.58,5.1-3.17,4.69-6.19-3.05-5.15-6.17-4.73ZM135.12,4.89c-3.14.32-5.28,3.14-4.9,6.21s2.98,5.12,6.14,4.75c2.88-.35,5.06-2.93,4.77-6.07-.27-2.83-2.86-5.21-6-4.89Z"></path>
          <path class="cls-23" d="M158.57,17.25l-14.43-.03.02-13.77h14.39s.02,13.79.02,13.79ZM151.12,4.87c-3.1.22-5.34,3.01-5.08,6.02s2.88,5.22,5.9,4.98,5.3-2.8,5.08-5.87-2.72-5.35-5.89-5.13Z"></path>
          <path class="cls-23" d="M170.18,17.15l-6.71.1V3.46s6.7.05,6.7.05v13.64ZM168.87,5.77c.32-.24.3-.47.24-.58-.06-.1-.17-.24-.35-.24h-3.71c-.32,0-.5.21-.51.4,0,.24.19.43.51.43h3.82ZM169.13,7.18c-.08-.03-.13-.2-.36-.2l-3.72-.02c-.31,0-.52.26-.49.46.01.09.06.29.27.33-.28.09,6.35.15,4.3-.57ZM168.77,9.75c.28,0,.4-.29.39-.44,0-.12-.11-.33-.39-.33l-3.72-.03c-.32,0-.48.21-.5.36-.02.21.17.46.5.46h3.72ZM169.12,11.21c-.05-.05-.14-.26-.34-.26l-3.73-.02c-.32,0-.52.17-.51.44.01.6,5.4.63,4.58-.16ZM168.77,13.77c.3-.01.4-.34.34-.52-.17-.52-2.98-.3-4.07-.31.05,0-2.81,1.09,3.73.83ZM168.87,15.72c.34,0,.32-.4.24-.51-.05-.07-.14-.2-.34-.2l-3.72-.02c-.33,0-.47.17-.49.32-.03.24.16.47.49.46l3.82-.05Z"></path>
          <path class="cls-26" d="M115.19,17.2c-1.26.12-2.32.08-3.52.02l-.02-13.69c1.15-.17,2.23-.08,3.53-.05v13.72Z"></path>
          <path class="cls-23" d="M162.62,17.16c-1.07.18-2.05.11-3.19.04l-.02-13.68c1.09-.15,2.09-.1,3.19-.01l.02,13.65Z"></path>
          <path class="cls-60" d="M178.11,19.7l-.1-6.11c-.01-.92-.98-1.42-1.84-1.41l-4.69.02c-.17-.87-.11-1.69-.03-2.58,1.49-.16,2.94,0,4.5-.07,2.62-.13,4.74,1.84,4.73,4.49v5.63c-.83.13-1.57.07-2.58.03Z"></path>
          <path class="cls-42" d="M146.75,2.21h-10.71c-.32,0-.28-.44-.25-.59.05-.27.34-.39.74-.39h9.97c.31.01.45.27.46.43.02.17.07.44-.21.55Z"></path>
          <path class="cls-42" d="M127.73,2.19h-10.71c-.29,0-.28-.42-.25-.56s.17-.39.49-.39h10.21c.31,0,.44.27.46.41s.07.54-.21.54Z"></path>
          <path class="cls-20" d="M165.91,2.18h-11.01c-.21.01-.23-.44-.18-.55.07-.16.23-.39.59-.39h10.18c.34.02.59.42.42.95Z"></path>
          <path class="cls-8" d="M168.77,13.77c-6.54.26-3.68-.83-3.73-.83,1.09,0,3.9-.21,4.07.31.06.18-.05.51-.34.52Z"></path>
          <path class="cls-55" d="M169.13,7.18c2.05.71-4.58.65-4.3.57-.21-.05-.25-.24-.27-.33-.03-.19.17-.46.49-.46l3.72.02c.23,0,.28.18.36.2Z"></path>
          <path class="cls-91" d="M168.77,9.75h-3.72c-.32.02-.52-.23-.5-.44.01-.15.18-.36.5-.36l3.72.03c.28,0,.38.21.39.33.01.15-.1.44-.39.44Z"></path>
          <path class="cls-89" d="M168.87,15.72l-3.82.05c-.32,0-.52-.23-.49-.46.02-.15.16-.32.49-.32l3.72.02c.21,0,.3.13.34.2.07.11.1.51-.24.51Z"></path>
          <path class="cls-21" d="M169.12,11.21c.82.79-4.57.76-4.58.16,0-.26.19-.44.51-.44l3.73.02c.2,0,.28.21.34.26Z"></path>
          <path class="cls-2" d="M168.87,5.77h-3.82c-.32,0-.51-.19-.51-.43,0-.18.19-.4.51-.4h3.71c.18,0,.29.15.35.25.07.11.08.34-.24.58Z"></path>
          <g>
            <path class="cls-68" d="M122.37,4.9c3.11-.42,5.77,1.81,6.17,4.73s-1.76,5.79-4.69,6.19-5.78-1.61-6.25-4.58,1.62-5.92,4.77-6.34ZM124.02,8.13c.15-.95-.19-1.65-.62-2.31-.45-.18-.9-.21-1.27.16.46.84.82,1.65.94,2.67.43.2.87.06.96-.52ZM125.53,6.57c-.06-.4-.52-.53-.91-.6l.39,1.83c.2-.34.61-.71.52-1.23ZM121.59,7.09c.16-.25-.38-.93-.67-.88-.26.04-.8.39-.71.65.33.25,1.09.46,1.38.23ZM125.01,10.14c1.24.03,2.41-1.64,1.93-2.35-.14-.2-.24-.52-.67-.53-.29.86-.76,1.52-1.5,2.08-.2.15-.19.8.24.81ZM121.45,9.49c.32-.29.65-.5.53-.71-.7-1.24-2.63-1.2-2.99-.65-.17.26-.35.53-.14.86.95-.13,1.74.04,2.6.5ZM123.07,9.53c-.6.03-.94.54-.82,1.05.08.33.41.68.9.65.35-.02.82-.47.76-.97-.03-.3-.35-.75-.85-.72ZM126.39,10.68c.3.24,1.12.26,1.28-.06.2-.4.16-1.03-.19-1.26-.36.53-.65.85-1.1,1.32ZM120.07,9.98c-.62-.31-1.06-.16-1.59-.07-.1.51-.15.93.09,1.27.47-.6.91-.97,1.5-1.21ZM121.31,10.59c-.44-.33-1.64.46-2.05,1.26-.29.55-.28,1.15.39,1.69.69-1.74,2.5-2.31,1.66-2.94ZM126.82,12.75c.51-.14.7-.76.55-1.13-1.06.09-1.81,0-2.69-.33-.22.08-.67.42-.54.62.5.77,1.67,1.14,2.67.85ZM124.16,14.7c-1.1-1.04-.82-2.42-1.31-2.62-.11-.05-.45-.15-.54.05-.38.86-.25,1.99.47,2.66.39.36,1.08.29,1.38-.09ZM121.5,14.6l-.36-1.69c-.39.24-.77.8-.66,1.3.08.37.77.52,1.02.39ZM126.18,13.77c-.71-.14-1.15-.24-1.77-.44-.07.39.24,1.03.7,1.15.34.09.98-.29,1.07-.71Z"></path>
            <path class="cls-51" d="M121.45,9.49c-.85-.46-1.65-.64-2.6-.5-.21-.33-.03-.6.14-.86.36-.55,2.29-.59,2.99.65.12.21-.21.42-.53.71Z"></path>
            <path class="cls-10" d="M124.16,14.7c-.3.39-.99.46-1.38.09-.72-.67-.85-1.8-.47-2.66.09-.2.43-.1.54-.05.49.2.21,1.58,1.31,2.62Z"></path>
            <path class="cls-19" d="M126.82,12.75c-1.01.29-2.17-.08-2.67-.85-.13-.2.32-.53.54-.62.88.34,1.63.42,2.69.33.15.38-.04.99-.55,1.13Z"></path>
            <path class="cls-93" d="M125.01,10.14c-.42,0-.44-.66-.24-.81.74-.55,1.21-1.22,1.5-2.08.44,0,.54.33.67.53.48.72-.7,2.38-1.93,2.35Z"></path>
            <path class="cls-25" d="M124.02,8.13c-.09.58-.53.73-.96.52-.12-1.03-.48-1.83-.94-2.67.37-.36.82-.33,1.27-.16.44.66.78,1.36.62,2.31Z"></path>
            <path class="cls-33" d="M121.31,10.59c.84.63-.97,1.2-1.66,2.94-.67-.54-.68-1.13-.39-1.69.41-.8,1.62-1.58,2.05-1.26Z"></path>
            <path class="cls-11" d="M123.07,9.53c.5-.02.81.43.85.72.06.49-.42.94-.76.97-.49.03-.82-.31-.9-.65-.12-.51.22-1.02.82-1.05Z"></path>
            <path class="cls-52" d="M126.18,13.77c-.09.42-.73.8-1.07.71-.46-.12-.77-.76-.7-1.15.62.2,1.06.31,1.77.44Z"></path>
            <path class="cls-28" d="M121.5,14.6c-.25.13-.94-.02-1.02-.39-.11-.5.27-1.06.66-1.3l.36,1.69Z"></path>
            <path class="cls-86" d="M121.59,7.09c-.29.23-1.05.03-1.38-.23-.09-.26.45-.61.71-.65.29-.05.83.63.67.88Z"></path>
            <path class="cls-39" d="M126.39,10.68c.45-.47.74-.8,1.1-1.32.34.23.39.86.19,1.26-.16.33-.99.3-1.28.06Z"></path>
            <path class="cls-62" d="M120.07,9.98c-.59.24-1.03.61-1.5,1.21-.24-.35-.19-.76-.09-1.27.53-.09.97-.25,1.59.07Z"></path>
            <path class="cls-81" d="M125.53,6.57c.08.52-.33.89-.52,1.23l-.39-1.83c.39.07.85.2.91.6Z"></path>
          </g>
          <g>
            <path class="cls-68" d="M135.12,4.89c3.14-.32,5.74,2.06,6,4.89.29,3.14-1.88,5.72-4.77,6.07-3.16.38-5.78-1.81-6.14-4.75s1.77-5.88,4.9-6.21ZM135.88,5.87c-.34-.3-.91-.22-1.25.11,1,1.14.7,2.91,1.51,2.74.74-.16.55-2.13-.26-2.84ZM137.59,7.71c.48-.54.66-.99.46-1.27-.15-.21-.65-.57-.88-.35-.01.61.21,1.25.42,1.62ZM134.3,7.29c-.01-.48-.36-1.02-.66-1.05-.26-.03-.75.24-1,.65.57.16,1.06.31,1.66.4ZM137.62,10.22c.85-.2,1.45-.69,1.82-1.33s.21-1.43-.56-1.64c-.35,1.05-.97,1.56-1.63,2.2-.15.14.15.82.36.77ZM134.64,8.85c-.5-.73-1.5-1.27-2.52-1.09-.49.08-.95,1.08-.57,1.16,2.26-.03,2.38,1.16,3.09-.06ZM138.88,10.68c.28.29.86.24,1.19.08.41-.2.32-.86.08-1.28l-1.27,1.2ZM135.17,9.68c-.48.3-.49.89-.09,1.27.3.28.76.34,1.1.07.43-.35.44-.87.17-1.16-.32-.34-.8-.42-1.18-.18ZM132.57,9.99c-.75-.36-1.45-.26-1.58.18-.09.28-.08.83.22,1.05.47-.6.86-.94,1.37-1.22ZM132.36,13.34c.42-.9.86-1.45,1.55-1.91.21-.32.2-.71-.15-.98-1.07.26-1.85.9-2.17,1.95.09.47.27.9.77.94ZM139.32,12.77c.51-.11.86-.73.59-1.17-1.97.4-2.78-.94-3.31.3.66.71,1.69,1.09,2.72.87ZM136.7,14.81c-.95-1.07-.96-2.67-1.25-2.74-.13-.04-.52-.16-.62.08-.36.89-.19,2.06.59,2.77.36.32,1.04.11,1.27-.1ZM134.05,14.6c.06-.56-.2-.96-.27-1.67-.41.04-.71.66-.76,1.02-.05.39.86.85,1.03.65ZM138.63,13.75l-1.72-.44c.02.55.37.97.9,1.27.45-.35.69-.43.82-.83Z"></path>
            <path class="cls-14" d="M136.7,14.81c-.24.21-.92.42-1.27.1-.78-.71-.95-1.88-.59-2.77.1-.24.48-.11.62-.08.28.08.3,1.67,1.25,2.74Z"></path>
            <path class="cls-46" d="M132.36,13.34c-.5-.04-.68-.47-.77-.94.32-1.06,1.09-1.7,2.17-1.95.35.27.37.66.15.98-.69.46-1.13,1.01-1.55,1.91Z"></path>
            <path class="cls-76" d="M137.62,10.22c-.22.05-.51-.63-.36-.77.66-.64,1.27-1.15,1.63-2.2.76.21.93,1,.56,1.64s-.97,1.13-1.82,1.33Z"></path>
            <path class="cls-78" d="M139.32,12.77c-1.03.22-2.06-.16-2.72-.87.53-1.24,1.34.1,3.31-.3.27.44-.08,1.06-.59,1.17Z"></path>
            <path class="cls-12" d="M134.64,8.85c-.7,1.22-.82.03-3.09.06-.38-.08.07-1.07.57-1.16,1.02-.17,2.02.37,2.52,1.09Z"></path>
            <path class="cls-80" d="M135.88,5.87c.81.71,1,2.68.26,2.84-.81.18-.5-1.59-1.51-2.74.34-.32.91-.41,1.25-.11Z"></path>
            <path class="cls-43" d="M135.17,9.68c.38-.24.86-.16,1.18.18.27.28.26.81-.17,1.16-.34.27-.8.21-1.1-.07-.4-.38-.4-.97.09-1.27Z"></path>
            <path class="cls-87" d="M138.63,13.75c-.13.4-.38.48-.82.83-.53-.29-.88-.72-.9-1.27l1.72.44Z"></path>
            <path class="cls-87" d="M134.05,14.6c-.17.2-1.09-.26-1.03-.65.05-.36.35-.98.76-1.02.07.71.33,1.11.27,1.67Z"></path>
            <path class="cls-4" d="M134.3,7.29c-.6-.08-1.1-.24-1.66-.4.25-.41.74-.68,1-.65.31.03.65.57.66,1.05Z"></path>
            <path class="cls-73" d="M132.57,9.99c-.5.28-.89.62-1.37,1.22-.3-.22-.3-.76-.22-1.05.14-.44.83-.53,1.58-.18Z"></path>
            <path class="cls-85" d="M137.59,7.71c-.21-.37-.43-1.01-.42-1.62.23-.22.72.14.88.35.2.28.03.73-.46,1.27Z"></path>
            <path class="cls-22" d="M138.88,10.68l1.27-1.2c.25.41.34,1.07-.08,1.28-.33.16-.92.21-1.19-.08Z"></path>
          </g>
          <g>
            <path class="cls-21" d="M151.12,4.87c3.18-.23,5.68,2.2,5.89,5.13s-2.08,5.63-5.08,5.87-5.63-2-5.9-4.98,1.98-5.8,5.08-6.02ZM152.41,8.29c.17-.9-.06-1.85-.65-2.43-.3-.3-.97-.17-1.26.07,1.02,1.3.79,2.55,1.22,2.74.25.11.61.07.69-.37ZM150.15,7.26c0-.6-.46-.94-.74-1-.24-.05-.84.38-.68.59.5.27,1.03.33,1.43.41ZM153.56,10.19c.97-.14,1.83-.99,1.95-1.93.06-.46-.37-.91-.69-1.02-.33.85-.78,1.49-1.54,2.02-.3.21-.16.99.28.93ZM150.16,9.25c.14-.1.45-.3.24-.56-.59-.74-1.59-1.13-2.52-.86-.49.14-.74.8-.6,1.15,1.45-.2,2.51.54,2.88.28ZM151.41,9.52c-.6.05-.87.61-.68,1.14.13.35.51.67.98.52.39-.12.71-.49.65-.97-.05-.37-.46-.74-.95-.7ZM154.68,10.64c.23.31.98.31,1.34.04.32-.24.18-.9,0-1.31-.5.45-.58.84-1.33,1.28ZM148.34,9.98c-.66-.29-1.16-.25-1.36.02-.22.3-.19.8.08,1.27.37-.52.71-1,1.28-1.28ZM148.16,13.45c.69-2.03,2.67-2.04,1.38-2.96-.81.22-1.43.64-1.82,1.32-.34.59-.27,1.29.45,1.64ZM155.49,12.73c.28-.41.48-.69.35-1.11-2.01.35-2.69-.79-3.22.07-.4.64,1.73,1.47,2.86,1.04ZM152.44,14.58c-1.14-1.2-.54-2.82-1.68-2.53-.46.75-.09,3.07.96,2.98.27-.02.38-.3.72-.45ZM154.6,13.77l-1.72-.43c-.25.37.26.82.54,1.04.35.27.9-.17,1.18-.61Z"></path>
            <path class="cls-90" d="M153.56,10.19c-.44.06-.58-.72-.28-.93.76-.53,1.21-1.16,1.54-2.02.32.11.75.55.69,1.02-.12.94-.98,1.79-1.95,1.93Z"></path>
            <path class="cls-71" d="M152.41,8.29c-.08.45-.43.48-.69.37-.43-.18-.2-1.44-1.22-2.74.29-.24.96-.36,1.26-.07.59.58.82,1.53.65,2.43Z"></path>
            <path class="cls-92" d="M150.16,9.25c-.36.26-1.42-.48-2.88-.28-.14-.35.11-1.01.6-1.15.93-.27,1.93.12,2.52.86.21.26-.11.46-.24.56Z"></path>
            <path class="cls-90" d="M155.49,12.73c-1.13.43-3.26-.4-2.86-1.04.53-.86,1.21.28,3.22-.07.13.42-.07.7-.35,1.11Z"></path>
            <path class="cls-36" d="M148.16,13.45c-.72-.35-.79-1.05-.45-1.64.4-.68,1.01-1.1,1.82-1.32,1.3.92-.68.93-1.38,2.96Z"></path>
            <path class="cls-72" d="M152.44,14.58c-.34.15-.44.43-.72.45-1.05.1-1.42-2.23-.96-2.98,1.14-.29.54,1.33,1.68,2.53Z"></path>
            <path class="cls-63" d="M151.41,9.52c.49-.04.91.33.95.7.06.48-.26.85-.65.97-.46.14-.85-.17-.98-.52-.19-.53.07-1.09.68-1.14Z"></path>
            <path class="cls-50" d="M154.6,13.77c-.28.44-.82.88-1.18.61-.29-.22-.8-.67-.54-1.04l1.72.43Z"></path>
            <path class="cls-82" d="M154.68,10.64c.75-.43.83-.83,1.33-1.28.19.41.33,1.07,0,1.31-.36.27-1.11.28-1.34-.04Z"></path>
            <path class="cls-54" d="M150.15,7.26c-.39-.08-.92-.15-1.43-.41-.16-.21.44-.65.68-.59.28.06.74.4.74,1Z"></path>
            <path class="cls-9" d="M148.34,9.98c-.57.29-.91.77-1.28,1.28-.27-.47-.3-.97-.08-1.27.2-.26.69-.31,1.36-.02Z"></path>
          </g>
        </g>
        <g>
          <path class="cls-24" d="M124.52,28.41c.13-.11.17.13.45.2l47.54-.16.6,5.54c.03.26.29.37.42.36.82-.06.54-5.07,1.04-5.88,1.17.25,2.39,0,3.86.14v64.78s-7.8.07-7.8.07c-.26,0-.41.3-.43.4-.77-.16-1.64.23-2.33-.19.57-1.12,1.09-2.14,1.09-3.59l-.03-47.72c0-3.33-7.67-4.95-10.12-5.32l-4.94-.75c.26-1.09-.05-2.67-1.33-2.67l-13.21-.02c-1.45,0-1.41,1.73-1.49,2.67l-6.51,1.12c-1.83-3.22-5.44-4.54-8.92-3.5-3.19.96-5.3,3.98-5.3,7.54l-.03,52.44c-.41.01-.8-.1-1.21-.02-.03-.29-.32-.41-.68-.42l-7.55-.07V28.57s14.5,0,14.5,0c.27,0,.43-.04.53-.16.43.57.28,1.99.85,2.21.73.28.59-1.25,1.02-2.21Z"></path>
          <path class="cls-24" d="M94.04,28.43c2.04.25,6.18.21,8.16.04.46,2.12.51,4.32.87,6.54.04.22.25.34.4.32s.33-.16.37-.42l.89-6.45,2.06.22v64.92s-18.22,6.3-18.22,6.3V28.6c1.32-.15,2.31.1,3.3-.12l.68,6.67c.04.36.26.54.49.5s.32-.25.35-.52l.65-6.71Z"></path>
          <path class="cls-24" d="M187.79,28.47l.34,1.76c.03.17.22.34.32.39.17.09.47-.05.51-.35l.26-1.79c.96.19,2.03.2,2.97-.07l.62,4.97c.02.18.31.27.42.26.12,0,.31-.12.34-.36l.67-5.09c.04.23.04.37.18.38.29.01.47,0,.9.12v71.25s-16.09-6.47-16.09-6.47V28.6s8.55-.13,8.55-.13Z"></path>
          <path class="cls-31" d="M115.86,93.86c.41-.08.8.04,1.21.02,0,1.33.06,2.66.14,4.15,1.37.31,2.67.32,4.02-.02.09-1.52.1-2.85.1-4.2-.21,0,3.53.17,2.64-.15l1.47,1.35-.02,5.18-34.33-.11c5.41-2.06,10.57-3.93,16.05-5.64,1.96-.61,8.08.32,8.72-.59Z"></path>
          <path class="cls-75" d="M170.19,93.87c.49.85,6.92.05,8.53.54,4.88,1.49,9.46,3.6,14.34,5.66l-26.7.15-.04-5.03c.38-.67,1.13-1.01,1.53-1.51.69.41,1.56.03,2.33.19Z"></path>
          <path class="cls-3" d="M172.25,27.28c.22.32.21.78.25,1.17l-47.54.16c-.28-.07-.32-.31-.45-.2.13-.3.05-.63.35-1.05l47.38-.08Z"></path>
          <g>
            <path class="cls-45" d="M158.51,97.44c-8.24,2.19-16.96,2.11-25.17,0-3.03-.78-8.52-3.02-9.2-6.62v-48.43c0-1.73,4.67-3.07,5.93-3.39,9.3-2.34,22.37-2.35,31.67,0,1.51.38,5.91,1.56,5.91,3.62v47.94c0,3.58-6.12,6.08-9.15,6.88ZM158.23,95.59c2.35-.63,4.33-1.54,6.07-2.92,1.01-.8,1.41-1.77,1.41-3.04v-44.47c0-2.04-1.25-3.94-3.48-3.94l-32.87.02c-2.07,0-3.29,2.04-3.29,3.92v45.17c.56,2.91,5.42,4.69,7.76,5.31,7.92,2.09,16.29,2.14,24.4-.05Z"></path>
            <path class="cls-58" d="M120.12,40.65l-.09,56.24c0,.46-1.26.32-1.64.12l-.02-55.55c0-2.97,1.63-5.46,4.34-6.34s5.71.02,7.2,2.53c-.41.25-1.25.61-1.67.39-1.34-1.29-3.07-1.89-5.08-1.25-1.25.39-3.04,1.78-3.05,3.87Z"></path>
            <path class="cls-24" d="M123.97,93.67c.89.32-2.85.15-2.64.15v-53.02c-.01-1.3,1.06-2.32,1.99-2.74,1.19-.54,2.6-.37,3.5.44-1.11.84-3.93,1.79-3.93,3.86l-.02,48.19c0,1.29.74,2.11,1.1,3.12Z"></path>
            <path class="cls-77" d="M139.82,100.02l-13.05.18c-.03-1.52-.09-2.64.03-4.15,4.56,2.58,8.38,3.14,13.02,3.97Z"></path>
            <path class="cls-35" d="M165.05,100.16h-11.35c-.56,0-1.1,0-1.65-.18,4.5-.64,8.41-1.38,12.9-3.84.23,1.26.06,2.34.1,4.02Z"></path>
            <path class="cls-88" d="M152.56,36.2c-4.45-.24-8.84-.3-13.31.05-.17-.52-.16-.87.1-1.42l13.01.05c.39,0,.38,1.04.2,1.32Z"></path>
            <path class="cls-74" d="M158.23,95.59c-8.11,2.19-16.48,2.14-24.4.05-2.35-.62-7.2-2.4-7.75-5.31v-45.17c-.01-1.88,1.21-3.92,3.28-3.92l32.87-.02c2.23,0,3.49,1.9,3.49,3.94v44.47c0,1.26-.4,2.24-1.41,3.04-1.75,1.38-3.73,2.28-6.07,2.92ZM126.98,47.89c-.13.29,0,.57,0,.98l-.08,40.53c0,1.08.32,1.89,1.09,2.54,3.5,2.95,10.84,4.14,15.03,4.4,5.59.35,14.81-.44,19.92-3.73.63-.41,1.93-1.32,1.93-2.27l-.05-41.28v-1.14c0-1.17.22-2.45-.03-3.67-.28-1.41-1.43-2.19-2.76-2.17l-6.93.06-25.29-.07c-1.46,0-2.63.96-2.81,2.38-.16,1.2-.08,2.35-.02,3.44Z"></path>
          </g>
        </g>
      </g>
    </g>
  </g>
</svg>