<?xml version="1.0"?>
<svg id="Layer_2" data-name="Layer 2" xmlns="http://www.w3.org/2000/svg" viewBox="0 0 139.25 101.48">
  <defs>
    
  </defs>
  <g id="Layer_1-2" data-name="Layer 1">
    <g id="Generative_Object" data-name="Generative Object">
      <g>
        <path class="cls-32" d="M134.37,64.22c-.15.49,0,.73,0,1.35l.03,33.94c-.26.76-.2,1.34-.19,1.97h-35.16v-27.13s-11.72-.03-11.72-.03c-.31.54-.11,1.13-.11,1.65l-.06,25.51h-38.27l.07-37.29,85.42.04ZM59,75.82l-.05,12.82h8.25s.07-12.68.07-12.68c.37,0,1.05-.14,1.42,0l.04,12.69,7.65-.02c.46.04.9.06,1.56-.03l-.02-14.29h-18.76c-.36.39-.14,1.07-.15,1.49ZM107.11,75.82l-.05,12.83h8.27s-.08-12.67-.08-12.67c.39,0,1.14.03,1.53,0l.04,12.7,7.64-.03c.46.02.92.1,1.56-.02l-.03-14.3h-18.76c-.32.52-.15,1.03-.13,1.5Z"></path>
        <polygon class="cls-18" points="97.53 101.48 87.14 101.48 87.2 75.97 97.52 75.84 97.53 101.48"></polygon>
        <path class="cls-5" d="M99.04,101.48h-1.51v-25.63s-10.33.13-10.33.13c0-.52-.2-1.12.11-1.65l11.71.03v27.13Z"></path>
        <path class="cls-30" d="M134.52,61.08c-.23,1.03.16,2.13-.15,3.14l-85.42-.04c0-.48-.3-3.04.19-3.27l85.38.16Z"></path>
        <g>
          <polygon class="cls-3" points="67.27 75.97 67.2 88.65 58.95 88.64 59 75.82 67.27 75.97"></polygon>
          <polygon class="cls-15" points="76.37 88.64 68.72 88.66 68.69 75.97 76.37 75.86 76.37 88.64"></polygon>
          <path class="cls-31" d="M76.37,88.64v-12.79s-7.68.11-7.68.11c-.37-.15-1.05,0-1.42,0l-8.27-.14c0-.43-.21-1.1.15-1.48h18.76s.02,14.28.02,14.28c-.65.09-1.1.06-1.56.03Z"></path>
        </g>
        <g>
          <polygon class="cls-18" points="115.26 75.97 115.34 88.65 107.07 88.65 107.11 75.82 115.26 75.97"></polygon>
          <path class="cls-18" d="M124.48,88.64l-7.64.03-.04-12.7c1.9-.16,5.6-.15,7.66-.08l.03,12.76Z"></path>
          <path class="cls-1" d="M124.48,88.64l-.03-12.76c-2.06-.07-5.76-.07-7.66.08-.39.03-1.14,0-1.53,0l-8.14-.15c-.02-.46-.19-.98.13-1.5h18.76s.03,14.3.03,14.3c-.64.12-1.1.04-1.56.02Z"></path>
        </g>
      </g>
      <path class="cls-53" d="M39.12,75.81c.34,4.21.03,8.45.16,12.85-2.07-.05-3.92.14-5.76-.11l.06-12.68,5.54-.06Z"></path>
      <path class="cls-49" d="M20.78,75.81l.18,12.84c-2.11.02-3.94.11-5.78-.09l.05-12.67,5.56-.08Z"></path>
      <path class="cls-51" d="M29.65,50.66l.14,10.26c-2.11,0-3.8.06-5.56-.04l-.04-10.22h5.46Z"></path>
      <path class="cls-42" d="M39.12,75.81l-5.54.06-.06,12.68c-.4-.05-.97.31-1.37.09v-14.22c2.35-.22,4.66-.03,7-.1.33.54-.06,1.12-.03,1.49Z"></path>
      <path class="cls-43" d="M20.78,75.81l-5.56.08-.05,12.67c-.44-.05-.96.22-1.4.09l.04-14.24,6.96-.05c.29.42.24,1.15,0,1.46Z"></path>
      <path class="cls-9" d="M29.65,50.66h-5.46s.04,10.22.04,10.22c-.5-.03-1.08.19-1.53-.13v-11.46c2.28-.28,4.62-.03,7-.13.29.58-.02,1.11-.05,1.49Z"></path>
      <path class="cls-11" d="M13.81,74.4l-.04,14.24c-.49-.14-.96.24-1.43-.05l.03-14.05c.2-.36,1.14-.19,1.44-.14Z"></path>
      <path class="cls-44" d="M32.14,74.42v14.22c-.5.02-1,.15-1.42-.1v-14.11c.38-.34,1.08.02,1.42,0Z"></path>
      <g>
        <path class="cls-45" d="M49.14,60.92c-.49.23-.19,2.79-.19,3.27l-.07,37.29H4.81l-.1-40.56c0-.37.23-.84.18-1.36l12.15-14.31,9.1-10.79,17.53,20.47,4.93,5.73c.14.16.39.26.52.26ZM22.7,60.76c.45.32,1.02.1,1.53.13,1.75.1,3.45.04,5.56.04l-.14-10.26c.03-.38.34-.91.05-1.49-2.38.09-4.71-.15-6.99.13-.32.04-.82-.32-1.35-.04v11.52c.29.32.94.11,1.34-.02ZM13.81,74.4c-.3-.05-1.24-.22-1.44.14l-.03,14.05c.47.29.94-.1,1.43.05.45.13.96-.14,1.4-.09,1.84.21,3.67.11,5.78.09l-.18-12.84c.23-.31.29-1.04,0-1.46l-6.96.05ZM32.15,88.64c.4.22.97-.14,1.37-.09,1.84.25,3.69.06,5.76.11-.13-4.4.18-8.64-.16-12.85-.03-.37.36-.95.03-1.49-2.34.07-4.65-.12-7.01.1-.34.03-1.04-.34-1.41,0v14.11c.41.25.92.12,1.42.1Z"></path>
        <path class="cls-17" d="M22.7,49.3v11.46c-.41.13-1.06.34-1.35.02v-11.52c.53-.28,1.03.08,1.35.04Z"></path>
      </g>
      <g>
        <path class="cls-24" d="M67.11,17.35c3.4.96,6.66-1.32,7.23-4.64s-1.7-6.42-5.1-6.76c-3.06-.31-5.68,1.83-6.24,4.66s1.15,5.9,4.11,6.74ZM61.41,19.93c1-1.03,2.95-2.6,2.25-3.21-.19-.17-.54-.15-.75.05-.86.83-3.17,2.7-2.36,3.28.24.17.59.16.86-.12ZM76.86,19.21c-.8-.88-1.59-1.69-2.48-2.5-.26-.23-.63-.08-.77.12-.11.15-.2.45,0,.66l2.44,2.53c.27.28.7.16.86-.07.14-.21.18-.5-.04-.74ZM69.25,22.83v-3.29c0-.37-.21-.66-.5-.7-.22-.03-.63.16-.64.52l-.05,3.67c.22.33.44.46.69.39.24-.06.49-.27.49-.6Z"></path>
        <g>
          <path class="cls-3" d="M79.66,11.07c.19.12.6.18.62.45.02.31-.07.52-.17.74-1.19.15-2.41.03-3.72.07-.34.01-.59-.26-.66-.49-.38-1.27,3.18-.46,3.93-.78Z"></path>
          <path class="cls-39" d="M61.26,11.18c.27.1.4.39.35.67-.18.9-3.3.38-4.28.41-1.47-1.77,3.1-.99,3.94-1.09Z"></path>
          <path class="cls-22" d="M63.05,5.08c.16.41,1.23,1.1.59,1.62-.74.6-1.46-.91-2.76-1.85-.23-.17-.38-.57-.53-.77-.22-.29.07-.63.28-.74.65-.37,1.98,1.79,2.41,1.75Z"></path>
          <path class="cls-48" d="M69.24,4.31c-.16.14-.32.28-.5.29-.26.02-.61-.17-.62-.51l-.09-2.89c0-.2.03-.49.1-.77.08-.35.41-.46.62-.42.23.05.5.26.5.61l-.02,3.7Z"></path>
          <path class="cls-10" d="M76.52,4.74l-2.01,1.95c-.29.28-.7.2-.91-.06-.18-.22-.13-.53.1-.77l1.52-1.59.9-.81c.24-.21.53-.16.66-.06.21.15.35.4.2.69s-.39.43-.47.66Z"></path>
          <path class="cls-33" d="M67.11,17.35c-2.96-.84-4.69-3.83-4.11-6.74s3.18-4.96,6.24-4.66c3.4.34,5.66,3.53,5.1,6.76s-3.83,5.61-7.23,4.64ZM69.21,16.33c2.75-.35,4.41-2.95,3.95-5.42-.49-2.65-3-4.3-5.68-3.64-2.39.59-3.73,3.03-3.33,5.25.43,2.39,2.59,4.12,5.06,3.8Z"></path>
          <path class="cls-47" d="M61.41,19.93c-.27.28-.62.3-.86.12-.81-.58,1.5-2.46,2.36-3.28.21-.2.56-.22.75-.05.7.62-1.25,2.19-2.25,3.21Z"></path>
          <path class="cls-26" d="M69.25,22.83c0,.33-.25.54-.49.6-.25.07-.47-.06-.69-.39l.05-3.67c0-.36.42-.55.64-.52.29.04.5.33.5.7v3.29Z"></path>
          <path class="cls-40" d="M76.86,19.21c.22.24.18.53.04.74-.16.23-.59.35-.86.07l-2.44-2.53c-.2-.2-.1-.5,0-.66.14-.2.52-.35.77-.12.9.8,1.68,1.62,2.48,2.5Z"></path>
          <path class="cls-25" d="M69.21,16.33c-2.47.32-4.63-1.41-5.06-3.8-.4-2.22.95-4.66,3.33-5.25,2.68-.66,5.18.99,5.68,3.64.46,2.47-1.2,5.06-3.95,5.42Z"></path>
        </g>
      </g>
      <g>
        <path class="cls-16" d="M39.04,29.02l-5.34,4.83c-.1.09-.33.16-.38.35-.07.28.13.42.36.69l17.31,20.65h81.71s-8.61-10.27-8.61-10.27l-9.09-11-8.7-.1-5.7-4.8c-.15-.13-.32-.19-.25-.37h14.41s24.39,29.01,24.39,29.01l-90.27.06-24.24-29.03c3.6-.13,10.53.16,14.41,0Z"></path>
        <path class="cls-23" d="M24.63,29.03l24.24,29.03,90.27-.06c.21.94.08,1.79.07,2.98-1.68-.19-3.2.1-4.69.09l-85.38-.16c-.13,0-.39-.1-.52-.26l-4.93-5.73-17.53-20.47c-.54-.63-.88-1.43-1.78-2.12L.36,60.54c-.27-.32.09-2.99-.26-2.55l24.24-28.95h.29Z"></path>
        <path class="cls-4" d="M39.87,28.98h59.9s.57,0,.57,0c-.07.18.1.24.25.37l5.7,4.8-39.56.07-27.1.08-5.93-.05c-.12,0,0-.43-.01-.41l5.34-4.83.83-.04Z"></path>
        <path class="cls-27" d="M26.15,34.46l-9.1,10.79-12.15,14.31c.05.52-.18.99-.18,1.36H.08c-.16-1.05-.04-1.98.02-2.93.36-.45,0,2.23.26,2.55l24.01-28.19c.9.68,1.25,1.49,1.78,2.12Z"></path>
        <g>
          <path class="cls-6" d="M39.63,34.31c-.01.18.17.44.42.45l2.3.1c.13,0,.22.29.31.34.12.07.27-.33.48-.33l7.11-.07c.09.2.03.35.04.45l-7.21-.11,4.95,6.07,6.91-.02c.23-.07.21-.47.49-.35.14.32.29.48.39.51.16.06.45.06.47-.15l6.38-.02c.09.36.49.21.38-.17-.03-.21.08-.28.17-.25.13.26.69.46.98.46l6.47-.03c-.05-.27-.16-.47-.24-.61l.47-.13c.14.18.35.34.43.58-.71-.49.18.42.2.44.06.13-.04.25-.16.3l-7.01.06,4.98,6.06,6.67.02c.14,0,.2-.09.23-.13.07-.07,0-.15-.01-.24.18.06.23-.13.36-.19.22.07.39.35.61.56h6.69c.1,0,.16-.17.23-.2.18-.06.5-.09.69-.04,1.32.37,6.84.29,7.08.13.06-.04.03-.11.01-.24.17.02.19-.19.34-.22.29.03.35.38.62.56l6.76-.03c.37.04.36-.41.75-.33.2.24.28.41.77.41l6.93-.03c.09,0,.19.15.29.04s.11-.2.13-.41c.19-.03.23.13.34.15,2.53.5,5.17.08,7.76.21.11,0,.31.11.38-.05.04-.09-.09-.37.18-.32.21-.05.29.26.45.37l7.51-.03c-.43-.58-.7-1.22-1.17-1.71.18-.04.12-.18-.11-.31-.08-.27.13-.5.28-.61l8.61,10.27H50.98s-17.31-20.64-17.31-20.64c-.22-.27-.43-.41-.36-.69.05-.19.28-.26.38-.35,0-.02-.11.41.01.41l5.93.05ZM47.25,41.2l-4.93-6.02h-7.18s5.08,6.06,5.08,6.06l7.04-.04ZM52.79,47.87l-5.01-6.07-7,.05,5.04,6.1,6.98-.07ZM60.6,47.81l-4.99-6.02-6.95.08,5.02,6.09,6.92-.15ZM68.42,47.81l-4.96-6.02-6.99.07,5.01,6.08,6.93-.13ZM58.27,54.45l-4.91-5.94-7.02.02,5.05,6.07c2.39-.12,4.62.18,6.87-.15ZM66.2,54.55l-4.97-6.04-7.08.02,5.04,6.05,7.01-.04ZM73.97,54.47l-4.92-5.95h-7.06s5.03,6.1,5.03,6.1l6.94-.15ZM81.84,54.52l-4.93-6.01-7.05.02,4.99,6.06,6.99-.07ZM89.69,54.57l-4.95-6.06-7.02.04,5.03,6.05,6.95-.03ZM97.47,54.52l-4.89-6.01-7.06.04,5.07,6.07,6.89-.1ZM105.35,54.56l-4.97-6.05-7.03.02,5.02,6.06,6.99-.03ZM113.86,54.53l-4.99-6.03-7.71.05,5.06,6.08,7.64-.1ZM111.04,50.05c1.03,1.58,2.4,2.87,3.63,4.55l7.6-.04c-.78-.98-1.33-1.96-2.21-2.58-.67-1.26-1.78-2.25-2.75-3.47h-7.51c.2.77.92,1.05,1.24,1.55ZM121.62,52.62c.33.74,1,1.22,1.54,1.98l6.74-.04c.21,0,.5.24.75-.1l-4.95-5.97-7.55.06,3.47,4.07Z"></path>
          <path class="cls-14" d="M106.29,34.17l8.7.1,9.09,11c-.16.11-.36.34-.28.61.24.13.29.27.11.31-1.33-1.36-2.49-2.89-3.81-4.4l-7.52.03,4.54,5.74c-.27-.05-.14.23-.18.32-.06.16-.27.06-.38.05.02-.22.02-.34-.18-.57l-4.67-5.55-7.56.03,4.65,5.88c-.12-.01-.15-.17-.34-.15-.02.21-.04.31-.13.41s-.2-.04-.29-.04c-.06-.03-.04-.12.1-.27l-4.9-5.89-7.63.06,4.72,5.72c-.39-.09-.38.36-.75.33.22-.48-.5-.64-.65-.89-1.14-1.87-2.76-3.39-4.14-5.22l-6.99.06c.99,1.27,1.89,2.39,2.9,3.43.58.6,1.03,1.41,1.51,2.09-.15.03-.17.25-.34.22l-2.44-2.77c-.84-.95-1.53-2.05-2.5-3h-6.82c.2.81.78,1.06,1.09,1.44l3.58,4.43c-.18-.05-.51-.02-.69.04l-4.97-5.9-7.02-.03,4.46,5.57c-.13.06-.18.25-.36.19l-4.86-5.77c.12-.05.22-.18.16-.3-.01-.02-.9-.93-.2-.44.2.12.47.22.8.22l6.53-.06-4.98-6.05-7.08.03,4.29,5.29-.47.13c-.18-.09-.36-.23-.49-.39l-4.16-5.06-7.01.03c.84,1.2,1.75,2.11,2.55,3.12.65.82,1.43,1.56,1.9,2.49-.09-.02-.2.05-.17.25.11.37-.29.53-.38.17.89.26-2.66-3.42-2.54-3.28-.74-.86-1.28-1.96-2.24-2.78h-6.92c.2.55.63.81.91,1.06,1.07,1.64,2.49,3.04,3.74,4.66.19.25.45.35.67.36-.02.2-.31.21-.47.15-.09-.04-.25-.19-.39-.51-.28-.12-.26.28-.49.35.1-.28-.17-.41-.35-.64l-4.29-5.31c0-.1.05-.25-.04-.45l-7.11.07c-.21,0-.36.4-.48.33-.09-.05-.18-.34-.31-.34l-2.3-.1c-.25-.01-.43-.27-.42-.45l27.1-.08,39.56-.07ZM86.47,41.18l-4.99-6.06-7,.07,4.92,6h7.07ZM94.22,41.11l-4.87-5.97-7.05.04,5.03,6.08,6.89-.15ZM102.73,41.15l-4.9-5.99-7.7.02,4.97,6.07,7.63-.1ZM111.22,41.18l-5.01-6.06-7.62.06,5.02,6.06,7.62-.07ZM119.54,41.14l-4.98-6.04-7.5.07,5.03,6.07,7.45-.11Z"></path>
          <path class="cls-12" d="M108.06,47.94l-6.93.03c-.49,0-.57-.16-.77-.41l-4.72-5.72,7.63-.06,4.9,5.89c-.14.15-.17.23-.1.27Z"></path>
          <path class="cls-7" d="M116.58,47.92c-2.58-.12-5.23.29-7.76-.21l-4.65-5.88,7.56-.03,4.67,5.55c.19.23.19.35.18.57Z"></path>
          <path class="cls-2" d="M123.92,46.19c.47.49.74,1.13,1.17,1.71l-7.51.03c-.17-.11-.25-.42-.45-.37l-4.54-5.74,7.52-.03c1.32,1.52,2.47,3.04,3.81,4.4Z"></path>
          <polygon class="cls-13" points="113.86 54.53 106.22 54.63 101.16 48.55 108.87 48.5 113.86 54.53"></polygon>
          <path class="cls-37" d="M84.11,47.73c-.07.03-.13.2-.23.2h-6.69c-.22-.21-.38-.49-.61-.56l-4.46-5.57,7.02.03,4.97,5.9Z"></path>
          <polygon class="cls-13" points="52.79 47.87 45.81 47.94 40.77 41.84 47.77 41.79 52.79 47.87"></polygon>
          <polygon class="cls-13" points="60.6 47.81 53.68 47.96 48.66 41.86 55.62 41.78 60.6 47.81"></polygon>
          <polygon class="cls-35" points="68.42 47.81 61.49 47.94 56.47 41.86 63.46 41.79 68.42 47.81"></polygon>
          <path class="cls-35" d="M71.36,41.79l4.86,5.77c.02.09.08.17.01.24-.04.04-.09.13-.23.13l-6.67-.02-4.98-6.06,7.01-.06Z"></path>
          <polygon class="cls-19" points="47.25 41.2 40.22 41.24 35.14 35.18 42.32 35.18 47.25 41.2"></polygon>
          <path class="cls-8" d="M71.33,41.04c-.08-.24-.29-.4-.43-.58l-4.29-5.29,7.08-.03,4.98,6.05-6.53.06c-.33,0-.6-.1-.8-.22Z"></path>
          <polygon class="cls-35" points="81.84 54.52 74.85 54.6 69.86 48.54 76.91 48.52 81.84 54.52"></polygon>
          <polygon class="cls-35" points="73.97 54.47 67.03 54.62 62 48.53 69.05 48.52 73.97 54.47"></polygon>
          <polygon class="cls-35" points="89.69 54.57 82.75 54.6 77.72 48.55 84.74 48.51 89.69 54.57"></polygon>
          <polygon class="cls-21" points="105.35 54.56 98.36 54.6 93.35 48.54 100.38 48.51 105.35 54.56"></polygon>
          <polygon class="cls-35" points="66.2 54.55 59.19 54.59 54.15 48.54 61.23 48.52 66.2 54.55"></polygon>
          <path class="cls-21" d="M50.3,35.26l4.29,5.31c.18.23.45.36.35.64l-6.91.02-4.95-6.07,7.21.11Z"></path>
          <path class="cls-13" d="M58.27,54.45c-2.25.34-4.48.04-6.87.15l-5.05-6.07,7.02-.02,4.91,5.94Z"></path>
          <polygon class="cls-21" points="97.47 54.52 90.58 54.62 85.52 48.55 92.58 48.51 97.47 54.52"></polygon>
          <path class="cls-36" d="M129.9,54.55c.06-.25-.17-.19-.39-.22l-7-1.68c-.34-.08-.61-.18-.89-.03l-3.47-4.07,7.55-.06,4.95,5.97c-.25.34-.54.09-.75.1Z"></path>
          <path class="cls-38" d="M60.12,37.93c-.12-.14,3.44,3.54,2.54,3.28l-6.38.02c-.22,0-.48-.11-.67-.36-1.26-1.62-2.67-3.02-3.74-4.66.29-.13.58.05.95.13l7.29,1.59Z"></path>
          <path class="cls-34" d="M89.46,44.82l2.44,2.77c.02.12.05.19-.01.24-.24.16-5.76.24-7.08-.13l-3.58-4.43c-.04-.2.19-.2.39-.16l7.85,1.71Z"></path>
          <path class="cls-34" d="M120.05,51.98c.89.62,1.44,1.6,2.21,2.58l-7.6.04c-1.23-1.67-2.6-2.97-3.63-4.55l9.01,1.93Z"></path>
          <path class="cls-41" d="M120.05,51.98l-9.01-1.93c-.32-.49-1.04-.78-1.24-1.53h7.51c.97,1.21,2.08,2.2,2.75,3.46Z"></path>
          <path class="cls-50" d="M69.94,40.2c.13.16.31.3.49.39.08.14.19.34.24.61l-6.47.03c-.29,0-.85-.2-.98-.46-.48-.93-1.26-1.67-1.9-2.49l8.62,1.91Z"></path>
          <path class="cls-34" d="M98.96,47.01c.15.26.87.41.65.89l-6.76.03c-.27-.18-.33-.53-.62-.56-.48-.68-.93-1.49-1.51-2.09l8.24,1.73Z"></path>
          <path class="cls-50" d="M129.9,54.55l-6.74.04c-.54-.75-1.21-1.24-1.54-1.98.29-.15.56-.05.89.03l7,1.68c.22.03.45-.03.39.22Z"></path>
          <polygon class="cls-20" points="102.73 41.15 95.09 41.24 90.13 35.17 97.83 35.15 102.73 41.15"></polygon>
          <polygon class="cls-29" points="111.22 41.18 103.6 41.25 98.58 35.19 106.21 35.12 111.22 41.18"></polygon>
          <polygon class="cls-29" points="119.54 41.14 112.08 41.25 107.06 35.18 114.56 35.11 119.54 41.14"></polygon>
          <polygon class="cls-28" points="86.47 41.18 79.39 41.19 74.47 35.19 81.48 35.12 86.47 41.18"></polygon>
          <polygon class="cls-28" points="94.22 41.11 87.33 41.26 82.3 35.18 89.35 35.14 94.22 41.11"></polygon>
          <path class="cls-20" d="M98.96,47.01l-8.24-1.73c-1.01-1.04-1.91-2.17-2.9-3.43l6.99-.06c1.38,1.83,3.01,3.35,4.14,5.22Z"></path>
          <path class="cls-52" d="M69.94,40.2l-8.62-1.91c-.8-1.01-1.71-1.92-2.55-3.12l7.01-.03,4.16,5.06Z"></path>
          <path class="cls-2" d="M89.46,44.82l-7.85-1.71c-.2-.04-.43-.04-.39.16-.31-.38-.89-.63-1.09-1.44h6.82c.97.95,1.66,2.04,2.5,3Z"></path>
          <path class="cls-46" d="M60.12,37.93l-7.29-1.59c-.37-.08-.66-.26-.95-.13-.28-.25-.71-.51-.91-1.05h6.92c.96.8,1.5,1.91,2.24,2.77Z"></path>
        </g>
      </g>
    </g>
  </g>
</svg>